<?xml version="1.0" encoding="utf-8"?>
<!-- Generator: Adobe Illustrator 16.0.3, SVG Export Plug-In . SVG Version: 6.00 Build 0)  -->
<!DOCTYPE svg PUBLIC "-//W3C//DTD SVG 1.1//EN" "http://www.w3.org/Graphics/SVG/1.1/DTD/svg11.dtd">
<svg version="1.1" id="Objects" xmlns="http://www.w3.org/2000/svg" xmlns:xlink="http://www.w3.org/1999/xlink" x="0px" y="0px"
	 width="800px" height="800px" viewBox="0 0 800 800" enable-background="new 0 0 800 800" xml:space="preserve">
<g id="cactus-body">
	<g>
		<path fill="#51A529" d="M436.679,213.248l-0.648-25.5l-0.147,0.005c0.055-0.003,5.485-0.307,10.95-3.441
			c6.712-3.852,10.608-10.259,11.91-19.587c0.973-6.976,7.414-11.838,14.395-10.869c6.977,0.974,11.843,7.418,10.869,14.395
			C479.156,203.013,450.928,212.885,436.679,213.248z"/>
	</g>
	<path fill="#3E8916" d="M478.199,155.722c0.276,1.374,0.344,2.814,0.14,4.282c-4.291,30.749-26.865,39.926-41.884,42.372
		l0.224,10.872c14.249-0.363,42.478-10.234,47.328-44.999C484.72,163.136,482.29,158.319,478.199,155.722z"/>
	<g>
		<path fill="#51A529" d="M402.273,511.617c-20.277,0-36.716-26.899-36.716-60.082V112.554c0-33.182,16.438-60.081,36.716-60.081
			c20.278,0,36.717,26.899,36.717,60.081v338.981C438.99,484.718,422.552,511.617,402.273,511.617z"/>
	</g>
	<g>
		<path fill="#3E8916" d="M373.98,237.213c-15.684,0-44.142-9.386-53.736-34.571c-7.256-19.047-4.624-39.331-4.509-40.186
			c0.945-6.98,7.367-11.875,14.35-10.928c6.98,0.944,11.873,7.369,10.928,14.349c-0.013,0.105-1.828,14.833,3.068,27.684
			c4.451,11.683,20.504,18.144,29.899,18.144c7.044,0,12.754,5.71,12.754,12.754S381.024,237.213,373.98,237.213z"/>
	</g>
	<path fill="#3E8916" d="M387.201,439.175V110.692c0-26.181,10.899-48.322,25.895-55.646c-3.421-1.671-7.055-2.573-10.822-2.573
		c-20.277,0-36.716,26.066-36.716,58.22v328.482c0,32.153,16.438,58.22,36.716,58.22c3.768,0,7.401-0.903,10.822-2.574
		C398.1,487.496,387.201,465.354,387.201,439.175z"/>
	
		<line fill="none" stroke="#3E8916" stroke-width="5.4108" stroke-linecap="round" stroke-linejoin="round" stroke-miterlimit="10" x1="434.272" y1="125.132" x2="443.548" y2="125.132"/>
	
		<line fill="none" stroke="#3E8916" stroke-width="5.4108" stroke-linecap="round" stroke-linejoin="round" stroke-miterlimit="10" x1="421.712" y1="99.624" x2="424.023" y2="99.624"/>
	
		<line fill="none" stroke="#3E8916" stroke-width="5.4108" stroke-linecap="round" stroke-linejoin="round" stroke-miterlimit="10" x1="426.156" y1="148.515" x2="428.468" y2="148.515"/>
	
		<line fill="none" stroke="#3E8916" stroke-width="5.4108" stroke-linecap="round" stroke-linejoin="round" stroke-miterlimit="10" x1="420.938" y1="186.584" x2="423.251" y2="186.584"/>
	
		<line fill="none" stroke="#3E8916" stroke-width="5.4108" stroke-linecap="round" stroke-linejoin="round" stroke-miterlimit="10" x1="451.048" y1="178.689" x2="452.919" y2="180.048"/>
	
		<line fill="none" stroke="#3E8916" stroke-width="5.4108" stroke-linecap="round" stroke-linejoin="round" stroke-miterlimit="10" x1="423.837" y1="250.161" x2="426.149" y2="250.161"/>
	
		<line fill="none" stroke="#3E8916" stroke-width="5.4108" stroke-linecap="round" stroke-linejoin="round" stroke-miterlimit="10" x1="418.434" y1="209.387" x2="420.745" y2="209.387"/>
	
		<line fill="none" stroke="#3E8916" stroke-width="5.4108" stroke-linecap="round" stroke-linejoin="round" stroke-miterlimit="10" x1="408.771" y1="229.097" x2="411.083" y2="229.097"/>
	
		<line fill="none" stroke="#3E8916" stroke-width="5.4108" stroke-linecap="round" stroke-linejoin="round" stroke-miterlimit="10" x1="404.52" y1="268.132" x2="406.832" y2="268.132"/>
	
		<line fill="none" stroke="#3E8916" stroke-width="5.4108" stroke-linecap="round" stroke-linejoin="round" stroke-miterlimit="10" x1="401.808" y1="173.443" x2="404.119" y2="173.443"/>
	
		<line fill="none" stroke="#3E8916" stroke-width="5.4108" stroke-linecap="round" stroke-linejoin="round" stroke-miterlimit="10" x1="399.102" y1="197.019" x2="401.414" y2="197.019"/>
	
		<line fill="none" stroke="#386D16" stroke-width="5.4108" stroke-linecap="round" stroke-linejoin="round" stroke-miterlimit="10" x1="333.945" y1="211.518" x2="335.938" y2="210.347"/>
	
		<line fill="none" stroke="#386D16" stroke-width="5.4108" stroke-linecap="round" stroke-linejoin="round" stroke-miterlimit="10" x1="328.813" y1="159.928" x2="329.089" y2="162.224"/>
	
		<line fill="none" stroke="#386D16" stroke-width="5.4108" stroke-linecap="round" stroke-linejoin="round" stroke-miterlimit="10" x1="373.208" y1="164.97" x2="375.519" y2="164.91"/>
	
		<line fill="none" stroke="#386D16" stroke-width="5.4108" stroke-linecap="round" stroke-linejoin="round" stroke-miterlimit="10" x1="374.561" y1="129.542" x2="376.872" y2="129.482"/>
	
		<line fill="none" stroke="#386D16" stroke-width="5.4108" stroke-linecap="round" stroke-linejoin="round" stroke-miterlimit="10" x1="377.838" y1="77.544" x2="379.778" y2="78.804"/>
	
		<line fill="none" stroke="#386D16" stroke-width="5.4108" stroke-linecap="round" stroke-linejoin="round" stroke-miterlimit="10" x1="391.907" y1="58.881" x2="393.15" y2="60.831"/>
	
		<line fill="none" stroke="#386D16" stroke-width="5.4108" stroke-linecap="round" stroke-linejoin="round" stroke-miterlimit="10" x1="377.073" y1="207.677" x2="379.384" y2="207.617"/>
	
		<line fill="none" stroke="#386D16" stroke-width="5.4108" stroke-linecap="round" stroke-linejoin="round" stroke-miterlimit="10" x1="375.527" y1="258.693" x2="377.838" y2="258.633"/>
	
		<line fill="none" stroke="#3E8916" stroke-width="5.4108" stroke-linecap="round" stroke-linejoin="round" stroke-miterlimit="10" x1="409.765" y1="71.917" x2="411.235" y2="70.132"/>
	
		<line fill="none" stroke="#3E8916" stroke-width="5.4108" stroke-linecap="round" stroke-linejoin="round" stroke-miterlimit="10" x1="360.453" y1="100.397" x2="369.729" y2="100.397"/>
	
		<line fill="none" stroke="#3E8916" stroke-width="5.4108" stroke-linecap="round" stroke-linejoin="round" stroke-miterlimit="10" x1="435.432" y1="171.125" x2="444.707" y2="171.125"/>
	
		<line fill="none" stroke="#3E8916" stroke-width="5.4108" stroke-linecap="round" stroke-linejoin="round" stroke-miterlimit="10" x1="422.678" y1="229.484" x2="431.953" y2="229.484"/>
	
		<line fill="none" stroke="#3E8916" stroke-width="5.4108" stroke-linecap="round" stroke-linejoin="round" stroke-miterlimit="10" x1="361.999" y1="270.452" x2="371.275" y2="270.452"/>
	
		<line fill="none" stroke="#3E8916" stroke-width="5.4108" stroke-linecap="round" stroke-linejoin="round" stroke-miterlimit="10" x1="434.659" y1="266.973" x2="443.935" y2="266.973"/>
	
		<line fill="none" stroke="#3E8916" stroke-width="5.4108" stroke-linecap="round" stroke-linejoin="round" stroke-miterlimit="10" x1="360.84" y1="178.081" x2="370.115" y2="178.081"/>
	
		<line fill="none" stroke="#3E8916" stroke-width="5.4108" stroke-linecap="round" stroke-linejoin="round" stroke-miterlimit="10" x1="362.386" y1="149.095" x2="371.662" y2="149.095"/>
	
		<line fill="none" stroke="#3E8916" stroke-width="5.4108" stroke-linecap="round" stroke-linejoin="round" stroke-miterlimit="10" x1="311.756" y1="193.541" x2="321.032" y2="193.541"/>
	
		<line fill="none" stroke="#3E8916" stroke-width="5.4108" stroke-linecap="round" stroke-linejoin="round" stroke-miterlimit="10" x1="476.399" y1="183.878" x2="485.675" y2="183.878"/>
	
		<line fill="none" stroke="#3E8916" stroke-width="5.4108" stroke-linecap="round" stroke-linejoin="round" stroke-miterlimit="10" x1="334.945" y1="170.738" x2="344.221" y2="170.738"/>
	
		<line fill="none" stroke="#3E8916" stroke-width="5.4108" stroke-linecap="round" stroke-linejoin="round" stroke-miterlimit="10" x1="313.688" y1="163.008" x2="322.964" y2="163.008"/>
	
		<line fill="none" stroke="#3E8916" stroke-width="5.4108" stroke-linecap="round" stroke-linejoin="round" stroke-miterlimit="10" x1="373.539" y1="58.408" x2="379.06" y2="65.862"/>
	
		<line fill="none" stroke="#3E8916" stroke-width="5.4108" stroke-linecap="round" stroke-linejoin="round" stroke-miterlimit="10" x1="422.486" y1="79.657" x2="429.828" y2="73.988"/>
	
		<line fill="none" stroke="#3E8916" stroke-width="5.4108" stroke-linecap="round" stroke-linejoin="round" stroke-miterlimit="10" x1="469.928" y1="158.345" x2="468.958" y2="149.12"/>
	
		<line fill="none" stroke="#3E8916" stroke-width="5.4108" stroke-linecap="round" stroke-linejoin="round" stroke-miterlimit="10" x1="337.7" y1="230.966" x2="343.014" y2="223.363"/>
	<path fill="#2C5414" d="M389.641,123.306c0.237,6.464,5.538,11.635,12.06,11.635c6.522,0,11.822-5.17,12.06-11.635H389.641z"/>
	<circle fill="#122606" cx="385.473" cy="116.743" r="2.834"/>
	<circle fill="#122606" cx="417.216" cy="116.743" r="2.834"/>
	<path fill="#E0FFCC" d="M397.971,125.446c0,1.647,0.968,2.983,2.162,2.983c0.619,0,1.172-0.362,1.565-0.935
		c0.395,0.573,0.948,0.935,1.566,0.935c1.195,0,2.163-1.336,2.163-2.983c0-0.261-0.031-0.507-0.075-0.747h-7.306
		C398.002,124.938,397.971,125.185,397.971,125.446z"/>
	
		<line fill="none" stroke="#3E8916" stroke-width="5.4108" stroke-linecap="round" stroke-linejoin="round" stroke-miterlimit="10" x1="415.52" y1="286.132" x2="417.832" y2="286.132"/>
	
		<line fill="none" stroke="#3E8916" stroke-width="5.4108" stroke-linecap="round" stroke-linejoin="round" stroke-miterlimit="10" x1="432.659" y1="308.973" x2="441.935" y2="308.973"/>
	
		<line fill="none" stroke="#386D16" stroke-width="5.4108" stroke-linecap="round" stroke-linejoin="round" stroke-miterlimit="10" x1="379.527" y1="288.693" x2="381.838" y2="288.633"/>
	
		<line fill="none" stroke="#3E8916" stroke-width="5.4108" stroke-linecap="round" stroke-linejoin="round" stroke-miterlimit="10" x1="431.659" y1="356.973" x2="440.935" y2="356.973"/>
	
		<line fill="none" stroke="#3E8916" stroke-width="5.4108" stroke-linecap="round" stroke-linejoin="round" stroke-miterlimit="10" x1="360.999" y1="323.452" x2="370.275" y2="323.452"/>
	
		<line fill="none" stroke="#3E8916" stroke-width="5.4108" stroke-linecap="round" stroke-linejoin="round" stroke-miterlimit="10" x1="359.999" y1="407.451" x2="369.275" y2="407.451"/>
	
		<line fill="none" stroke="#3E8916" stroke-width="5.4108" stroke-linecap="round" stroke-linejoin="round" stroke-miterlimit="10" x1="434.659" y1="416.973" x2="443.935" y2="416.973"/>
	
		<line fill="none" stroke="#3E8916" stroke-width="5.4108" stroke-linecap="round" stroke-linejoin="round" stroke-miterlimit="10" x1="406.52" y1="330.132" x2="408.832" y2="330.132"/>
	
		<line fill="none" stroke="#386D16" stroke-width="5.4108" stroke-linecap="round" stroke-linejoin="round" stroke-miterlimit="10" x1="377.527" y1="320.693" x2="379.838" y2="320.633"/>
	
		<line fill="none" stroke="#3E8916" stroke-width="5.4108" stroke-linecap="round" stroke-linejoin="round" stroke-miterlimit="10" x1="417.52" y1="348.132" x2="419.832" y2="348.132"/>
	
		<line fill="none" stroke="#386D16" stroke-width="5.4108" stroke-linecap="round" stroke-linejoin="round" stroke-miterlimit="10" x1="381.527" y1="350.693" x2="383.838" y2="350.633"/>
	
		<line fill="none" stroke="#3E8916" stroke-width="5.4108" stroke-linecap="round" stroke-linejoin="round" stroke-miterlimit="10" x1="420.938" y1="392.584" x2="423.251" y2="392.584"/>
	
		<line fill="none" stroke="#3E8916" stroke-width="5.4108" stroke-linecap="round" stroke-linejoin="round" stroke-miterlimit="10" x1="418.434" y1="415.387" x2="420.745" y2="415.387"/>
	
		<line fill="none" stroke="#3E8916" stroke-width="5.4108" stroke-linecap="round" stroke-linejoin="round" stroke-miterlimit="10" x1="398.771" y1="442.098" x2="401.083" y2="442.098"/>
	
		<line fill="none" stroke="#3E8916" stroke-width="5.4108" stroke-linecap="round" stroke-linejoin="round" stroke-miterlimit="10" x1="401.808" y1="358.443" x2="404.119" y2="358.443"/>
	
		<line fill="none" stroke="#3E8916" stroke-width="5.4108" stroke-linecap="round" stroke-linejoin="round" stroke-miterlimit="10" x1="399.102" y1="413.02" x2="401.414" y2="413.02"/>
	
		<line fill="none" stroke="#386D16" stroke-width="5.4108" stroke-linecap="round" stroke-linejoin="round" stroke-miterlimit="10" x1="375.073" y1="371.677" x2="377.384" y2="371.617"/>
	
		<line fill="none" stroke="#386D16" stroke-width="5.4108" stroke-linecap="round" stroke-linejoin="round" stroke-miterlimit="10" x1="373.527" y1="422.693" x2="375.838" y2="422.633"/>
	
		<line fill="none" stroke="#386D16" stroke-width="5.4108" stroke-linecap="round" stroke-linejoin="round" stroke-miterlimit="10" x1="377.527" y1="452.693" x2="379.838" y2="452.633"/>
	
		<line fill="none" stroke="#3E8916" stroke-width="5.4108" stroke-linecap="round" stroke-linejoin="round" stroke-miterlimit="10" x1="392.52" y1="378.132" x2="394.832" y2="378.132"/>
	
		<line fill="none" stroke="#3E8916" stroke-width="5.4108" stroke-linecap="round" stroke-linejoin="round" stroke-miterlimit="10" x1="403.52" y1="396.132" x2="405.832" y2="396.132"/>
	
		<line fill="none" stroke="#3E8916" stroke-width="5.4108" stroke-linecap="round" stroke-linejoin="round" stroke-miterlimit="10" x1="392.52" y1="378.132" x2="394.832" y2="378.132"/>
	
		<line fill="none" stroke="#3E8916" stroke-width="5.4108" stroke-linecap="round" stroke-linejoin="round" stroke-miterlimit="10" x1="403.52" y1="396.132" x2="405.832" y2="396.132"/>
	
		<line fill="none" stroke="#3E8916" stroke-width="5.4108" stroke-linecap="round" stroke-linejoin="round" stroke-miterlimit="10" x1="422.52" y1="438.133" x2="424.832" y2="438.133"/>
	
		<line fill="none" stroke="#3E8916" stroke-width="5.4108" stroke-linecap="round" stroke-linejoin="round" stroke-miterlimit="10" x1="433.52" y1="456.133" x2="435.832" y2="456.133"/>
</g>
<polygon fill="#995D16" points="451.713,473.255 353.853,473.255 371.842,549.979 433.724,549.979 "/>
<polygon fill="#845017" points="358.927,494.897 446.639,494.897 451.713,473.255 353.853,473.255 "/>
<polygon fill="#C1871F" points="460.756,462.434 344.81,462.434 348.905,482.529 456.66,482.529 "/>
</svg>
