<?xml version="1.0" encoding="utf-8"?>
<!-- Generator: Adobe Illustrator 18.1.1, SVG Export Plug-In . SVG Version: 6.00 Build 0)  -->
<svg version="1.1" id="Ebene_1" xmlns="http://www.w3.org/2000/svg" xmlns:xlink="http://www.w3.org/1999/xlink" x="0px" y="0px"
	 viewBox="661.7 1097.3 595.3 278.4" enable-background="new 661.7 1097.3 595.3 278.4" xml:space="preserve">
<pattern  x="0" y="841.9" width="22.3" height="22.3" patternUnits="userSpaceOnUse" id="SVGID_2_" viewBox="8 -25.3 22.3 22.3" overflow="visible">
	<g>
		<polygon fill="none" points="8,-3 30.3,-3 30.3,-25.3 8,-25.3 		"/>
		<g>
			<polygon fill="none" points="8,-25.3 30.3,-25.3 30.3,-3 8,-3 			"/>
			<g>
				<polygon fill="none" points="8,-3 30.3,-3 30.3,-25.3 8,-25.3 				"/>
				<g>
					<polygon fill="none" points="8,-25.3 30.3,-25.3 30.3,-3 8,-3 					"/>
					<g>
						<polygon fill="none" points="8,-3 30.3,-3 30.3,-25.3 8,-25.3 						"/>
						<g>
							<polygon fill="none" points="8,-25.3 30.3,-25.3 30.3,-3 8,-3 							"/>
							<g>
								<polygon fill="none" points="8,-3 8,-25.3 30.3,-25.3 30.3,-3 								"/>
								<line fill="none" x1="1.7" y1="-4.9" x2="3.5" y2="-3"/>
								<line fill="none" x1="1.7" y1="-3" x2="3.5" y2="-4.9"/>
								<path fill="none" stroke="#232422" stroke-width="0.3" d="M8.2-16.9c0.5-0.2,4.2-3.9,4.3-4.3"/>
								<path fill="none" stroke="#232422" stroke-width="0.3" d="M10-17.1c-0.5,0.2-4,4.4-4,4.8"/>
								<path fill="none" stroke="#232422" stroke-width="0.3" d="M8.2-10.6c0.5-0.8,5.8-6.8,6.4-7.3c0.6-0.5,1-2.7,1.3-3.1"/>
								<path fill="none" stroke="#232422" stroke-width="0.3" d="M13.6-17.9c-0.7,0.3-4.9,5.6-5,6c-0.1,0.4-2.8,2.5-3.1,2.5"/>
								<path fill="none" stroke="#232422" stroke-width="0.3" d="M10.5-10.3c0.2-0.2,0.6-0.6,1-1.1c1.2-1.4,3-3.5,3.3-3.8"/>
								<path fill="none" stroke="#232422" stroke-width="0.3" d="M12.3-10.3c-0.5,0.7-4,3.5-4.6,4"/>
								<path fill="none" stroke="#232422" stroke-width="0.3" d="M25.6-5.6C24.9-5.3,20.1-0.5,20,0"/>
								<path fill="none" stroke="#232422" stroke-width="0.3" d="M14.4-1.2c0.3-0.2,1.1-1.2,2-2.3C17.6-5,19-6.6,19.2-6.8"/>
								<path fill="none" stroke="#232422" stroke-width="0.3" d="M17.8-6.9c-0.4,0.2-2.1,2-3.5,3.6c-0.9,1.1-1.7,2-1.7,2.2"/>
								<path fill="none" stroke="#232422" stroke-width="0.3" d="M21.4-6.9C21-6.8,19.4-5,18-3.4c-1.2,1.4-2.2,2.6-2.3,2.9"/>
								<path fill="none" stroke="#232422" stroke-width="0.3" d="M8.8-2.7c0.1-0.2,0.3-0.5,0.6-0.7c0.7-0.8,1.9-1.8,2.3-2.2
									c0.6-0.6,2.9-3.5,3.2-3.9"/>
								<path fill="none" stroke="#232422" stroke-width="0.3" d="M9.9-2.3C10.1-2.6,10.5-3,11-3.5c0.7-0.7,1.5-1.4,1.9-1.7
									c0.6-0.6,2.9-3.5,3.2-3.9"/>
								<path fill="none" stroke="#232422" stroke-width="0.3" d="M31.9-21.4c-0.2,0.1-1.1,0.8-2,1.7c-1.6,1.5-3.5,3.6-3.6,3.9
									c-0.1,0.5-2,2.3-2.3,2.3"/>
								<path fill="none" stroke="#232422" stroke-width="0.3" d="M29.7-16.1c-0.3,0-3.3,4.6-3.4,5.1c-0.1,0.5-1.9,1.8-1.9,1.8
									c-0.3,0.4-2.5,3.3-3.2,3.9c-0.2,0.2-1,1-1.8,1.8c-1.2,1.2-2.5,2.7-2.8,3.1"/>
								<path fill="none" stroke="#232422" stroke-width="0.3" d="M28.2-11.4c0.5-0.8,0.8-0.6,1.4-1.2c0.1-0.1,0.6-0.6,1.1-1.2"/>
								<path fill="none" stroke="#232422" stroke-width="0.3" d="M32.3-17.1c-0.5,0.2-4,4.4-4,4.8"/>
								<path fill="none" stroke="#232422" stroke-width="0.3" d="M30.9-11.9c-0.1,0.5-2.8,2.4-3.1,2.4"/>
								<path fill="none" stroke="#232422" stroke-width="0.3" d="M31.9-10.7c-0.2,0.1-1.4,1.2-2.7,2.4c-1.8,1.7-3.7,3.7-3.7,3.9
									c-0.2,0.2-1,0.9-1.9,1.8"/>
								<path fill="none" stroke="#232422" stroke-width="0.3" d="M31.1-7.1c-0.5,0.4-0.9,0.7-1.1,0.8c-0.7,0.5-3.6,4.5-3.9,4.9"/>
								<path fill="none" stroke="#232422" stroke-width="0.3" d="M31.9-24.1c-0.2,0.1-1.1,1-2.1,2c-1.6,1.7-3.5,4-3.6,4.3
									c-0.1,0.5-2.8,2.4-3.1,2.4"/>
								<path fill="none" stroke="#232422" stroke-width="0.3" d="M29.3-25.7c-1,1.1-1.9,2-1.9,2.1c-0.1,0.5-0.2,1-0.6,1"/>
								<path fill="none" stroke="#232422" stroke-width="0.3" d="M25.6-27.9c-0.7,0.3-5.4,5.1-5.5,5.6c-0.1,0.5-2.8,3.6-4,4.3"/>
								<path fill="none" stroke="#232422" stroke-width="0.3" d="M11.8-13c0.7-1.2,3.3-4.2,4-4.4"/>
								<path fill="none" stroke="#232422" stroke-width="0.3" d="M24.7-5.8c0,0,2.5-2.2,2.6-2.9"/>
								<path fill="none" stroke="#232422" stroke-width="0.3" d="M27.9-11c-0.4,0.3-2.3,2.3-2.2,2.7c-0.5,0.2-3,3-4.5,4.8
									C20.5-2.7,20-2.1,20-2"/>
								<path fill="none" stroke="#232422" stroke-width="0.3" d="M20.1-6.9c0.5-0.5,5.3-4,5.9-5.9c0.3-0.4,3.3-4.4,3.9-4.9
									c0.2-0.2,0.6-0.5,1.1-0.9"/>
								<path fill="none" stroke="#232422" stroke-width="0.3" d="M26-22.4c-0.3,0.4-3.3,4.6-4.9,5.7s-3.3,4.2-4.3,4.3
									c-1.1,0.2-5.8,5.1-6.2,5.5C9.9-6.5,6.4-3.1,6.3-2.6"/>
								<path fill="none" stroke="#232422" stroke-width="0.3" d="M13.1-10.3c0.4-0.6,3.6-3.6,4.5-4.2c0.9-0.6,6.3-7.8,8.5-9.2
									c0.3-0.4,3.3-4.4,3.9-4.9"/>
								<path fill="none" stroke="#232422" stroke-width="0.3" d="M13.2-11.6c0.6-0.7,1.9-2.7,2.9-3.4c1-0.7,2.2-1.7,2.6-2.1"/>
								<path fill="none" stroke="#232422" stroke-width="0.3" d="M15.9-16.1c0.8-0.7,3.6-2.5,4.4-3.7c0.9-1.2,4.7-4.9,5.4-5.1
									c0.1-0.2,0.4-0.6,0.9-1.1"/>
								<path fill="none" stroke="#232422" stroke-width="0.3" d="M16.5-10.3c0.6-0.8,6.5-6.5,8-7.9c0.5-0.8,2.3-2.4,2.9-2.9
									c0.4-0.3,1.3-1.5,2.1-2.5c0.5-0.7,0.9-1.2,1.1-1.4"/>
								<path fill="none" stroke="#232422" stroke-width="0.3" d="M18.5-7.8c0.6-0.6,3.3-2,4-3c0.7-1,1.3-2.1,1.5-2.2"/>
								<path fill="none" stroke="#232422" stroke-width="0.3" d="M20.3-10.3c0.7-0.9,3.2-4.3,4.5-4.9"/>
								<path fill="none" stroke="#232422" stroke-width="0.3" d="M19.6-11.6c0.4-0.5,2.2-2.8,2.9-3.1"/>
								<path fill="none" stroke="#232422" stroke-width="0.3" d="M19.5-10.4c-0.4,0.5-2.3,2.1-3.6,3.2c-0.5,0.4-0.9,0.7-1.1,0.8
									c-0.4,0.3-1.4,1.6-2.4,2.9c-0.7,1-1.4,1.9-1.5,2"/>
								<path fill="none" stroke="#232422" stroke-width="0.3" d="M9.5-10.7c-0.2,0.1-1.4,1.2-2.7,2.4"/>
								<path fill="none" stroke="#232422" stroke-width="0.3" d="M25.4-26.7c-0.2,0.2-1,0.9-1.9,1.8c-1.5,1.5-3.5,3.5-3.8,4"/>
								<path fill="none" stroke="#232422" stroke-width="0.3" d="M9.6-24.1c-0.2,0.1-1.1,1-2.1,2"/>
								<path fill="none" stroke="#232422" stroke-width="0.3" d="M25.7-2.7c0.1-0.2,0.4-0.6,0.9-1.1c0.8-0.9,2.1-2.3,3.2-3.4
									C31-8.4,32-9.4,32.2-9.6"/>
								<path fill="none" stroke="#232422" stroke-width="0.3" d="M11.9-23.6c-0.3,0.4-1.8,1.6-2.4,2.2c-0.2,0.1-1.1,0.8-2,1.7"/>
								<path fill="none" stroke="#232422" stroke-width="0.3" d="M7.3-23.6c0.5-0.7,0.9-1.2,1.1-1.4"/>
								<path fill="none" stroke="#232422" stroke-width="0.3" d="M7.5-7.2c1.1-1.2,2.2-2.2,2.4-2.4"/>
								<path fill="none" stroke="#232422" stroke-width="0.3" d="M8.8-25c0.1-0.2,0.3-0.5,0.6-0.7"/>
								<path fill="none" stroke="#232422" stroke-width="0.3" d="M9.9-24.6c0.2-0.3,0.6-0.7,1.1-1.2"/>
								<path fill="none" stroke="#232422" stroke-width="0.3" d="M12.5-25.8c-0.7,1-1.4,1.9-1.5,2"/>
								<path fill="none" stroke="#232422" stroke-width="0.3" d="M18-25.7c-1.2,1.4-2.2,2.6-2.3,2.9c-0.1,0.5-3.2,3.5-3.5,3.5"/>
								<path fill="none" stroke="#232422" stroke-width="0.3" d="M14.3-25.6c-0.9,1.1-1.7,2-1.7,2.2c-0.1,0.5-0.2,1-0.6,1"/>
								<path fill="none" stroke="#232422" stroke-width="0.3" d="M16.4-25.8c-0.9,1.1-1.7,2.1-2,2.3c-0.6,0.6-0.9,0.4-1.4,1.2"/>
								<path fill="none" stroke="#232422" stroke-width="0.3" d="M16.6-22.7c0.3-0.5,1.6-1.9,2.8-3.1"/>
								<path fill="none" stroke="#232422" stroke-width="0.3" d="M21.2-25.8C20.5-25,20-24.4,20-24.3c-0.1,0.5-3,3.9-3.3,3.9"/>
								<path fill="none" stroke="#232422" stroke-width="0.3" d="M7.3-12.5c0.1-0.1,0.6-0.6,1.1-1.2c2-2.2,5.9-6.5,6.2-6.8"/>
								<path fill="none" stroke="#232422" stroke-width="0.3" d="M12.3-21.7c-0.4,0.5-2.3,2.1-3.6,3.1c-0.5,0.4-0.9,0.7-1.1,0.9"/>
								<path fill="none" stroke="#232422" stroke-width="0.3" d="M33-6.8c-0.4,0.2-2.3,1.9-3.7,3.4c-1,1.1-1.9,2-1.9,2.1"/>
								<path fill="none" stroke="#232422" stroke-width="0.3" d="M2.4-21.6c-0.2,0.1-1.2,3-2.3,3.8"/>
							</g>
						</g>
					</g>
				</g>
			</g>
		</g>
	</g>
</pattern>
<g id="bg_1_">
	<rect id="bg" x="661.7" y="1097.3" fill="#8DC6E0" width="595.3" height="278.4"/>
</g>
<g id="desk">
	<g id="steckdose">
		<path fill="#E2E2E1" d="M749.6,1335.7c0,1.9-1.5,3.4-3.4,3.4h-40.9c-1.9,0-3.4-1.5-3.4-3.4v-11.2c0-1.9,1.5-3.4,3.4-3.4h40.9
			c1.9,0,3.4,1.5,3.4,3.4V1335.7z"/>
		<g>
			<path fill="none" stroke="#FFFFFF" stroke-width="3" stroke-miterlimit="10" d="M780.7,1266.9v64.3c0,10.3-8,18.6-17.9,18.6h-4.5
				c-9.9,0-17.3-3.8-17.3-14"/>
			<g>
				<circle fill="#FFFFFF" cx="740.9" cy="1330" r="5.1"/>
				<g>
					<g opacity="5.000000e-02">
						<path fill="#040506" d="M742.8,1335.1c0,0.9-0.7,1.6-1.6,1.6l0,0c-0.9,0-1.6-0.7-1.6-1.6v-4.8c0-0.9,0.7-1.6,1.6-1.6l0,0
							c0.9,0,1.6,0.7,1.6,1.6V1335.1z"/>
					</g>
					<g>
						<path fill="#F4F3F3" d="M742.5,1335.1c0,0.9-0.7,1.6-1.6,1.6l0,0c-0.9,0-1.6-0.7-1.6-1.6v-4.8c0-0.9,0.7-1.6,1.6-1.6l0,0
							c0.9,0,1.6,0.7,1.6,1.6V1335.1z"/>
					</g>
				</g>
				<path fill="#F4F3F3" d="M741.4,1336.8c0,0.3-0.2,0.6-0.6,0.6l0,0c-0.3,0-0.6-0.2-0.6-0.6l0,0c0-0.3,0.2-0.6,0.6-0.6l0,0
					C741.1,1336.2,741.4,1336.5,741.4,1336.8L741.4,1336.8z"/>
			</g>
		</g>
		<g>
			<circle fill="#C8C8C8" cx="710.8" cy="1330" r="5.1"/>
			<g>
				<circle fill="#404140" cx="712.4" cy="1329" r="0.8"/>
				<circle fill="#404140" cx="709.2" cy="1331.2" r="0.8"/>
			</g>
		</g>
		<g>
			<circle fill="#C8C8C8" cx="725.8" cy="1330" r="5.1"/>
			<g>
				<circle fill="#404140" cx="727.4" cy="1329" r="0.8"/>
				<circle fill="#404140" cx="724.1" cy="1331.2" r="0.8"/>
			</g>
		</g>
		<path fill="none" stroke="#FFFFFF" stroke-miterlimit="10" d="M740.9,1335.1"/>
	</g>
	<g id="bild">
		<rect x="844.6" y="1125.2" fill="#3D3D3D" width="60.3" height="39.4"/>
		<g>
			<rect x="846.7" y="1127.1" fill="#EFF2F3" width="56.1" height="35.6"/>
		</g>
		<g>
			<rect x="854" y="1131.9" fill="#C4D9E9" width="41.4" height="26.8"/>
			<g>
				<circle fill="#D5B039" cx="870.3" cy="1141.9" r="6.2"/>
				<circle opacity="0.3" fill="#D5B039" enable-background="new    " cx="870.3" cy="1141.9" r="6.6"/>
			</g>
			<g>
				<path fill="#F3F7F9" d="M857.9,1133.7h-4v3.8h4c1.1,0,1.9-0.8,1.9-1.9C859.8,1134.6,859,1133.7,857.9,1133.7z"/>
				<path fill="#F3F7F9" d="M895.2,1137.2h-2c0.4-0.3,0.6-0.8,0.6-1.4c0-1.1-0.8-1.9-1.9-1.9H881c-1.1,0-1.9,0.8-1.9,1.9
					s0.8,1.9,1.9,1.9h2c-0.4,0.3-0.6,0.8-0.6,1.4c0,1.1,0.8,1.9,1.9,1.9h10.9c0.1,0,0.2,0,0.2,0v-3.8
					C895.3,1137.2,895.3,1137.2,895.2,1137.2z"/>
			</g>
			<polygon fill="#907A5D" points="854,1145 862.2,1140.1 870.6,1145.9 883.6,1136.4 895.4,1146.9 895.4,1158.8 854,1158.8 			"/>
			<path fill="#86B76E" d="M881.8,1150v8.8v0.1h1.2v-0.1v-6.8c0.2,0,0.3,0,0.5,0c0.8,0,1.8-0.2,2.6-0.7c0.9-0.6,1.4-1.5,1.6-2.7
				c0.1-0.3-0.2-0.7-0.5-0.7c-0.3-0.1-0.7,0.2-0.7,0.5c-0.1,0.9-0.5,1.5-1.1,1.9c-0.8,0.5-1.9,0.5-2.5,0.5v-4.1
				c0-0.3-0.3-0.6-0.6-0.6s-0.6,0.3-0.6,0.6v2.1c-0.4,0-0.9-0.1-1.2-0.4c-0.3-0.3-0.4-0.9-0.3-1.6c0.1-0.3-0.2-0.7-0.5-0.7
				c-0.3-0.1-0.7,0.2-0.7,0.5c-0.2,1.2,0.1,2.1,0.7,2.7C880.4,1149.8,881.2,1150,881.8,1150z"/>
		</g>
	</g>
	<g id="tisch">
		<g opacity="0.15">
			<path fill="#040506" d="M929.8,1294.5c0,2.1-1.7,3.8-3.8,3.8H703.3c-2.1,0-3.8-1.7-3.8-3.8v-4.4c0-2.1,1.7-3.8,3.8-3.8H926
				c2.1,0,3.8,1.7,3.8,3.8V1294.5L929.8,1294.5z"/>
			<path opacity="0.3" fill="#040506" enable-background="new    " d="M929.8,1294.5c0,2.1-1.7,3.8-3.8,3.8H703.3
				c-2.1,0-3.8-1.7-3.8-3.8v-4.4c0-2.1,1.7-3.8,3.8-3.8H926c2.1,0,3.8,1.7,3.8,3.8V1294.5L929.8,1294.5z"/>
		</g>
		<g>
			<g>
				<path fill="#6B5A4C" d="M929.8,1292.9c0,2.1-1.7,3.8-3.8,3.8H703.3c-2.1,0-3.8-1.7-3.8-3.8v-4.4c0-2.1,1.7-3.8,3.8-3.8H926
					c2.1,0,3.8,1.7,3.8,3.8V1292.9L929.8,1292.9z"/>
				<pattern  id="SVGID_1_" xlink:href="#SVGID_2_" patternTransform="matrix(0.3173 0 0 0.3173 -24435.9746 10757.4746)">
				</pattern>
				<path opacity="0.3" fill="url(#SVGID_1_)" enable-background="new    " d="M929.8,1292.9c0,2.1-1.7,3.8-3.8,3.8H703.3
					c-2.1,0-3.8-1.7-3.8-3.8v-4.4c0-2.1,1.7-3.8,3.8-3.8H926c2.1,0,3.8,1.7,3.8,3.8V1292.9L929.8,1292.9z"/>
			</g>
		</g>
	</g>
	<g id="uhr">
		<g>
			<g opacity="0.15">
				<circle fill="#040506" cx="743.2" cy="1146.5" r="22.4"/>
			</g>
			<g>
				<circle fill="#3D3D3D" cx="743.2" cy="1145" r="22.4"/>
			</g>
		</g>
		<path fill="#FFFFFF" d="M747.9,1125.6L747.9,1125.6c-0.3-0.1-0.6-0.1-0.9-0.2c-0.1,0-0.1,0-0.2,0c-0.2,0-0.5-0.1-0.7-0.1
			s-0.4-0.1-0.5-0.1s-0.2,0-0.4,0c-5.7-0.6-11.7,1.3-16,5.7c-7.7,7.7-7.7,20.3,0,28l0,0c3.6,3.6,8.6,5.8,14,5.8
			c10.9,0,19.8-8.9,19.8-19.8C763,1135.5,756.6,1127.7,747.9,1125.6z"/>
		<g>
			<g>
				<path fill="#C62F37" d="M743.8,1145.1L743.8,1145.1c-0.2-0.1-0.2-0.2-0.1-0.2l9.7-10.2c0.1-0.1,0.2-0.1,0.2,0
					c0.1,0.1,0.1,0.2,0,0.2l-9.7,10.2C743.9,1145.1,743.9,1145.1,743.8,1145.1z"/>
			</g>
			<path fill="#433547" d="M743.6,1145.6c-0.3-0.1-0.5-0.4-0.4-0.8l0,0c0.1-0.4,0.4-0.7,0.7-0.6l9.7,2c0.3,0.1,0.5,0.4,0.4,0.8l0,0
				c-0.1,0.4-0.4,0.7-0.7,0.6L743.6,1145.6z"/>
			<path fill="#433547" d="M743.3,1144.5c0.3-0.3,0.8-0.3,1.1-0.1l0,0c0.3,0.3,0.2,0.7-0.1,1.1l-9.5,9.5c-0.3,0.3-0.8,0.3-1.1,0.1
				l0,0c-0.3-0.3-0.2-0.7,0.1-1.1L743.3,1144.5z"/>
		</g>
		<g>
			<path fill="#3D3D3D" d="M744.8,1162.9l-0.1-1.2h0.2l0.1,1.2H744.8z M741.6,1162.9h-0.2l0.1-1.2h0.2L741.6,1162.9z M748.1,1162.4
				l-0.3-1.2h0.2l0.3,1.2H748.1z M738.4,1162.4h-0.2l0.3-1.2h0.2L738.4,1162.4z M751.2,1161.2l-0.6-1.1l0.1-0.1L751.2,1161.2
				L751.2,1161.2z M735.2,1161.2l-0.2-0.1l0.6-1.1l0.1,0.1L735.2,1161.2z M754,1159.4l-0.7-1l0.1-0.1L754,1159.4L754,1159.4z
				 M732.4,1159.4L732.4,1159.4l0.6-1.1l0.1,0.1L732.4,1159.4z M756.5,1157.2l-0.9-0.8l0.1-0.1L756.5,1157.2L756.5,1157.2z
				 M729.9,1157.2L729.9,1157.2l0.8-0.9l0.1,0.1L729.9,1157.2z M758.5,1154.6l-1.1-0.7l0.1-0.1L758.5,1154.6L758.5,1154.6z
				 M727.9,1154.5L727.9,1154.5l1-0.8l0.1,0.1L727.9,1154.5z M760,1151.6l-1.1-0.5l0.1-0.1l1.1,0.4L760,1151.6z M726.4,1151.5
				l-0.1-0.2l1.1-0.4l0.1,0.1L726.4,1151.5z M761,1148.4l-1.2-0.2v-0.2l1.2,0.2V1148.4z M725.5,1148.4v-0.2l1.2-0.2v0.2
				L725.5,1148.4z M761.3,1145.1H760v-0.2h1.2L761.3,1145.1L761.3,1145.1z M725.1,1145L725.1,1145v-0.2h1.2v0.2v0.1L725.1,1145
				L725.1,1145z M759.8,1142v-0.2l1.2-0.2v0.2L759.8,1142z M726.7,1141.9l-1.2-0.2v-0.2l1.2,0.2V1141.9z M759,1138.9L759,1138.9
				l1-0.6l0.1,0.2L759,1138.9z M727.5,1138.8l-1.1-0.5l0.1-0.2l1.1,0.5L727.5,1138.8z M757.6,1136.1L757.6,1136.1l1-0.8l0.1,0.1
				L757.6,1136.1z M728.9,1136l-1.1-0.7l0.1-0.1L728.9,1136L728.9,1136z M755.7,1133.6L755.7,1133.6l0.8-0.9l0.1,0.1L755.7,1133.6z
				 M730.8,1133.5l-0.9-0.8l0.1-0.1L730.8,1133.5L730.8,1133.5z M753.5,1131.5L753.5,1131.5l0.6-1.1l0.1,0.1L753.5,1131.5z
				 M733.1,1131.5l-0.7-1l0.1-0.1L733.1,1131.5L733.1,1131.5z M750.8,1129.8L750.8,1129.8l0.5-1.2l0.2,0.1L750.8,1129.8z
				 M735.7,1129.8l-0.6-1.1l0.2-0.1l0.6,1.1L735.7,1129.8z M748,1128.7h-0.2l0.3-1.2h0.2L748,1128.7z M738.6,1128.7l-0.3-1.2h0.2
				l0.3,1.2H738.6z M744.9,1128.1h-0.2l0.1-1.2h0.2L744.9,1128.1z M741.7,1128.1l-0.1-1.2h0.2l0.1,1.2H741.7z"/>
		</g>
	</g>
	<g id="tasse">
		<g>
			<g>
				<circle fill="#DDC83D" cx="734.3" cy="1270.3" r="5.7"/>
				<circle fill="#7FB3C7" cx="734.3" cy="1270.3" r="3"/>
				<path fill="#DDC83D" d="M714.8,1259.9v19.5c0,2.9,2.4,5.3,5.3,5.3h7.2c2.9,0,5.3-2.4,5.3-5.3v-19.5H714.8z"/>
			</g>
		</g>
		<path opacity="0.8" fill="#E7E7E6" enable-background="new    " d="M734.9,1241.2h-4.1c0.4-0.6,0.6-1.3,0.6-2.1v-2.4
			c0-2.2-1.8-4-4-4h-14.8c-2.2,0-4,1.8-4,4v2.4c0,2.2,1.8,4,4,4h5.1c-0.4,0.6-0.6,1.3-0.6,2.1v1c0,1.5,0.8,2.7,2,3.4
			c-0.6,0.7-1,1.6-1,2.6v0.7c0,2.2,1.8,4,4,4h2.9c2.2,0,4-1.8,4-4v-0.7c0-0.7-0.2-1.5-0.6-2.1h6.5c2.2,0,4-1.8,4-4v-1
			C738.9,1243,737.1,1241.2,734.9,1241.2z"/>
	</g>
	<g id="pc">
		<g>
			<path fill="#E4E4E4" d="M842.8,1284.6c0-5.4,4.4-9.8,9.8-9.8c5.4,0,9.8,4.4,9.8,9.8"/>
			<path fill="#CDCCCB" d="M852.6,1274.8c0,0,1.5,0.9,2.7,2.5c1.2,1.8,2.1,4.5,2.2,7.3h4.8C862.3,1284.6,862.5,1274.8,852.6,1274.8z
				"/>
		</g>
		<g>
			<rect x="796.1" y="1268.9" fill="#E4E4E4" width="25.1" height="10.4"/>
			<path fill="#E4E4E4" d="M828.9,1281.7c0,1.8-1.2,3.3-2.7,3.3h-35c-1.5,0-2.7-1.5-2.7-3.3v-0.3c0-1.8,1.2-3.3,2.7-3.3h35
				c1.5,0,2.7,1.5,2.7,3.3V1281.7z"/>
			<path fill="#3A4245" d="M750.7,1266.2v-66c0-1.5,1.2-2.7,2.7-2.7h108.3c1.5,0,2.7,1.2,2.7,2.7v66"/>
			<g>
				<g opacity="0.15">
					<path fill="#040506" d="M864.4,1257.3v10.1c0,1.7-1.2,3.1-2.7,3.1H753.4c-1.5,0-2.7-1.4-2.7-3.1v-10.1"/>
				</g>
				<g>
					<path fill="#E4E4E4" d="M864.4,1255.7v10.1c0,1.7-1.2,3.1-2.7,3.1H753.4c-1.5,0-2.7-1.4-2.7-3.1v-10.1"/>
				</g>
			</g>
			<circle fill="#3D3D3D" cx="808.7" cy="1261.7" r="2.8"/>
		</g>
		<g>
			<rect x="754.9" y="1201.2" fill="#9F9D9D" width="105.2" height="50.6"/>
			<rect x="754.9" y="1201.2" display="none" fill="#B8B7B8" width="105.2" height="3.8"/>
			<g display="none">
				<rect x="760.6" y="1206" display="inline" fill="#F5F1F1" width="3.4" height="2.9"/>
				<rect x="765.7" y="1206" display="inline" fill="#F5F1F1" width="3.4" height="2.9"/>
				<rect x="782.8" y="1206" display="inline" fill="#B8B7B8" width="12.2" height="2.9"/>
				<rect x="814.6" y="1206" display="inline" fill="#B8B7B8" width="3.4" height="2.9"/>
				<rect x="774.7" y="1206" display="inline" fill="#F5F1F1" width="6" height="2.9"/>
				<rect x="796.9" y="1206" display="inline" fill="#F5F1F1" width="6" height="2.9"/>
				<rect x="805.8" y="1206" display="inline" fill="#B8B7B8" width="6" height="2.9"/>
				<rect x="823.6" y="1206" display="inline" fill="#B8B7B8" width="8.1" height="2.9"/>
				<rect x="834.5" y="1206" display="inline" fill="#B8B7B8" width="8.1" height="2.9"/>
			</g>
			<g display="none">
				<rect x="754.9" y="1210.2" display="inline" fill="#B8B7B8" width="5.4" height="37.1"/>
				<g display="inline">
					<rect x="756.1" y="1212.3" opacity="0.6" fill="#9F9D9D" enable-background="new    " width="2.7" height="2.6"/>
					<rect x="756.1" y="1217.1" opacity="0.6" fill="#9F9D9D" enable-background="new    " width="2.7" height="2.6"/>
					<rect x="756.1" y="1221.8" opacity="0.6" fill="#9F9D9D" enable-background="new    " width="2.7" height="2.6"/>
					<rect x="756.1" y="1226.5" opacity="0.6" fill="#9F9D9D" enable-background="new    " width="2.7" height="2.6"/>
					<rect x="756.1" y="1231.3" opacity="0.6" fill="#9F9D9D" enable-background="new    " width="2.7" height="2.6"/>
				</g>
				<g display="inline">
					<rect x="756.1" y="1236.3" fill="#DDC83D" width="2" height="2"/>
					<rect x="757.1" y="1237.3" fill="none" stroke="#FCFBFB" stroke-miterlimit="10" width="2" height="2"/>
				</g>
				<g display="inline">
					<rect x="756.7" y="1243.9" opacity="0.6" fill="#9F9D9D" enable-background="new    " width="1.4" height="1.4"/>
					<rect x="756.1" y="1241.3" opacity="0.6" fill="#9F9D9D" enable-background="new    " width="0.6" height="0.6"/>
					<rect x="757.1" y="1241.3" opacity="0.6" fill="#9F9D9D" enable-background="new    " width="0.6" height="0.6"/>
					<rect x="758.2" y="1241.3" opacity="0.6" fill="#9F9D9D" enable-background="new    " width="0.6" height="0.6"/>
				</g>
			</g>
			<g display="none">
				<rect x="759.9" y="1210.2" display="inline" fill="#C7C6C6" width="84.8" height="3.4"/>
				<g display="inline">
					<circle fill="#C21A1A" cx="762.2" cy="1211.9" r="0.6"/>
					<circle fill="#DDC83D" cx="764.7" cy="1211.9" r="0.6"/>
					<circle fill="#74B288" cx="767.1" cy="1211.9" r="0.6"/>
				</g>
			</g>
			<g display="none">
				<rect x="844.7" y="1204.9" display="inline" fill="#959494" width="15.5" height="2.5"/>
				<rect x="844.7" y="1207.5" display="inline" fill="#C2BFBF" width="15.5" height="44.3"/>
				<g display="inline">
					<g>
						<rect x="846.1" y="1208.9" fill="#FFFFFF" width="1" height="1"/>
						<rect x="847.1" y="1208.9" fill="#040506" width="1" height="1"/>
						<rect x="848.1" y="1208.9" fill="#C52B26" width="1" height="1"/>
						<rect x="849" y="1208.9" fill="#EFE52E" width="1" height="1"/>
						<rect x="850" y="1208.9" fill="#82B23E" width="1" height="1"/>
						<rect x="852" y="1208.9" fill="#394D97" width="1" height="1"/>
						<rect x="851" y="1208.9" fill="#8DC5D8" width="1" height="1"/>
						<rect x="853" y="1208.9" fill="#935397" width="1" height="1"/>
						<rect x="854" y="1208.9" fill="#A42D32" width="1" height="1"/>
						<rect x="854.9" y="1208.9" fill="#C5282C" width="1" height="1"/>
						<rect x="855.9" y="1208.9" fill="#CE5C2E" width="1" height="1"/>
						<rect x="856.9" y="1208.9" fill="#DC8F31" width="1" height="1"/>
						<rect x="857.9" y="1208.9" fill="#E6AC47" width="1" height="1"/>
						<rect x="846.1" y="1209.9" fill="#F3E847" width="1" height="1"/>
						<rect x="847.1" y="1209.9" fill="#D5D942" width="1" height="1"/>
						<rect x="848.1" y="1209.9" fill="#6FAC54" width="1" height="1"/>
						<rect x="849" y="1209.9" fill="#518E4B" width="1" height="1"/>
						<rect x="850" y="1209.9" fill="#69AC76" width="1" height="1"/>
						<rect x="851" y="1209.9" fill="#66A7DC" width="1" height="1"/>
						<rect x="852" y="1209.9" fill="#4171B5" width="1" height="1"/>
						<rect x="853" y="1209.9" fill="#343887" width="1" height="1"/>
						<rect x="854" y="1209.9" fill="#5A3486" width="1" height="1"/>
						<rect x="854.9" y="1209.9" fill="#7B3184" width="1" height="1"/>
						<rect x="855.9" y="1209.9" fill="#851B5E" width="1" height="1"/>
						<rect x="856.9" y="1209.9" fill="#B31E5A" width="1" height="1"/>
						<rect x="857.9" y="1209.9" fill="#C62777" width="1" height="1"/>
						<rect x="846.1" y="1210.9" fill="#BEAE97" width="1" height="1"/>
						<rect x="847.1" y="1210.9" fill="#908275" width="1" height="1"/>
						<rect x="848.1" y="1210.9" fill="#6F6459" width="1" height="1"/>
						<rect x="849" y="1210.9" fill="#524944" width="1" height="1"/>
						<rect x="850" y="1210.9" fill="#B7986F" width="1" height="1"/>
						<rect x="851" y="1210.9" fill="#987C55" width="1" height="1"/>
						<rect x="852" y="1210.9" fill="#7F633F" width="1" height="1"/>
						<rect x="853" y="1210.9" fill="#573B1D" width="1" height="1"/>
						<rect x="854" y="1210.9" fill="#3D281A" width="1" height="1"/>
						<rect x="846.1" y="1212.4" fill="#040506" width="1" height="1"/>
						<rect x="847.1" y="1212.4" fill="#373737" width="1" height="1"/>
						<rect x="848.1" y="1212.4" fill="#4F4F4F" width="1" height="1"/>
						<rect x="849" y="1212.4" fill="#7F7F80" width="1" height="1"/>
						<rect x="850" y="1212.4" fill="#969595" width="1" height="1"/>
						<rect x="851" y="1212.4" fill="#C8C8C8" width="1" height="1"/>
						<rect x="852" y="1212.4" fill="#E2E2E1" width="1" height="1"/>
						<rect x="853" y="1212.4" fill="#EFEFEE" width="1" height="1"/>
					</g>
					<rect x="846.1" y="1217.2" fill="#9F9D9D" width="12.8" height="7.3"/>
					<rect x="846.1" y="1243.1" fill="#9F9D9D" width="12.8" height="7"/>
					<g>
						<rect x="846.1" y="1229.3" fill="#F9F7F7" width="12.8" height="1.7"/>
						<rect x="846.1" y="1232.1" fill="#F9F7F7" width="12.8" height="1.7"/>
						<rect x="846.1" y="1235.2" fill="#F9F7F7" width="4.9" height="1.7"/>
						<rect x="846.1" y="1238" fill="#F9F7F7" width="4.9" height="1.7"/>
						<rect x="854" y="1234.6" fill="#F9F7F7" width="4.9" height="1.7"/>
						<rect x="854" y="1237.4" fill="#F9F7F7" width="4.9" height="1.7"/>
					</g>
				</g>
			</g>
		</g>
	</g>
	<g id="playbutton">
		<circle fill="#C42326" cx="807.4" cy="1226.9" r="21.5"/>
		<path fill="#FFFFFF" d="M800.9,1236.8l0.2-19.8l17,10.1L800.9,1236.8z"/>
	</g>
	<g id="lampe">
		<polyline opacity="0.25" fill="#F4EFB3" enable-background="new    " points="833.2,1183.1 703.5,1284.4 838.8,1284.4 
			863.8,1211.2 		"/>
		<g>
			<path fill="#3D3D3D" d="M873.9,1180.7c-1.3,1.5-3.5,1.6-4.9,0.4l-5.1-4.4c-1.5-1.3-1.6-3.5-0.4-4.9l0,0c1.3-1.5,3.5-1.6,4.9-0.4
				l5.1,4.4C875,1177,875.1,1179.2,873.9,1180.7L873.9,1180.7z"/>
			<path fill="#F2F0CA" d="M841.5,1198.2c-0.3-4.2,2.8-7.8,7-8.1c4.2-0.3,7.8,2.8,8.1,7c0.3,4.2-2.8,7.8-7,8.1
				C845.5,1205.5,841.8,1202.4,841.5,1198.2z"/>
			<polyline fill="#C62F37" points="853.9,1178.3 861.1,1170 876.2,1182.6 868.9,1191 			"/>
			
				<rect x="887.4" y="1174.2" transform="matrix(0.7123 -0.7018 0.7018 0.7123 -591.4664 972.0476)" fill="#C62F37" width="5.3" height="66.7"/>
			
				<rect x="909.8" y="1241.3" transform="matrix(0.9872 0.1595 -0.1595 0.9872 212.8494 -129.3861)" fill="#C62F37" width="5.3" height="39.8"/>
			<path fill="#C62F37" d="M904.2,1236.7c0-6.2,5.1-11.3,11.3-11.3c6.2,0,11.3,5.1,11.3,11.3s-5.1,11.3-11.3,11.3
				C909.3,1248,904.2,1243,904.2,1236.7z"/>
			<path fill="#3D3D3D" d="M908.8,1236.7c0-3.7,3-6.8,6.8-6.8s6.8,3,6.8,6.8c0,3.8-3,6.8-6.8,6.8S908.8,1240.5,908.8,1236.7z"/>
			<path fill="#AF1A34" d="M864.8,1284.7L864.8,1284.7c0-5.9,4.8-10.7,10.7-10.7h36c5.9,0,10.7,4.8,10.7,10.7l0,0"/>
			<path fill="#C62F37" d="M863.6,1211.5c8.6-9.3,8.7-23.1,0.3-30.9s-22.2-6.6-30.8,2.7"/>
			<path opacity="0.3" fill="#FFFFFF" enable-background="new    " d="M867.8,1175.6l-6.8-5.6l-5.3,6.1c-7.6-2-16.5,0.5-22.7,7.1
				l14.3,13.2"/>
		</g>
	</g>
	<g id="zettel">
		<g>
			<g>
				<g opacity="0.15">
					<rect x="754.3" y="1260.5" fill="#040506" width="13.3" height="14.6"/>
				</g>
				<g>
					<rect x="754.9" y="1259.9" fill="#89B75D" width="13.3" height="14.6"/>
				</g>
			</g>
			<polygon fill="#72AC43" points="766,1274.4 766,1272.3 768.4,1272.3 768.4,1274.4 			"/>
			<g>
				
					<line opacity="0.2" fill="none" stroke="#4A4848" stroke-miterlimit="10" enable-background="new    " x1="757.1" y1="1263.7" x2="765.7" y2="1263.7"/>
				
					<line opacity="0.2" fill="none" stroke="#4A4848" stroke-miterlimit="10" enable-background="new    " x1="757.1" y1="1265.4" x2="765.7" y2="1265.4"/>
				
					<line opacity="0.2" fill="none" stroke="#4A4848" stroke-miterlimit="10" enable-background="new    " x1="757.1" y1="1267.1" x2="765.7" y2="1267.1"/>
				
					<line opacity="0.2" fill="none" stroke="#4A4848" stroke-miterlimit="10" enable-background="new    " x1="757.1" y1="1268.8" x2="765.7" y2="1268.8"/>
				
					<line opacity="0.2" fill="none" stroke="#4A4848" stroke-miterlimit="10" enable-background="new    " x1="757.1" y1="1270.5" x2="765.7" y2="1270.5"/>
			</g>
		</g>
		<g>
			<g opacity="0.15">
				<rect x="758" y="1258.6" fill="#040506" width="6.6" height="2.6"/>
			</g>
			<g>
				<rect x="758.3" y="1258.6" fill="#A5C786" width="6.6" height="2.6"/>
			</g>
		</g>
	</g>
</g>
<g id="fenster_bg">
	<rect x="1011.6" y="1137.6" fill="#BADCF1" width="199.6" height="145.2"/>
	<g id="wolken">
		<path fill="#FFFFFF" d="M1073.7,1153.1c-0.3,0-0.7,0-1,0.1c-1-6.2-6.4-11-12.9-11c-5.5,0-10.2,3.4-12.1,8.1
			c-2.5-1.1-5.3-1.7-8.2-1.7c-11.3,0-20.5,9.2-20.5,20.5c0,11.3,9.2,20.5,20.5,20.5c6.5,0,12.3-3,16-7.7c1.9,1.7,4.5,2.8,7.2,2.8
			c6,0,10.9-4.9,10.9-10.9c0-1.1-0.2-2.2-0.5-3.2c0.2,0,0.3,0,0.5,0c4.8,0,8.7-3.9,8.7-8.7C1082.4,1157,1078.5,1153.1,1073.7,1153.1
			z"/>
		<path fill="#FFFFFF" d="M1138.5,1170.4c0-0.8-0.3-1.5-0.9-2.1c0.6-0.9,0.9-2,0.9-3.1c0-3.3-2.7-5.9-5.9-5.9c-3,0-5.5,2.3-5.9,5.2
			c0,0,0,0-0.1,0c-2.2,0-4.1,1.8-4.1,4.1c0,2.2,1.8,4.1,4.1,4.1c1.5,0,2.8-0.8,3.5-2c0.7,0.3,1.6,0.5,2.4,0.5h0.1
			c0.3,1.3,1.5,2.2,2.9,2.2C1137.2,1173.3,1138.5,1172,1138.5,1170.4z"/>
		<path fill="#FFFFFF" d="M1183,1170.5c-6.6,0-12.4,3.7-15.3,9.1c-2.8-3.6-7.2-5.9-12.1-5.9c-8.6,0-15.5,6.9-15.5,15.5
			c0,8.6,6.9,15.5,15.5,15.5c0.3,0,0.6,0,0.9,0c1.6,5.8,6.9,10,13.2,10c6,0,11-3.8,12.9-9.1c0.2,0,0.3,0,0.5,0
			c9.7,0,17.5-7.8,17.5-17.5C1200.6,1178.4,1192.6,1170.5,1183,1170.5z"/>
	</g>
	<circle id="sonne_morgens" fill="#F6DD37" cx="1079.2" cy="1216.8" r="16.6"/>
	<g id="berge">
		<path fill="#B6CB5C" d="M1013.3,1229.5c0,0,17.6-34,29.8-34c12.2,0,23.6,27.6,37.6,27.6s15.5-18.4,25.5-18.1
			c10,0.2,13.6,26.2,99.2,26.2v53.3h-193.9L1013.3,1229.5z"/>
		<path fill="#A2BB6A" d="M1011.6,1244c84.2,0,89.9-23,123.8-23c33.8,0,29.8,23,73.8,23v38.7h-198.1L1011.6,1244z"/>
		<path fill="#78AA69" d="M1011.4,1255.7c0,0,13.6-10.9,36.5-10.9s32.5,18.8,62.2,18.8s39.5-22.2,66.4-22.2c26.9,0,32.6,24,32.6,24
			v19.1H1011L1011.4,1255.7z"/>
	</g>
	<circle id="sonne_mittag" fill="#F6DD37" cx="1100" cy="1173.3" r="16.6"/>
	<path id="mond" fill="#EFF5F6" d="M1094.8,1173.1c0-7.2,5.1-13.4,12.1-15.4c-1.6-0.5-3.4-0.7-5.2-0.7c-9.6,0-17.3,7.2-17.3,16.2
		c0,8.9,7.8,16.2,17.3,16.2c1.8,0,3.6-0.3,5.2-0.7C1099.9,1186.4,1094.8,1180.3,1094.8,1173.1z"/>
	<g id="sterne">
		<path fill="#EBF4F6" d="M1062.2,1199.8c-0.2-0.1-0.4-0.1-0.7-0.2c0-0.1,0.1-0.2,0.1-0.2c-0.1,0-0.2,0.1-0.2,0.1
			c-0.1-0.2-0.1-0.5-0.2-0.7c-0.1,0.2-0.1,0.4-0.2,0.7c-0.1,0-0.2-0.1-0.2-0.1c0,0.1,0.1,0.2,0.1,0.2c-0.2,0.1-0.5,0.1-0.7,0.2
			c0.2,0.1,0.4,0.1,0.7,0.2c0,0.1-0.1,0.2-0.1,0.2c0.1,0,0.2-0.1,0.2-0.1c0.1,0.2,0.1,0.5,0.2,0.7c0.1-0.2,0.1-0.4,0.2-0.7
			c0.1,0,0.2,0.1,0.2,0.1c0-0.1-0.1-0.2-0.1-0.2C1061.7,1199.9,1062,1199.9,1062.2,1199.8z"/>
		<path fill="#EBF4F6" d="M1129.3,1144.8c-0.2-0.1-0.4-0.1-0.7-0.2c0-0.1,0.1-0.2,0.1-0.2c-0.1,0-0.2,0.1-0.2,0.1
			c-0.1-0.2-0.1-0.5-0.2-0.7c-0.1,0.2-0.1,0.4-0.2,0.7c-0.1,0-0.2-0.1-0.2-0.1c0,0.1,0.1,0.2,0.1,0.2c-0.2,0.1-0.5,0.1-0.7,0.2
			c0.2,0.1,0.4,0.1,0.7,0.2c0,0.1-0.1,0.2-0.1,0.2c0.1,0,0.2-0.1,0.2-0.1c0.1,0.2,0.1,0.5,0.2,0.7c0.1-0.2,0.1-0.4,0.2-0.7
			c0.1,0,0.2,0.1,0.2,0.1c0-0.1-0.1-0.2-0.1-0.2C1128.8,1144.9,1129.1,1144.9,1129.3,1144.8z"/>
		<path fill="#EBF4F6" d="M1147,1212.2c-0.2-0.1-0.4-0.1-0.7-0.2c0-0.1,0.1-0.2,0.1-0.2c-0.1,0-0.2,0.1-0.2,0.1
			c-0.1-0.2-0.1-0.5-0.2-0.7c-0.1,0.2-0.1,0.4-0.2,0.7c-0.1,0-0.2-0.1-0.2-0.1c0,0.1,0.1,0.2,0.1,0.2c-0.2,0.1-0.5,0.1-0.7,0.2
			c0.2,0.1,0.4,0.1,0.7,0.2c0,0.1-0.1,0.2-0.1,0.2c0.1,0,0.2-0.1,0.2-0.1c0.1,0.2,0.1,0.5,0.2,0.7c0.1-0.2,0.1-0.4,0.2-0.7
			c0.1,0,0.2,0.1,0.2,0.1c0-0.1-0.1-0.2-0.1-0.2C1146.5,1212.3,1146.8,1212.3,1147,1212.2z"/>
		<path fill="#EBF4F6" d="M1082.1,1143.8c-0.2-0.1-0.4-0.1-0.7-0.2c0-0.1,0.1-0.2,0.1-0.2c-0.1,0-0.2,0.1-0.2,0.1
			c-0.1-0.2-0.1-0.5-0.2-0.7c-0.1,0.2-0.1,0.4-0.2,0.7c-0.1,0-0.2-0.1-0.2-0.1c0,0.1,0.1,0.2,0.1,0.2c-0.2,0.1-0.5,0.1-0.7,0.2
			c0.2,0.1,0.4,0.1,0.7,0.2c0,0.1-0.1,0.2-0.1,0.2c0.1,0,0.2-0.1,0.2-0.1c0.1,0.2,0.1,0.5,0.2,0.7c0.1-0.2,0.1-0.4,0.2-0.7
			c0.1,0,0.2,0.1,0.2,0.1c0-0.1-0.1-0.2-0.1-0.2C1081.6,1143.9,1081.9,1143.9,1082.1,1143.8z"/>
		<path fill="#EBF4F6" d="M1154.8,1147.5c-0.2-0.1-0.4-0.1-0.7-0.2c0-0.1,0.1-0.2,0.1-0.2c-0.1,0-0.2,0.1-0.2,0.1
			c-0.1-0.2-0.1-0.5-0.2-0.7c-0.1,0.2-0.1,0.4-0.2,0.7c-0.1,0-0.2-0.1-0.2-0.1c0,0.1,0.1,0.2,0.1,0.2c-0.2,0.1-0.5,0.1-0.7,0.2
			c0.2,0.1,0.4,0.1,0.7,0.2c0,0.1-0.1,0.2-0.1,0.2c0.1,0,0.2-0.1,0.2-0.1c0.1,0.2,0.1,0.5,0.2,0.7c0.1-0.2,0.1-0.4,0.2-0.7
			c0.1,0,0.2,0.1,0.2,0.1c0-0.1-0.1-0.2-0.1-0.2C1154.3,1147.6,1154.6,1147.6,1154.8,1147.5z"/>
		<circle fill="#EBF4F6" cx="1106" cy="1168.6" r="0.6"/>
		<circle fill="#EBF4F6" cx="1092" cy="1150.9" r="0.6"/>
		<circle fill="#EBF4F6" cx="1126.1" cy="1207.5" r="0.6"/>
		<circle fill="#EBF4F6" cx="1043.2" cy="1141.8" r="0.6"/>
		<circle fill="#EBF4F6" cx="1175.9" cy="1222.2" r="0.6"/>
		<circle fill="#EBF4F6" cx="1126" cy="1182.9" r="0.4"/>
		<circle fill="#EBF4F6" cx="1161.7" cy="1159.5" r="0.4"/>
		<circle fill="#EBF4F6" cx="1018.1" cy="1144.3" r="0.4"/>
		<circle fill="#EBF4F6" cx="1084.2" cy="1212" r="0.4"/>
		<circle fill="#EBF4F6" cx="1015" cy="1163.2" r="0.4"/>
		<circle fill="#EBF4F6" cx="1019" cy="1202.5" r="0.4"/>
		<circle fill="#EBF4F6" cx="1193.8" cy="1208.3" r="0.4"/>
		<circle fill="#EBF4F6" cx="1196.4" cy="1154.5" r="0.4"/>
	</g>
</g>
<g id="fenster">
	<polygon fill="#BBDBE4" points="999.4,1125.8 999.4,1289.6 1001.6,1289.6 1001.6,1128.1 	"/>
	<polygon fill="#BBDBE4" points="1218.3,1125.8 1218.3,1289.6 1216.1,1289.6 1216.1,1128.1 	"/>
	<polygon fill="#9FC0CB" points="1151,1125.8 1005.4,1125.8 999.4,1125.8 1001.6,1128.1 1005.4,1128.1 1151,1128.1 1216.1,1128.1 
		1218.3,1125.8 	"/>
	<rect x="1010.4" y="1278.2" fill="#FFFFFF" width="196.8" height="2.2"/>
	<polygon fill="#E5E5E5" points="1207.3,1128.1 1207.3,1280.4 1010.4,1280.4 1010.4,1128.1 1001.6,1128.1 1001.6,1286.9 
		1010.4,1286.9 1207.3,1286.9 1207.3,1286.9 1216.1,1286.9 1216.1,1128.1 	"/>
	<rect x="993.2" y="1291.1" fill="#D9DAD8" width="231.7" height="5.7"/>
	<polygon fill="#FAFBFB" points="1216.1,1286.9 1001.6,1286.9 993.2,1291.1 1224.5,1291.1 	"/>
	<g>
		<g>
			<rect x="1010.4" y="1137.4" fill="#C2C2C1" width="1.9" height="142.9"/>
			<g>
				<path fill="#373737" d="M1012.3,1172.3c0,0.8-0.6,1.4-1.4,1.4l0,0c-0.8,0-1.4-0.6-1.4-1.4v-6.5c0-0.8,0.6-1.4,1.4-1.4l0,0
					c0.8,0,1.4,0.6,1.4,1.4V1172.3z"/>
				<path fill="#373737" d="M1012.3,1245.8c0,0.8-0.6,1.4-1.4,1.4l0,0c-0.8,0-1.4-0.6-1.4-1.4v-6.5c0-0.8,0.6-1.4,1.4-1.4l0,0
					c0.8,0,1.4,0.6,1.4,1.4V1245.8z"/>
			</g>
			<polygon fill="#CBCBCB" points="1025.9,1143.5 1025.9,1182.5 1027.9,1182.7 1027.9,1143.9 			"/>
			<polygon fill="#CBCBCB" points="1025.9,1186.1 1025.9,1229.2 1027.9,1229.1 1027.9,1186.3 			"/>
			<polygon fill="#CBCBCB" points="1025.9,1233 1025.9,1272.1 1027.9,1271.7 1027.9,1232.9 			"/>
			<polygon fill="#CBCBCB" points="1041.7,1146.2 1041.7,1183.7 1043.3,1183.9 1043.3,1146.5 			"/>
			<polygon fill="#CBCBCB" points="1041.7,1187.2 1041.7,1228.8 1043.3,1228.8 1043.3,1187.3 			"/>
			<polygon fill="#CBCBCB" points="1041.7,1232.3 1041.7,1269.3 1043.3,1269 1043.3,1232.2 			"/>
			<path fill="#F2F1F1" d="M1012.3,1137.4v142.9l49.5-9.6v-124.8L1012.3,1137.4z M1027.9,1271.7l-12.3,2.2v-40.5l12.3-0.5V1271.7z
				 M1027.9,1229.1l-12.3,0.3v-44l12.3,0.8V1229.1z M1027.9,1182.7l-12.3-1v-39.9l12.3,2.1V1182.7z M1043.3,1269l-12,2.1v-38.4
				l12-0.5V1269z M1043.3,1228.8l-12,0.3v-42.6l12,0.8V1228.8z M1043.3,1183.9l-12-1v-38.5l12,2V1183.9z M1056,1266.8l-9.9,1.7
				v-36.4l9.9-0.4V1266.8z M1056,1228.5l-9.9,0.2v-41.2l9.9,0.7V1228.5z M1056,1184.9l-9.9-0.8V1147l9.9,1.7V1184.9z"/>
			<polygon fill="#CBCBCB" points="1054.3,1148.3 1054.3,1184.7 1056,1184.9 1056,1148.6 			"/>
			<polygon fill="#CBCBCB" points="1054.3,1188 1054.3,1228.6 1056,1228.5 1056,1188.1 			"/>
			<polygon fill="#CBCBCB" points="1054.3,1231.8 1054.3,1267.1 1056,1266.8 1056,1231.7 			"/>
		</g>
		<g>
			<rect x="1057" y="1202.3" fill="#535341" width="4.7" height="8.9"/>
			<path fill="#A3A072" d="M1064.5,1207.5c0-0.6-0.1-1.2-0.2-1.6c-0.1-0.2-0.1-0.4-0.2-0.5c-0.1-0.2-0.1-0.2-0.1-0.2s0-0.1-0.1-0.1
				c-0.4-1.2-1.5-2-2.9-2c-1.7,0-3.1,1.4-3.1,3.1c0,1.4,1,2.6,2.3,2.9c0.1,0.2,0.2,0.4,0.3,0.6c0.1,0.2,0.2,0.5,0.2,0.8
				c0.1,0.3,0.1,0.6,0.2,0.8c0,0.3,0.1,0.6,0.1,0.9c0,0.3,0,0.6,0,0.9s0,0.6,0,0.9c0,0.3-0.1,0.5-0.1,0.8c-0.1,0.5-0.2,0.9-0.2,1.2
				c0,0.3-0.1,0.5-0.1,0.5s0.1-0.1,0.3-0.3c0.2-0.2,0.5-0.5,0.8-1c0.2-0.2,0.3-0.4,0.5-0.7c0.2-0.2,0.3-0.5,0.5-0.8
				c0.2-0.3,0.3-0.6,0.5-0.9s0.3-0.7,0.4-1s0.2-0.7,0.3-1.1c0.1-0.4,0.2-0.7,0.2-1.1c0.1-0.4,0.1-0.7,0.1-1.1
				C1064.5,1208.2,1064.5,1207.9,1064.5,1207.5z"/>
		</g>
	</g>
	<g>
		<g>
			<rect x="1205.4" y="1137.4" fill="#C2C2C1" width="1.9" height="142.9"/>
			<g>
				<path fill="#373737" d="M1205.4,1172.3c0,0.8,0.6,1.4,1.4,1.4l0,0c0.8,0,1.4-0.6,1.4-1.4v-6.5c0-0.8-0.6-1.4-1.4-1.4l0,0
					c-0.8,0-1.4,0.6-1.4,1.4V1172.3z"/>
				<path fill="#373737" d="M1205.4,1245.8c0,0.8,0.6,1.4,1.4,1.4l0,0c0.8,0,1.4-0.6,1.4-1.4v-6.5c0-0.8-0.6-1.4-1.4-1.4l0,0
					c-0.8,0-1.4,0.6-1.4,1.4V1245.8z"/>
			</g>
			<polygon fill="#CBCBCB" points="1191.7,1143.5 1191.7,1182.5 1189.7,1182.7 1189.7,1143.9 			"/>
			<polygon fill="#CBCBCB" points="1191.7,1186.1 1191.7,1229.2 1189.7,1229.1 1189.7,1186.3 			"/>
			<polygon fill="#CBCBCB" points="1191.7,1233 1191.7,1272.1 1189.7,1271.7 1189.7,1232.9 			"/>
			<polygon fill="#CBCBCB" points="1175.9,1146.2 1175.9,1183.7 1174.3,1183.9 1174.3,1146.5 			"/>
			<polygon fill="#CBCBCB" points="1175.9,1187.2 1175.9,1228.8 1174.3,1228.8 1174.3,1187.3 			"/>
			<polygon fill="#CBCBCB" points="1175.9,1232.3 1175.9,1269.3 1174.3,1269 1174.3,1232.2 			"/>
			<path fill="#F2F1F1" d="M1155.7,1145.9v125l49.5,9.6v-143.1L1155.7,1145.9z M1189.7,1232.9l12.3,0.5v40.5l-12.3-2.2V1232.9z
				 M1189.7,1186.3l12.3-0.8v44l-12.3-0.3V1186.3z M1189.7,1143.9l12.3-2.1v39.9l-12.3,1V1143.9z M1174.3,1232.2l12,0.5v38.4
				l-12-2.1V1232.2z M1174.3,1187.3l12-0.8v42.6l-12-0.3V1187.3z M1174.3,1146.5l12-2v38.5l-12,1V1146.5z M1161.6,1231.7l9.9,0.4
				v36.4l-9.9-1.7V1231.7z M1161.6,1188.1l9.9-0.7v41.2l-9.9-0.2V1188.1z M1161.6,1148.6l9.9-1.7v37.2l-9.9,0.8V1148.6z"/>
			<polygon fill="#CBCBCB" points="1163.3,1148.3 1163.3,1184.7 1161.6,1184.9 1161.6,1148.6 			"/>
			<polygon fill="#CBCBCB" points="1163.3,1188 1163.3,1228.6 1161.6,1228.5 1161.6,1188.1 			"/>
			<polygon fill="#CBCBCB" points="1163.3,1231.8 1163.3,1267.1 1161.6,1266.8 1161.6,1231.7 			"/>
		</g>
		<g>
			<rect x="1155.9" y="1202.3" fill="#535341" width="4.7" height="8.9"/>
			<path fill="#A3A072" d="M1153.1,1207.5c0-0.6,0.1-1.2,0.2-1.6c0.1-0.2,0.1-0.4,0.2-0.5c0.1-0.2,0.1-0.2,0.1-0.2s0-0.1,0.1-0.1
				c0.4-1.2,1.5-2,2.9-2c1.7,0,3.1,1.4,3.1,3.1c0,1.4-1,2.6-2.3,2.9c-0.1,0.2-0.2,0.4-0.3,0.6c-0.1,0.2-0.2,0.5-0.2,0.8
				c-0.1,0.3-0.1,0.6-0.2,0.8c0,0.3-0.1,0.6-0.1,0.9c0,0.3,0,0.6,0,0.9s0,0.6,0,0.9c0,0.3,0.1,0.5,0.1,0.8c0.1,0.5,0.2,0.9,0.2,1.2
				c0,0.3,0.1,0.5,0.1,0.5s-0.1-0.1-0.3-0.3c-0.2-0.2-0.5-0.5-0.8-1c-0.2-0.2-0.3-0.4-0.5-0.7c-0.2-0.2-0.3-0.5-0.5-0.8
				c-0.2-0.3-0.3-0.6-0.5-0.9s-0.3-0.7-0.4-1s-0.2-0.7-0.3-1.1c-0.1-0.4-0.2-0.7-0.2-1.1c-0.1-0.4-0.1-0.7-0.1-1.1
				C1153.1,1208.2,1153.1,1207.9,1153.1,1207.5z"/>
		</g>
	</g>
	<g>
		<rect x="1001.5" y="1128.1" fill="#81807D" width="214.6" height="2.6"/>
		<rect x="1001.5" y="1130.7" fill="#5F6255" width="214.6" height="1.3"/>
		<rect x="1001.5" y="1132" fill="#636459" width="214.6" height="1.3"/>
		<rect x="1001.5" y="1136" fill="#7C7C75" width="214.6" height="1.3"/>
		<rect x="1001.5" y="1137.3" fill="#75746D" width="214.6" height="1.3"/>
		<rect x="1001.5" y="1133.3" fill="#5F6255" width="214.6" height="1.3"/>
		<rect x="1001.5" y="1134.7" fill="#636459" width="214.6" height="1.3"/>
	</g>
</g>
<g id="cati">
	<g id="cactus-1">
		<g id="cactus-body-1">
			<g>
				<path d="M1018,1206.2l-0.1-5.9l0,0c0,0,1.3-0.1,2.5-0.8c1.5-0.9,2.5-2.4,2.7-4.5c0.2-1.6,1.7-2.7,3.3-2.5
					c1.6,0.2,2.7,1.7,2.5,3.3C1027.8,1203.8,1021.3,1206.1,1018,1206.2z"/>
			</g>
			<path d="M1027.5,1192.9c0.1,0.3,0.1,0.6,0,1c-1,7.1-6.2,9.2-9.7,9.8l0.1,2.5c3.3-0.1,9.8-2.4,10.9-10.4
				C1029,1194.6,1028.5,1193.5,1027.5,1192.9z"/>
			<g>
				<path d="M1012.7,1288.3c-4.1,0-7.5-2.2-7.5-9.1v-98c0-6.9,1.8-12.5,7.5-12.5c5.1,0,7.5,5.6,7.5,12.5v98
					C1020.2,1286.1,1016.8,1288.3,1012.7,1288.3z"/>
			</g>
			<g>
				<path d="M1006.8,1222.1c-3.2,0-9.1-1.9-11.1-7.2c-1.5-3.9-1-8.1-0.9-8.3c0.2-1.4,1.5-2.5,3-2.3c1.4,0.2,2.5,1.5,2.3,3
					c0,0-0.4,3.1,0.6,5.7c0.9,2.4,4.2,3.8,6.2,3.8c1.5,0,2.6,1.2,2.6,2.6C1009.5,1221,1008.3,1222.1,1006.8,1222.1z"/>
			</g>
			<path d="M1009.6,1276.6v-95.8c0-5.5,2.2-10.2,5.3-11.7c-0.8-0.3-1.4-0.3-2.2-0.4c-5-0.4-7.5,5.4-7.5,12.1v95.8
				c0,6.7,3.3,8.7,7.5,8.7c0.8,0,1.5-0.2,2.2-0.5C1011.8,1283.3,1009.6,1282,1009.6,1276.6z"/>
			<line fill="none" x1="1019.2" y1="1183.5" x2="1021.1" y2="1183.5"/>
			<line fill="none" x1="1016.7" y1="1178.3" x2="1017.1" y2="1178.3"/>
			<line fill="none" x1="1017.6" y1="1188.2" x2="1018.1" y2="1188.2"/>
			<line fill="none" x1="1016.5" y1="1196" x2="1017" y2="1196"/>
			<line fill="none" x1="1011.4" y1="1192.8" x2="1011.9" y2="1192.7"/>
			<line fill="none" x1="1011.6" y1="1215.1" x2="1012.1" y2="1215.1"/>
			<line fill="none" x1="1016" y1="1206.5" x2="1016.5" y2="1206.5"/>
			<line fill="none" x1="1014" y1="1210.5" x2="1014.5" y2="1210.5"/>
			<line fill="none" x1="1013.2" y1="1221.9" x2="1013.7" y2="1221.9"/>
			<line fill="none" x1="1012.6" y1="1203.5" x2="1013.1" y2="1203.5"/>
			<line fill="none" x1="1012" y1="1198.1" x2="1012.5" y2="1198.1"/>
			<line fill="none" x1="999.5" y1="1217.4" x2="999.9" y2="1217.1"/>
			<line fill="none" x1="997.7" y1="1211" x2="997.7" y2="1211.6"/>
			<line fill="none" x1="1006.8" y1="1191.6" x2="1007.3" y2="1191.6"/>
			<line fill="none" x1="1007.1" y1="1184.4" x2="1007.5" y2="1184.4"/>
			<line fill="none" x1="1007.7" y1="1173.8" x2="1008.1" y2="1174"/>
			<line fill="none" x1="1010.6" y1="1170" x2="1010.9" y2="1170.4"/>
			<line fill="none" x1="1007.6" y1="1209.5" x2="1008.1" y2="1209.5"/>
			<line fill="none" x1="1007.3" y1="1219.9" x2="1007.7" y2="1219.9"/>
			<line fill="none" x1="1014.2" y1="1172.6" x2="1014.5" y2="1172.3"/>
			<line fill="none" x1="1004.2" y1="1178.4" x2="1006.1" y2="1178.4"/>
			<line fill="none" x1="1019.4" y1="1192.8" x2="1021.4" y2="1192.8"/>
			<line fill="none" x1="1016.9" y1="1214" x2="1018.7" y2="1214"/>
			<line fill="none" x1="1004.2" y1="1225.1" x2="1006" y2="1225.1"/>
			<line fill="none" x1="1019.3" y1="1221.6" x2="1021.2" y2="1221.6"/>
			<line fill="none" x1="1004.3" y1="1194.3" x2="1006.1" y2="1194.3"/>
			<line fill="none" x1="1004.6" y1="1188.4" x2="1006.5" y2="1188.4"/>
			<line fill="none" x1="993.9" y1="1214.4" x2="995.9" y2="1214.4"/>
			<line fill="none" x1="1027.8" y1="1198.7" x2="1030" y2="1198.7"/>
			<line fill="none" x1="999" y1="1209.4" x2="1001.1" y2="1209.4"/>
			<line fill="none" x1="993.6" y1="1207.6" x2="995.7" y2="1207.6"/>
			<line fill="none" x1="1006.9" y1="1169.9" x2="1008" y2="1171.4"/>
			<line fill="none" x1="1016.8" y1="1174.2" x2="1018.3" y2="1173"/>
			<line fill="none" x1="1023.8" y1="1205.5" x2="1023.1" y2="1203.5"/>
			<line fill="none" x1="1000" y1="1222" x2="1001.2" y2="1220.3"/>
			<path d="M1009.2,1184c0.1,1.8,1.6,3.3,3.4,3.3s3.3-1.5,3.4-3.3H1009.2L1009.2,1184z"/>
			<circle cx="1008.8" cy="1181.8" r="0.9"/>
			<circle cx="1016.2" cy="1181.8" r="0.9"/>
			<path d="M1011.5,1184.6c0,0.5,0.3,0.9,0.6,0.9c0.2,0,0.3-0.1,0.4-0.3c0.1,0.2,0.3,0.3,0.4,0.3c0.3,0,0.6-0.4,0.6-0.9
				c0-0.1,0-0.1,0-0.2h-2C1011.5,1184.5,1011.5,1184.5,1011.5,1184.6z"/>
			<line fill="none" x1="1015.4" y1="1225.5" x2="1015.9" y2="1225.5"/>
			<line fill="none" x1="1019.9" y1="1230.2" x2="1021.8" y2="1230.2"/>
			<line fill="none" x1="1007.4" y1="1226" x2="1007.9" y2="1226"/>
			<line fill="none" x1="1018.7" y1="1239.9" x2="1020.6" y2="1239.9"/>
			<line fill="none" x1="1004.3" y1="1233.1" x2="1006.2" y2="1233.1"/>
			<path d="M1019.3,1262h1.9H1019.3z"/>
			<line fill="none" x1="1013.6" y1="1234.5" x2="1014" y2="1234.5"/>
			<line fill="none" x1="1007.7" y1="1232.5" x2="1008.1" y2="1232.5"/>
			<line fill="none" x1="1015.8" y1="1244.9" x2="1016.3" y2="1244.9"/>
			<line fill="none" x1="1006.8" y1="1241.4" x2="1007.2" y2="1241.4"/>
			<line fill="none" x1="1016.5" y1="1257.4" x2="1017" y2="1257.4"/>
			<line fill="none" x1="1012.6" y1="1240.2" x2="1013.1" y2="1240.2"/>
			<line fill="none" x1="1013.4" y1="1271.8" x2="1013.9" y2="1271.8"/>
			<line fill="none" x1="1007.2" y1="1270.2" x2="1007.6" y2="1270.2"/>
			<line fill="none" x1="1016.5" y1="1252.4" x2="1017" y2="1252.4"/>
			<line fill="none" x1="1013.4" y1="1265" x2="1013.9" y2="1265"/>
			<line fill="none" x1="1011.1" y1="1251.1" x2="1011.5" y2="1251.1"/>
			<line fill="none" x1="1011.3" y1="1258.1" x2="1011.7" y2="1258.1"/>
			<path d="M1020,1249.1h1.9H1020z"/>
			<line fill="none" x1="1017.2" y1="1268.4" x2="1017.6" y2="1268.4"/>
			<line fill="none" x1="1006.8" y1="1262.4" x2="1007.3" y2="1262.3"/>
			<line fill="none" x1="1007.5" y1="1252.8" x2="1008" y2="1252.8"/>
			<line fill="none" x1="1007.8" y1="1201.8" x2="1008.3" y2="1201.8"/>
			<line fill="none" x1="1003.6" y1="1247.8" x2="1005.5" y2="1247.8"/>
			<line fill="none" x1="1004.3" y1="1258" x2="1006.2" y2="1258"/>
			<line fill="none" x1="1003.6" y1="1273.4" x2="1005.5" y2="1273.4"/>
			<line fill="none" x1="1011.4" y1="1275.5" x2="1011.8" y2="1275.5"/>
			<line fill="none" x1="1004.1" y1="1277.5" x2="1006" y2="1277.5"/>
			<line fill="none" x1="1016" y1="1279.1" x2="1016.5" y2="1279.1"/>
			<line fill="none" x1="1006.9" y1="1280.6" x2="1007.3" y2="1280.6"/>
		</g>
		<g id="topf_4_">
			<polygon points="1028.1,1262.3 994.8,1262.3 1000.9,1288.4 1022,1288.4 			"/>
			<polygon points="996.5,1269.6 1026.4,1269.6 1028.1,1262.3 994.8,1262.3 			"/>
			<polygon points="1031.2,1258.6 991.7,1258.6 993.1,1265.4 1029.8,1265.4 			"/>
			<g id="LABEL_4_">
				<path d="M1022.7,1281.7c-7.4-0.9-14.9-0.9-22.3,0c-0.4-3.4-0.9-6.8-1.3-10.1c8.3-1.1,16.6-1.1,24.9,0
					C1023.6,1274.9,1023.2,1278.3,1022.7,1281.7z"/>
			</g>
		</g>
	</g>
	<g id="cactus-2">
		<g id="cactus-body-2">
			<g>
				<path d="M1067.1,1206.2l-0.1-5.9l0,0c0,0,1.3-0.1,2.5-0.8c1.5-0.9,2.5-2.4,2.7-4.5c0.2-1.6,1.7-2.7,3.3-2.5
					c1.6,0.2,2.7,1.7,2.5,3.3C1076.9,1203.8,1070.3,1206.1,1067.1,1206.2z"/>
			</g>
			<path d="M1076.6,1192.9c0.1,0.3,0.1,0.6,0,1c-1,7.1-6.2,9.2-9.7,9.8l0.1,2.5c3.3-0.1,9.8-2.4,10.9-10.4
				C1078.1,1194.6,1077.6,1193.5,1076.6,1192.9z"/>
			<g>
				<path d="M1061.8,1288.3c-4.1,0-7.5-2.2-7.5-9.1v-98c0-6.9,1.8-12.5,7.5-12.5c5.1,0,7.5,5.6,7.5,12.5v98
					C1069.2,1286.1,1065.9,1288.3,1061.8,1288.3z"/>
			</g>
			<g>
				<path d="M1055.9,1222.1c-3.2,0-9.1-1.9-11.1-7.2c-1.5-3.9-1-8.1-0.9-8.3c0.2-1.4,1.5-2.5,3-2.3c1.4,0.2,2.5,1.5,2.3,3
					c0,0-0.4,3.1,0.6,5.7c0.9,2.4,4.2,3.8,6.2,3.8c1.5,0,2.6,1.2,2.6,2.6C1058.5,1221,1057.3,1222.1,1055.9,1222.1z"/>
			</g>
			<path d="M1058.7,1276.6v-95.8c0-5.5,2.2-10.2,5.3-11.7c-0.8-0.3-1.4-0.3-2.2-0.4c-5-0.4-7.5,5.4-7.5,12.1v95.8
				c0,6.7,3.3,8.7,7.5,8.7c0.8,0,1.5-0.2,2.2-0.5C1060.9,1283.3,1058.7,1282,1058.7,1276.6z"/>
			<line fill="none" x1="1068.3" y1="1183.5" x2="1070.2" y2="1183.5"/>
			<line fill="none" x1="1065.7" y1="1178.3" x2="1066.2" y2="1178.3"/>
			<line fill="none" x1="1066.7" y1="1188.2" x2="1067.1" y2="1188.2"/>
			<line fill="none" x1="1065.6" y1="1196" x2="1066" y2="1196"/>
			<line fill="none" x1="1060.5" y1="1192.8" x2="1061" y2="1192.7"/>
			<line fill="none" x1="1060.7" y1="1215.1" x2="1061.2" y2="1215.1"/>
			<line fill="none" x1="1065.1" y1="1206.5" x2="1065.6" y2="1206.5"/>
			<line fill="none" x1="1063.1" y1="1210.5" x2="1063.6" y2="1210.5"/>
			<line fill="none" x1="1062.3" y1="1221.9" x2="1062.7" y2="1221.9"/>
			<line fill="none" x1="1061.7" y1="1203.5" x2="1062.2" y2="1203.5"/>
			<line fill="none" x1="1061.1" y1="1198.1" x2="1061.6" y2="1198.1"/>
			<line fill="none" x1="1048.6" y1="1217.4" x2="1049" y2="1217.1"/>
			<line fill="none" x1="1046.7" y1="1211" x2="1046.8" y2="1211.6"/>
			<line fill="none" x1="1055.9" y1="1191.6" x2="1056.4" y2="1191.6"/>
			<line fill="none" x1="1056.1" y1="1184.4" x2="1056.6" y2="1184.4"/>
			<line fill="none" x1="1056.8" y1="1173.8" x2="1057.2" y2="1174"/>
			<line fill="none" x1="1059.7" y1="1170" x2="1059.9" y2="1170.4"/>
			<line fill="none" x1="1056.7" y1="1209.5" x2="1057.1" y2="1209.5"/>
			<line fill="none" x1="1056.4" y1="1219.9" x2="1056.8" y2="1219.9"/>
			<line fill="none" x1="1063.3" y1="1172.6" x2="1063.6" y2="1172.3"/>
			<line fill="none" x1="1053.3" y1="1178.4" x2="1055.2" y2="1178.4"/>
			<line fill="none" x1="1068.5" y1="1192.8" x2="1070.4" y2="1192.8"/>
			<line fill="none" x1="1065.9" y1="1214" x2="1067.8" y2="1214"/>
			<line fill="none" x1="1053.2" y1="1225.1" x2="1055.1" y2="1225.1"/>
			<line fill="none" x1="1068.4" y1="1221.6" x2="1070.3" y2="1221.6"/>
			<line fill="none" x1="1053.4" y1="1194.3" x2="1055.2" y2="1194.3"/>
			<line fill="none" x1="1053.7" y1="1188.4" x2="1055.6" y2="1188.4"/>
			<line fill="none" x1="1043" y1="1214.4" x2="1045" y2="1214.4"/>
			<line fill="none" x1="1076.9" y1="1198.7" x2="1079" y2="1198.7"/>
			<line fill="none" x1="1048.1" y1="1209.4" x2="1050.1" y2="1209.4"/>
			<line fill="none" x1="1042.7" y1="1207.6" x2="1044.8" y2="1207.6"/>
			<line fill="none" x1="1055.9" y1="1169.9" x2="1057.1" y2="1171.4"/>
			<line fill="none" x1="1065.9" y1="1174.2" x2="1067.4" y2="1173"/>
			<line fill="none" x1="1072.9" y1="1205.5" x2="1072.2" y2="1203.5"/>
			<line fill="none" x1="1049.1" y1="1222" x2="1050.2" y2="1220.3"/>
			<path d="M1058.3,1184c0.1,1.8,1.6,3.3,3.4,3.3c1.8,0,3.3-1.5,3.4-3.3H1058.3L1058.3,1184z"/>
			<circle cx="1057.9" cy="1181.8" r="0.9"/>
			<circle cx="1065.3" cy="1181.8" r="0.9"/>
			<path d="M1060.6,1184.6c0,0.5,0.3,0.9,0.6,0.9c0.2,0,0.3-0.1,0.4-0.3c0.1,0.2,0.3,0.3,0.4,0.3c0.3,0,0.6-0.4,0.6-0.9
				c0-0.1,0-0.1,0-0.2h-2C1060.6,1184.5,1060.6,1184.5,1060.6,1184.6z"/>
			<line fill="none" x1="1064.5" y1="1225.5" x2="1065" y2="1225.5"/>
			<line fill="none" x1="1069" y1="1230.2" x2="1070.9" y2="1230.2"/>
			<line fill="none" x1="1056.5" y1="1226" x2="1056.9" y2="1226"/>
			<line fill="none" x1="1067.8" y1="1239.9" x2="1069.7" y2="1239.9"/>
			<line fill="none" x1="1053.4" y1="1233.1" x2="1055.3" y2="1233.1"/>
			<path d="M1068.4,1262h1.9H1068.4z"/>
			<line fill="none" x1="1062.7" y1="1234.5" x2="1063.1" y2="1234.5"/>
			<line fill="none" x1="1056.8" y1="1232.5" x2="1057.2" y2="1232.5"/>
			<line fill="none" x1="1064.9" y1="1244.9" x2="1065.4" y2="1244.9"/>
			<line fill="none" x1="1055.9" y1="1241.4" x2="1056.3" y2="1241.4"/>
			<line fill="none" x1="1065.6" y1="1257.4" x2="1066" y2="1257.4"/>
			<line fill="none" x1="1061.7" y1="1240.2" x2="1062.2" y2="1240.2"/>
			<line fill="none" x1="1062.5" y1="1271.8" x2="1063" y2="1271.8"/>
			<line fill="none" x1="1056.3" y1="1270.2" x2="1056.7" y2="1270.2"/>
			<line fill="none" x1="1065.6" y1="1252.4" x2="1066.1" y2="1252.4"/>
			<line fill="none" x1="1062.5" y1="1265" x2="1063" y2="1265"/>
			<line fill="none" x1="1060.1" y1="1251.1" x2="1060.6" y2="1251.1"/>
			<line fill="none" x1="1060.3" y1="1258.1" x2="1060.8" y2="1258.1"/>
			<path d="M1069.1,1249.1h1.9H1069.1z"/>
			<line fill="none" x1="1066.2" y1="1268.4" x2="1066.7" y2="1268.4"/>
			<line fill="none" x1="1055.9" y1="1262.4" x2="1056.4" y2="1262.3"/>
			<line fill="none" x1="1056.6" y1="1252.8" x2="1057.1" y2="1252.8"/>
			<line fill="none" x1="1056.9" y1="1201.8" x2="1057.4" y2="1201.8"/>
			<line fill="none" x1="1052.7" y1="1247.8" x2="1054.6" y2="1247.8"/>
			<line fill="none" x1="1053.4" y1="1258" x2="1055.3" y2="1258"/>
			<line fill="none" x1="1052.7" y1="1273.4" x2="1054.6" y2="1273.4"/>
			<line fill="none" x1="1060.4" y1="1275.5" x2="1060.9" y2="1275.5"/>
			<line fill="none" x1="1053.2" y1="1277.5" x2="1055.1" y2="1277.5"/>
			<line fill="none" x1="1065.1" y1="1279.1" x2="1065.6" y2="1279.1"/>
			<line fill="none" x1="1055.9" y1="1280.6" x2="1056.4" y2="1280.6"/>
		</g>
		<g id="topf_5_">
			<polygon points="1077.2,1262.3 1043.8,1262.3 1050,1288.4 1071.1,1288.4 			"/>
			<polygon points="1045.6,1269.6 1075.5,1269.6 1077.2,1262.3 1043.8,1262.3 			"/>
			<polygon points="1080.3,1258.6 1040.8,1258.6 1042.2,1265.4 1078.9,1265.4 			"/>
			<g id="LABEL_5_">
				<path d="M1071.8,1281.7c-7.4-0.9-14.9-0.9-22.3,0c-0.4-3.4-0.9-6.8-1.3-10.1c8.3-1.1,16.6-1.1,24.9,0
					C1072.7,1274.9,1072.2,1278.3,1071.8,1281.7z"/>
			</g>
		</g>
	</g>
	<g id="cactus-3">
		<g id="cactus-body-3">
			<g>
				<path d="M1116.1,1206.2l-0.1-5.9l0,0c0,0,1.3-0.1,2.5-0.8c1.5-0.9,2.5-2.4,2.7-4.5c0.2-1.6,1.7-2.7,3.3-2.5
					c1.6,0.2,2.7,1.7,2.5,3.3C1125.9,1203.8,1119.4,1206.1,1116.1,1206.2z"/>
			</g>
			<path d="M1125.7,1192.9c0.1,0.3,0.1,0.6,0,1c-1,7.1-6.2,9.2-9.7,9.8l0.1,2.5c3.3-0.1,9.8-2.4,10.9-10.4
				C1127.2,1194.6,1126.7,1193.5,1125.7,1192.9z"/>
			<g>
				<path d="M1110.9,1288.3c-4.1,0-7.5-2.2-7.5-9.1v-98c0-6.9,1.8-12.5,7.5-12.5c5.1,0,7.5,5.6,7.5,12.5v98
					C1118.3,1286.1,1115,1288.3,1110.9,1288.3z"/>
			</g>
			<g>
				<path d="M1105,1222.1c-3.2,0-9.1-1.9-11.1-7.2c-1.5-3.9-1-8.1-0.9-8.3c0.2-1.4,1.5-2.5,3-2.3c1.5,0.2,2.5,1.5,2.3,3
					c0,0-0.4,3.1,0.6,5.7c0.9,2.4,4.2,3.8,6.2,3.8c1.5,0,2.6,1.2,2.6,2.6C1107.6,1221,1106.4,1222.1,1105,1222.1z"/>
			</g>
			<path d="M1107.8,1276.6v-95.8c0-5.5,2.2-10.2,5.3-11.7c-0.8-0.3-1.4-0.3-2.2-0.4c-5-0.4-7.5,5.4-7.5,12.1v95.8
				c0,6.7,3.3,8.7,7.5,8.7c0.8,0,1.5-0.2,2.2-0.5C1110,1283.3,1107.8,1282,1107.8,1276.6z"/>
			<line fill="none" x1="1117.4" y1="1183.5" x2="1119.3" y2="1183.5"/>
			<line fill="none" x1="1114.8" y1="1178.3" x2="1115.3" y2="1178.3"/>
			<line fill="none" x1="1115.7" y1="1188.2" x2="1116.2" y2="1188.2"/>
			<line fill="none" x1="1114.7" y1="1196" x2="1115.1" y2="1196"/>
			<line fill="none" x1="1109.6" y1="1192.8" x2="1110.1" y2="1192.7"/>
			<line fill="none" x1="1109.8" y1="1215.1" x2="1110.3" y2="1215.1"/>
			<line fill="none" x1="1114.2" y1="1206.5" x2="1114.6" y2="1206.5"/>
			<line fill="none" x1="1112.2" y1="1210.5" x2="1112.7" y2="1210.5"/>
			<line fill="none" x1="1111.3" y1="1221.9" x2="1111.8" y2="1221.9"/>
			<line fill="none" x1="1110.8" y1="1203.5" x2="1111.2" y2="1203.5"/>
			<line fill="none" x1="1110.2" y1="1198.1" x2="1110.7" y2="1198.1"/>
			<line fill="none" x1="1097.7" y1="1217.4" x2="1098.1" y2="1217.1"/>
			<line fill="none" x1="1095.8" y1="1211" x2="1095.9" y2="1211.6"/>
			<line fill="none" x1="1105" y1="1191.6" x2="1105.4" y2="1191.6"/>
			<line fill="none" x1="1105.2" y1="1184.4" x2="1105.7" y2="1184.4"/>
			<line fill="none" x1="1105.9" y1="1173.8" x2="1106.3" y2="1174"/>
			<line fill="none" x1="1108.7" y1="1170" x2="1109" y2="1170.4"/>
			<line fill="none" x1="1105.7" y1="1209.5" x2="1106.2" y2="1209.5"/>
			<line fill="none" x1="1105.4" y1="1219.9" x2="1105.9" y2="1219.9"/>
			<line fill="none" x1="1112.4" y1="1172.6" x2="1112.7" y2="1172.3"/>
			<line fill="none" x1="1102.4" y1="1178.4" x2="1104.2" y2="1178.4"/>
			<line fill="none" x1="1117.6" y1="1192.8" x2="1119.5" y2="1192.8"/>
			<line fill="none" x1="1115" y1="1214" x2="1116.9" y2="1214"/>
			<line fill="none" x1="1102.3" y1="1225.1" x2="1104.2" y2="1225.1"/>
			<line fill="none" x1="1117.5" y1="1221.6" x2="1119.4" y2="1221.6"/>
			<line fill="none" x1="1102.4" y1="1194.3" x2="1104.3" y2="1194.3"/>
			<line fill="none" x1="1102.7" y1="1188.4" x2="1104.7" y2="1188.4"/>
			<line fill="none" x1="1092.1" y1="1214.4" x2="1094.1" y2="1214.4"/>
			<line fill="none" x1="1126" y1="1198.7" x2="1128.1" y2="1198.7"/>
			<line fill="none" x1="1097.2" y1="1209.4" x2="1099.2" y2="1209.4"/>
			<line fill="none" x1="1091.8" y1="1207.6" x2="1093.9" y2="1207.6"/>
			<line fill="none" x1="1105" y1="1169.9" x2="1106.2" y2="1171.4"/>
			<line fill="none" x1="1115" y1="1174.2" x2="1116.5" y2="1173"/>
			<line fill="none" x1="1122" y1="1205.5" x2="1121.3" y2="1203.5"/>
			<line fill="none" x1="1098.1" y1="1222" x2="1099.3" y2="1220.3"/>
			<path d="M1107.3,1184c0.1,1.8,1.6,3.3,3.4,3.3c1.8,0,3.3-1.5,3.4-3.3H1107.3L1107.3,1184z"/>
			<circle cx="1106.9" cy="1181.8" r="0.9"/>
			<circle cx="1114.4" cy="1181.8" r="0.9"/>
			<path d="M1109.7,1184.6c0,0.5,0.3,0.9,0.6,0.9c0.2,0,0.3-0.1,0.4-0.3c0.1,0.2,0.3,0.3,0.4,0.3c0.3,0,0.6-0.4,0.6-0.9
				c0-0.1,0-0.1,0-0.2h-2C1109.7,1184.5,1109.7,1184.5,1109.7,1184.6z"/>
			<line fill="none" x1="1113.6" y1="1225.5" x2="1114" y2="1225.5"/>
			<line fill="none" x1="1118.1" y1="1230.2" x2="1120" y2="1230.2"/>
			<line fill="none" x1="1105.6" y1="1226" x2="1106" y2="1226"/>
			<line fill="none" x1="1116.9" y1="1239.9" x2="1118.7" y2="1239.9"/>
			<line fill="none" x1="1102.5" y1="1233.1" x2="1104.3" y2="1233.1"/>
			<path d="M1117.5,1262h1.9H1117.5z"/>
			<line fill="none" x1="1111.7" y1="1234.5" x2="1112.2" y2="1234.5"/>
			<line fill="none" x1="1105.8" y1="1232.5" x2="1106.3" y2="1232.5"/>
			<line fill="none" x1="1114" y1="1244.9" x2="1114.4" y2="1244.9"/>
			<line fill="none" x1="1105" y1="1241.4" x2="1105.4" y2="1241.4"/>
			<line fill="none" x1="1114.7" y1="1257.4" x2="1115.1" y2="1257.4"/>
			<line fill="none" x1="1110.8" y1="1240.2" x2="1111.2" y2="1240.2"/>
			<line fill="none" x1="1111.6" y1="1271.8" x2="1112.1" y2="1271.8"/>
			<line fill="none" x1="1105.3" y1="1270.2" x2="1105.8" y2="1270.2"/>
			<line fill="none" x1="1114.7" y1="1252.4" x2="1115.2" y2="1252.4"/>
			<line fill="none" x1="1111.6" y1="1265" x2="1112.1" y2="1265"/>
			<line fill="none" x1="1109.2" y1="1251.1" x2="1109.7" y2="1251.1"/>
			<line fill="none" x1="1109.4" y1="1258.1" x2="1109.9" y2="1258.1"/>
			<path d="M1118.2,1249.1h1.9H1118.2z"/>
			<line fill="none" x1="1115.3" y1="1268.4" x2="1115.8" y2="1268.4"/>
			<line fill="none" x1="1105" y1="1262.4" x2="1105.5" y2="1262.3"/>
			<line fill="none" x1="1105.7" y1="1252.8" x2="1106.2" y2="1252.8"/>
			<line fill="none" x1="1106" y1="1201.8" x2="1106.5" y2="1201.8"/>
			<line fill="none" x1="1101.8" y1="1247.8" x2="1103.7" y2="1247.8"/>
			<line fill="none" x1="1102.5" y1="1258" x2="1104.3" y2="1258"/>
			<line fill="none" x1="1101.8" y1="1273.4" x2="1103.7" y2="1273.4"/>
			<line fill="none" x1="1109.5" y1="1275.5" x2="1110" y2="1275.5"/>
			<line fill="none" x1="1102.3" y1="1277.5" x2="1104.1" y2="1277.5"/>
			<line fill="none" x1="1114.2" y1="1279.1" x2="1114.6" y2="1279.1"/>
			<line fill="none" x1="1105" y1="1280.6" x2="1105.5" y2="1280.6"/>
		</g>
		<g id="topf_1_">
			<polygon points="1126.3,1262.3 1092.9,1262.3 1099.1,1288.4 1120.2,1288.4 			"/>
			<polygon points="1094.7,1269.6 1124.6,1269.6 1126.3,1262.3 1092.9,1262.3 			"/>
			<polygon points="1129.4,1258.6 1089.8,1258.6 1091.2,1265.4 1128,1265.4 			"/>
			<g id="LABEL_1_">
				<path d="M1120.9,1281.7c-7.4-0.9-14.9-0.9-22.3,0c-0.4-3.4-0.9-6.8-1.3-10.1c8.3-1.1,16.6-1.1,24.9,0
					C1121.7,1274.9,1121.3,1278.3,1120.9,1281.7z"/>
			</g>
		</g>
	</g>
	<g id="cactus-4">
		<g id="cactus-body-4">
			<g>
				<path d="M1165.2,1206.2l-0.1-5.9l0,0c0,0,1.3-0.1,2.5-0.8c1.5-0.9,2.5-2.4,2.7-4.5c0.2-1.6,1.7-2.7,3.3-2.5
					c1.6,0.2,2.7,1.7,2.5,3.3C1175,1203.8,1168.5,1206.1,1165.2,1206.2z"/>
			</g>
			<path d="M1174.8,1192.9c0.1,0.3,0.1,0.6,0,1c-1,7.1-6.2,9.2-9.7,9.8l0.1,2.5c3.3-0.1,9.8-2.4,10.9-10.4
				C1176.3,1194.6,1175.7,1193.5,1174.8,1192.9z"/>
			<g>
				<path d="M1159.9,1288.3c-4.1,0-7.5-2.2-7.5-9.1v-98c0-6.9,1.8-12.5,7.5-12.5c5.1,0,7.5,5.6,7.5,12.5v98
					C1167.4,1286.1,1164.1,1288.3,1159.9,1288.3z"/>
			</g>
			<g>
				<path d="M1154,1222.1c-3.2,0-9.1-1.9-11.1-7.2c-1.5-3.9-1-8.1-0.9-8.3c0.2-1.4,1.5-2.5,3-2.3c1.4,0.2,2.5,1.5,2.3,3
					c0,0-0.4,3.1,0.6,5.7c0.9,2.4,4.2,3.8,6.2,3.8c1.5,0,2.6,1.2,2.6,2.6C1156.7,1221,1155.5,1222.1,1154,1222.1z"/>
			</g>
			<path d="M1156.9,1276.6v-95.8c0-5.5,2.2-10.2,5.3-11.7c-0.8-0.3-1.4-0.3-2.2-0.4c-5-0.4-7.5,5.4-7.5,12.1v95.8
				c0,6.7,3.3,8.7,7.5,8.7c0.8,0,1.5-0.2,2.2-0.5C1159.1,1283.3,1156.9,1282,1156.9,1276.6z"/>
			<line fill="none" x1="1166.5" y1="1183.5" x2="1168.4" y2="1183.5"/>
			<line fill="none" x1="1163.9" y1="1178.3" x2="1164.4" y2="1178.3"/>
			<line fill="none" x1="1164.8" y1="1188.2" x2="1165.3" y2="1188.2"/>
			<line fill="none" x1="1163.8" y1="1196" x2="1164.2" y2="1196"/>
			<line fill="none" x1="1158.7" y1="1192.8" x2="1159.2" y2="1192.7"/>
			<line fill="none" x1="1158.9" y1="1215.1" x2="1159.4" y2="1215.1"/>
			<line fill="none" x1="1163.3" y1="1206.5" x2="1163.7" y2="1206.5"/>
			<line fill="none" x1="1161.3" y1="1210.5" x2="1161.8" y2="1210.5"/>
			<line fill="none" x1="1160.4" y1="1221.9" x2="1160.9" y2="1221.9"/>
			<line fill="none" x1="1159.9" y1="1203.5" x2="1160.3" y2="1203.5"/>
			<line fill="none" x1="1159.3" y1="1198.1" x2="1159.8" y2="1198.1"/>
			<line fill="none" x1="1146.7" y1="1217.4" x2="1147.2" y2="1217.1"/>
			<line fill="none" x1="1144.9" y1="1211" x2="1145" y2="1211.6"/>
			<line fill="none" x1="1154" y1="1191.6" x2="1154.5" y2="1191.6"/>
			<line fill="none" x1="1154.3" y1="1184.4" x2="1154.8" y2="1184.4"/>
			<line fill="none" x1="1155" y1="1173.8" x2="1155.4" y2="1174"/>
			<line fill="none" x1="1157.8" y1="1170" x2="1158.1" y2="1170.4"/>
			<line fill="none" x1="1154.8" y1="1209.5" x2="1155.3" y2="1209.5"/>
			<line fill="none" x1="1154.5" y1="1219.9" x2="1155" y2="1219.9"/>
			<line fill="none" x1="1161.5" y1="1172.6" x2="1161.8" y2="1172.3"/>
			<line fill="none" x1="1151.4" y1="1178.4" x2="1153.3" y2="1178.4"/>
			<line fill="none" x1="1166.7" y1="1192.8" x2="1168.6" y2="1192.8"/>
			<line fill="none" x1="1164.1" y1="1214" x2="1166" y2="1214"/>
			<line fill="none" x1="1151.4" y1="1225.1" x2="1153.3" y2="1225.1"/>
			<line fill="none" x1="1166.6" y1="1221.6" x2="1168.4" y2="1221.6"/>
			<line fill="none" x1="1151.5" y1="1194.3" x2="1153.4" y2="1194.3"/>
			<line fill="none" x1="1151.8" y1="1188.4" x2="1153.7" y2="1188.4"/>
			<line fill="none" x1="1141.1" y1="1214.4" x2="1143.2" y2="1214.4"/>
			<line fill="none" x1="1175.1" y1="1198.7" x2="1177.2" y2="1198.7"/>
			<line fill="none" x1="1146.3" y1="1209.4" x2="1148.3" y2="1209.4"/>
			<line fill="none" x1="1140.9" y1="1207.6" x2="1143" y2="1207.6"/>
			<line fill="none" x1="1154.1" y1="1169.9" x2="1155.2" y2="1171.4"/>
			<line fill="none" x1="1164.1" y1="1174.2" x2="1165.6" y2="1173"/>
			<line fill="none" x1="1171.1" y1="1205.5" x2="1170.4" y2="1203.5"/>
			<line fill="none" x1="1147.2" y1="1222" x2="1148.4" y2="1220.3"/>
			<path d="M1156.4,1184c0.1,1.8,1.6,3.3,3.4,3.3c1.8,0,3.3-1.5,3.4-3.3H1156.4L1156.4,1184z"/>
			<circle cx="1156" cy="1181.8" r="0.9"/>
			<circle cx="1163.5" cy="1181.8" r="0.9"/>
			<path d="M1158.8,1184.6c0,0.5,0.3,0.9,0.6,0.9c0.2,0,0.3-0.1,0.4-0.3c0.1,0.2,0.3,0.3,0.4,0.3c0.3,0,0.6-0.4,0.6-0.9
				c0-0.1,0-0.1,0-0.2h-2C1158.8,1184.5,1158.8,1184.5,1158.8,1184.6z"/>
			<line fill="none" x1="1162.6" y1="1225.5" x2="1163.1" y2="1225.5"/>
			<line fill="none" x1="1167.2" y1="1230.2" x2="1169.1" y2="1230.2"/>
			<line fill="none" x1="1154.7" y1="1226" x2="1155.1" y2="1226"/>
			<line fill="none" x1="1165.9" y1="1239.9" x2="1167.8" y2="1239.9"/>
			<line fill="none" x1="1151.6" y1="1233.1" x2="1153.4" y2="1233.1"/>
			<path d="M1166.6,1262h1.9H1166.6z"/>
			<line fill="none" x1="1160.8" y1="1234.5" x2="1161.3" y2="1234.5"/>
			<line fill="none" x1="1154.9" y1="1232.5" x2="1155.4" y2="1232.5"/>
			<line fill="none" x1="1163" y1="1244.9" x2="1163.5" y2="1244.9"/>
			<line fill="none" x1="1154" y1="1241.4" x2="1154.5" y2="1241.4"/>
			<line fill="none" x1="1163.8" y1="1257.4" x2="1164.2" y2="1257.4"/>
			<line fill="none" x1="1159.9" y1="1240.2" x2="1160.3" y2="1240.2"/>
			<line fill="none" x1="1160.7" y1="1271.8" x2="1161.1" y2="1271.8"/>
			<line fill="none" x1="1154.4" y1="1270.2" x2="1154.9" y2="1270.2"/>
			<line fill="none" x1="1163.8" y1="1252.4" x2="1164.2" y2="1252.4"/>
			<line fill="none" x1="1160.7" y1="1265" x2="1161.1" y2="1265"/>
			<line fill="none" x1="1158.3" y1="1251.1" x2="1158.8" y2="1251.1"/>
			<line fill="none" x1="1158.5" y1="1258.1" x2="1159" y2="1258.1"/>
			<path d="M1167.2,1249.1h1.9H1167.2z"/>
			<line fill="none" x1="1164.4" y1="1268.4" x2="1164.9" y2="1268.4"/>
			<line fill="none" x1="1154.1" y1="1262.4" x2="1154.6" y2="1262.3"/>
			<line fill="none" x1="1154.8" y1="1252.8" x2="1155.2" y2="1252.8"/>
			<line fill="none" x1="1155.1" y1="1201.8" x2="1155.5" y2="1201.8"/>
			<line fill="none" x1="1150.9" y1="1247.8" x2="1152.7" y2="1247.8"/>
			<line fill="none" x1="1151.6" y1="1258" x2="1153.4" y2="1258"/>
			<line fill="none" x1="1150.9" y1="1273.4" x2="1152.7" y2="1273.4"/>
			<line fill="none" x1="1158.6" y1="1275.5" x2="1159.1" y2="1275.5"/>
			<line fill="none" x1="1151.3" y1="1277.5" x2="1153.2" y2="1277.5"/>
			<line fill="none" x1="1163.3" y1="1279.1" x2="1163.7" y2="1279.1"/>
			<line fill="none" x1="1154.1" y1="1280.6" x2="1154.6" y2="1280.6"/>
		</g>
		<g id="topf_2_">
			<polygon points="1175.4,1262.3 1142,1262.3 1148.1,1288.4 1169.3,1288.4 			"/>
			<polygon points="1143.7,1269.6 1173.7,1269.6 1175.4,1262.3 1142,1262.3 			"/>
			<polygon points="1178.5,1258.6 1138.9,1258.6 1140.3,1265.4 1177.1,1265.4 			"/>
			<g id="LABEL_2_">
				<path d="M1170,1281.7c-7.4-0.9-14.9-0.9-22.3,0c-0.4-3.4-0.9-6.8-1.3-10.1c8.3-1.1,16.6-1.1,24.9,0
					C1170.8,1274.9,1170.4,1278.3,1170,1281.7z"/>
			</g>
		</g>
	</g>
	<g id="cactus-5">
		<g id="cactus-body-5">
			<g>
				<path d="M1213,1207.1l-0.1-5.9l0,0c0,0,1.3-0.1,2.5-0.8c1.5-0.9,2.5-2.4,2.7-4.5c0.2-1.6,1.7-2.7,3.3-2.5
					c1.6,0.2,2.7,1.7,2.5,3.3C1222.8,1204.7,1216.3,1207,1213,1207.1z"/>
			</g>
			<path d="M1222.6,1193.8c0.1,0.3,0.1,0.6,0,1c-1,7.1-6.2,9.2-9.7,9.8l0.1,2.5c3.3-0.1,9.8-2.4,10.9-10.4
				C1224.1,1195.5,1223.5,1194.4,1222.6,1193.8z"/>
			<g>
				<path d="M1207.7,1289.1c-4.1,0-7.5-2.2-7.5-9.1v-98c0-6.9,1.8-12.5,7.5-12.5c5.1,0,7.5,5.6,7.5,12.5v98
					C1215.2,1286.9,1211.9,1289.1,1207.7,1289.1z"/>
			</g>
			<g>
				<path d="M1201.8,1223c-3.2,0-9.1-1.9-11.1-7.2c-1.5-3.9-1-8.1-0.9-8.3c0.2-1.4,1.5-2.5,3-2.3c1.4,0.2,2.5,1.5,2.3,3
					c0,0-0.4,3.1,0.6,5.7c0.9,2.4,4.2,3.8,6.2,3.8c1.5,0,2.6,1.2,2.6,2.6C1204.5,1221.8,1203.3,1223,1201.8,1223z"/>
			</g>
			<path d="M1204.7,1277.4v-95.7c0-5.5,2.2-10.2,5.3-11.7c-0.8-0.3-1.4-0.3-2.2-0.4c-5-0.4-7.5,5.4-7.5,12.1v95.8
				c0,6.7,3.3,8.7,7.5,8.7c0.8,0,1.5-0.2,2.2-0.5C1206.9,1284.1,1204.7,1282.9,1204.7,1277.4z"/>
			<line fill="none" x1="1214.2" y1="1184.3" x2="1216.2" y2="1184.3"/>
			<line fill="none" x1="1211.7" y1="1179.1" x2="1212.2" y2="1179.1"/>
			<line fill="none" x1="1212.6" y1="1189.1" x2="1213.1" y2="1189.1"/>
			<line fill="none" x1="1211.6" y1="1196.8" x2="1212" y2="1196.8"/>
			<line fill="none" x1="1206.5" y1="1193.7" x2="1207" y2="1193.6"/>
			<line fill="none" x1="1206.7" y1="1216" x2="1207.2" y2="1216"/>
			<line fill="none" x1="1211" y1="1207.3" x2="1211.5" y2="1207.3"/>
			<line fill="none" x1="1209.1" y1="1211.4" x2="1209.5" y2="1211.4"/>
			<line fill="none" x1="1208.2" y1="1222.7" x2="1208.7" y2="1222.7"/>
			<line fill="none" x1="1207.7" y1="1204.4" x2="1208.1" y2="1204.4"/>
			<line fill="none" x1="1207.1" y1="1199" x2="1207.6" y2="1199"/>
			<line fill="none" x1="1194.5" y1="1218.2" x2="1195" y2="1217.9"/>
			<line fill="none" x1="1192.7" y1="1211.9" x2="1192.8" y2="1212.4"/>
			<line fill="none" x1="1201.8" y1="1192.4" x2="1202.3" y2="1192.4"/>
			<line fill="none" x1="1202.1" y1="1185.2" x2="1202.6" y2="1185.2"/>
			<line fill="none" x1="1202.8" y1="1174.7" x2="1203.2" y2="1174.9"/>
			<line fill="none" x1="1205.6" y1="1170.8" x2="1205.9" y2="1171.2"/>
			<line fill="none" x1="1202.6" y1="1210.4" x2="1203.1" y2="1210.4"/>
			<line fill="none" x1="1202.3" y1="1220.8" x2="1202.8" y2="1220.8"/>
			<line fill="none" x1="1209.3" y1="1173.5" x2="1209.6" y2="1173.1"/>
			<line fill="none" x1="1199.2" y1="1179.3" x2="1201.1" y2="1179.3"/>
			<line fill="none" x1="1214.5" y1="1193.7" x2="1216.4" y2="1193.7"/>
			<line fill="none" x1="1211.9" y1="1214.8" x2="1213.8" y2="1214.8"/>
			<line fill="none" x1="1199.2" y1="1225.9" x2="1201.1" y2="1225.9"/>
			<line fill="none" x1="1214.4" y1="1222.5" x2="1216.2" y2="1222.5"/>
			<line fill="none" x1="1199.3" y1="1195.1" x2="1201.2" y2="1195.1"/>
			<line fill="none" x1="1199.6" y1="1189.2" x2="1201.5" y2="1189.2"/>
			<line fill="none" x1="1188.9" y1="1215.2" x2="1191" y2="1215.2"/>
			<line fill="none" x1="1222.8" y1="1199.6" x2="1225" y2="1199.6"/>
			<line fill="none" x1="1194.1" y1="1210.2" x2="1196.1" y2="1210.2"/>
			<line fill="none" x1="1188.7" y1="1208.5" x2="1190.7" y2="1208.5"/>
			<line fill="none" x1="1201.9" y1="1170.7" x2="1203" y2="1172.3"/>
			<line fill="none" x1="1211.9" y1="1175.1" x2="1213.4" y2="1173.9"/>
			<line fill="none" x1="1218.9" y1="1206.4" x2="1218.2" y2="1204.3"/>
			<line fill="none" x1="1195" y1="1222.9" x2="1196.2" y2="1221.2"/>
			<path d="M1204.2,1184.9c0.1,1.8,1.6,3.3,3.4,3.3c1.8,0,3.3-1.5,3.4-3.3H1204.2L1204.2,1184.9z"/>
			<circle cx="1203.8" cy="1182.6" r="0.9"/>
			<circle cx="1211.3" cy="1182.6" r="0.9"/>
			<path d="M1206.6,1185.5c0,0.5,0.3,0.9,0.6,0.9c0.2,0,0.3-0.1,0.4-0.3c0.1,0.2,0.3,0.3,0.4,0.3c0.3,0,0.6-0.4,0.6-0.9
				c0-0.1,0-0.1,0-0.2h-2C1206.6,1185.3,1206.6,1185.4,1206.6,1185.5z"/>
			<line fill="none" x1="1210.4" y1="1226.4" x2="1210.9" y2="1226.4"/>
			<line fill="none" x1="1215" y1="1231" x2="1216.8" y2="1231"/>
			<line fill="none" x1="1202.4" y1="1226.9" x2="1202.9" y2="1226.9"/>
			<line fill="none" x1="1213.7" y1="1240.8" x2="1215.6" y2="1240.8"/>
			<line fill="none" x1="1199.3" y1="1234" x2="1201.2" y2="1234"/>
			<path d="M1214.4,1262.9h1.9H1214.4z"/>
			<line fill="none" x1="1208.6" y1="1235.3" x2="1209.1" y2="1235.3"/>
			<line fill="none" x1="1202.7" y1="1233.4" x2="1203.2" y2="1233.4"/>
			<line fill="none" x1="1210.8" y1="1245.8" x2="1211.3" y2="1245.8"/>
			<line fill="none" x1="1201.8" y1="1242.2" x2="1202.3" y2="1242.2"/>
			<line fill="none" x1="1211.6" y1="1258.3" x2="1212" y2="1258.3"/>
			<line fill="none" x1="1207.7" y1="1241.1" x2="1208.1" y2="1241.1"/>
			<line fill="none" x1="1208.5" y1="1272.7" x2="1208.9" y2="1272.7"/>
			<line fill="none" x1="1202.2" y1="1271.1" x2="1202.7" y2="1271.1"/>
			<line fill="none" x1="1211.6" y1="1253.3" x2="1212" y2="1253.3"/>
			<line fill="none" x1="1208.5" y1="1265.8" x2="1208.9" y2="1265.8"/>
			<line fill="none" x1="1206.1" y1="1251.9" x2="1206.6" y2="1251.9"/>
			<line fill="none" x1="1206.3" y1="1259" x2="1206.8" y2="1259"/>
			<path d="M1215,1249.9h1.9H1215z"/>
			<line fill="none" x1="1212.2" y1="1269.2" x2="1212.7" y2="1269.2"/>
			<line fill="none" x1="1201.9" y1="1263.2" x2="1202.3" y2="1263.2"/>
			<line fill="none" x1="1202.5" y1="1253.7" x2="1203" y2="1253.7"/>
			<line fill="none" x1="1202.9" y1="1202.7" x2="1203.3" y2="1202.7"/>
			<line fill="none" x1="1198.7" y1="1248.6" x2="1200.5" y2="1248.6"/>
			<line fill="none" x1="1199.3" y1="1258.9" x2="1201.2" y2="1258.9"/>
			<line fill="none" x1="1198.7" y1="1274.2" x2="1200.5" y2="1274.2"/>
			<line fill="none" x1="1206.4" y1="1276.4" x2="1206.9" y2="1276.4"/>
			<line fill="none" x1="1199.1" y1="1278.4" x2="1201" y2="1278.4"/>
			<line fill="none" x1="1211" y1="1280" x2="1211.5" y2="1280"/>
			<line fill="none" x1="1201.9" y1="1281.5" x2="1202.4" y2="1281.5"/>
		</g>
		<g id="topf_3_">
			<polygon points="1223.2,1263.1 1189.8,1263.1 1195.9,1289.3 1217,1289.3 			"/>
			<polygon points="1191.5,1270.5 1221.4,1270.5 1223.2,1263.1 1189.8,1263.1 			"/>
			<polygon points="1226.3,1259.4 1186.7,1259.4 1188.1,1266.3 1224.9,1266.3 			"/>
			<g id="LABEL_3_">
				<path d="M1217.8,1282.5c-7.4-0.9-14.9-0.9-22.3,0c-0.4-3.4-0.9-6.8-1.3-10.1c8.3-1.1,16.6-1.1,24.9,0
					C1218.6,1275.8,1218.2,1279.2,1217.8,1282.5z"/>
			</g>
		</g>
	</g>
</g>
</svg>
