<svg id="uebung-morgen" version="1.1" id="Ebene_1" xmlns="http://www.w3.org/2000/svg" xmlns:xlink="http://www.w3.org/1999/xlink" x="0px" y="0px"
	 viewBox="0 0 1208 841.9" enable-background="new 0 0 1208 841.9" xml:space="preserve">
<g>
<g id="move-body">
	<g id="Ebene_7">
		<path id="XMLID_70_" fill="#E6E6E6" stroke="#CCCCCC" stroke-width="0.25" stroke-miterlimit="10" d="M511.6,422.6
			c2.3-13,4.4-25.8,6.7-38.8l6.5-65.1c0-4.5,0-9,0-13.6c-2.7,2.7-5.6,5.5-8.3,8.2c-10.7,39.1-21.3,78.2-32,117.3
			c7,6.2,14.2,12.4,21.2,18.7C507.6,440.3,509.6,431.5,511.6,422.6z"/>
		<path id="XMLID_78_" fill="#E6E6E6" stroke="#CCCCCC" stroke-width="0.25" stroke-miterlimit="10" d="M473.8,351.7
			c-3.1,0.4-9.9,1.5-16.4,6.5c-8.9,6.8-11.4,16.1-12,18.9c-0.4,3.5-0.2,6.3-0.1,8.3c0.4,4.4,1.3,6.7-0.1,8.7
			c-1.7,2.5-4.8,3.7-4.8,3.7l3.6,6.2c0.1,3.2,0.1,6.4,0.2,9.6c-0.2,0.8-1,3.9,0.7,6.2c0.8,1.2,2.3,2,5.8,2.7
			c5.8,1.1,10.5,0.6,12.1,0.4c6.4-0.8,9.2-1.7,13-2.4c4.2-0.7,10.2-1.2,17.9-0.2c0.1-2.3,0.6-5.5,1.9-9c2-5.4,5.2-8.9,7.3-10.8
			c0.7-6.9,1.4-13.8,2-20.7c-0.7-3.2-4-16.9-13-22.1c-1.2-0.7-3.9-2-7.3-3.2C480.3,352.8,476.4,352.1,473.8,351.7z"/>
		<path id="XMLID_77_" fill="#E6E6E6" stroke="#CCCCCC" stroke-width="0.25" stroke-miterlimit="10" d="M445.9,392.3
			c-0.5,0.7-1,1.3-1.5,2c-1.4,1.5-2.9,2.6-3.9,3.5l3.6,6.2C444.6,400.1,445.2,396.3,445.9,392.3z"/>
		
			<ellipse id="XMLID_76_" transform="matrix(0.9969 7.889979e-02 -7.889979e-02 0.9969 32.3011 -34.5423)" fill="#E6E6E6" stroke="#CCCCCC" stroke-width="0.25" stroke-miterlimit="10" cx="453.3" cy="391.5" rx="2.4" ry="3.8"/>
		
			<ellipse id="XMLID_75_" transform="matrix(-9.080786e-02 0.9959 -0.9959 -9.080786e-02 882.2156 -25.1654)" fill="#E6E6E6" stroke="#CCCCCC" stroke-width="0.25" stroke-miterlimit="10" cx="452.6" cy="390.1" rx="1.4" ry="1"/>
		<path id="XMLID_74_" fill="#E6E6E6" stroke="#CCCCCC" stroke-width="0.25" stroke-miterlimit="10" d="M451.4,384.8
			c0,0,4.3-2.3,13.6,1.2l-2.3-2.3c0,0-11.3-3.5-13.6-1.2C446.9,384.8,451.4,384.8,451.4,384.8z"/>
		<path id="XMLID_73_" fill="#E6E6E6" stroke="#CCCCCC" stroke-width="0.25" stroke-miterlimit="10" d="M444,409.8c0,0,4,0.5,6.9-1
			c0,0-4.5,3.6-7,3.3L444,409.8z"/>
		<path id="XMLID_72_" fill="#E6E6E6" stroke="#CCCCCC" stroke-width="0.25" stroke-miterlimit="10" d="M450.9,358.9
			c-1.2,1-3,2.6-4.3,5.2c-2.5,5.2-1.2,10.2-0.8,11.5c0.1-1.3,0.6-4.3,2.6-7c1.3-1.7,2.7-2.7,3.8-3.3c-0.6,0.6-2,2-2.6,4.4
			c-0.8,3.7,1.3,6.5,1.5,6.9c-0.1-0.5-0.6-3.7,1.8-6.3c1.8-2,4-2.4,4.6-2.5c0.1,2.5,0.7,4.4,1.3,5.8c5,11.1,21.8,11.8,22.7,11.8
			c-0.8-0.2-2.6-1-4-2.7c-0.7-1-1.2-1.9-1.3-2.5c1.5,0.4,5.2,1.5,7.1,4.8c3,4.9,1.1,12.7-5.5,18.1c1,0.1,2.5,0.2,4.4-0.2
			c1.4-0.4,2.4-1,3.1-1.4c0,0.8-0.1,2-0.6,3.2c-0.7,2-1.9,3.3-2.6,4c1,0,3.3,0,5.7-1.3c1.5-1,2.6-2.1,3.1-2.9c0,0,1.4,6.9-2.1,8.1
			c2-0.6,4.9-1.5,7.5-3.7c7.6-6,8.2-15.6,8.3-17.4c0.7,0.5,1.5,1,2.6,1.3c1.3,0.6,2.6,1,3.6,1.2c0,0-5.2-3.7-5.7-7
			c0-0.2,0-0.6,0-0.8c0.4-3.6,3-25.8-17.6-32.4c0,0-9.6-4.2-14.2-3.6c0,0-7.5,2-11.5-2.6c0,0,1.5,3.8,4,4.6
			c-2.1,0.5-4.9,1.2-7.7,2.4C455.4,355.9,452.8,357.5,450.9,358.9z"/>
		<path id="XMLID_71_" fill="#E6E6E6" stroke="#CCCCCC" stroke-width="0.25" stroke-miterlimit="10" d="M494.7,414.1
			c-8.5,2.6-16.9,5.2-25.4,7.7c-0.5,3-0.8,6-1.3,9c-0.4,2.9-0.7,5.7-1,8.5c8.7,1,17.4,1.9,26.1,3c0-4.4,0.1-9,0.4-13.8
			C493.9,423.5,494.3,418.6,494.7,414.1z"/>
		<path id="XMLID_69_" fill="#E6E6E6" stroke="#CCCCCC" stroke-width="0.25" stroke-miterlimit="10" d="M444,788
			c-7.6,6.2-12.1,9.9-12.1,9.9s1.2-1,1.2-1.1c0,0,0,0-1.9,1.3l0,0c0,0-14.8,1.5-16.9,2.7c0,0,3.1,9.3,15.6,8.2
			c17.1-2.4,23.8-3.7,25.8-4.6c0.4-0.1,2.1-1.1,4.6-1.3c1.2-0.1,2.1,0,2.7,0c1.7-2.6,1.7-4.5,1.5-5.6
			C463.8,792.4,455.6,788.1,444,788z"/>
		<path id="XMLID_68_" fill="#E6E6E6" stroke="#CCCCCC" stroke-width="0.25" stroke-miterlimit="10" d="M443.5,795.2
			c-7.6,6.2-12.1,9.9-12.1,9.9s1.2-1,1.2-1.1c0,0,0,0-1.9,1.3l0,0c0,0-14.8,1.5-16.9,2.7c0,0,3.1,9.3,15.6,8.2
			c17.1-2.4,23.8-3.7,25.8-4.6c0.4-0.1,2.1-1.1,4.6-1.3c1.2-0.1,2.1,0,2.7,0c1.7-2.6,1.7-4.5,1.5-5.6
			C463.4,799.6,455.2,795.2,443.5,795.2z"/>
		<path id="XMLID_60_" fill="#E6E6E6" stroke="#CCCCCC" stroke-width="0.25" stroke-miterlimit="10" d="M436.5,794.1
			c6-29.4,8.1-45,8.6-53.8c0-1,0.1-3.2,0.7-3.3c1.5-0.2,5.2,17.9,12.5,54.1l0,0l-8.2,3.2C445.6,794.4,441,794.3,436.5,794.1z"/>
		<path id="XMLID_52_" fill="#E6E6E6" stroke="#CCCCCC" stroke-width="0.25" stroke-miterlimit="10" d="M449,567.6
			c8.1,6.5,16.2,13.1,24.3,19.6c3.2,11.4,6.2,25.7,7,42.5c1.3,26.4-3.1,48.3-7.4,63.3c0.1,19-0.6,39.8-2.4,61.7
			c-1.5,18.3-3.7,35.6-6.2,51.7c-2,0.1-6.1,0.1-10.6-1.9c-5.8-2.7-9-7.4-10.1-9.3c2.3-23.6,2.7-50.2-0.2-79.2
			c-0.6-6.2-1.3-12.1-2.3-18c0,0-15.4-48.8-19.5-84.9c-0.1-11.2-0.2-22.4-0.4-33.7C430.6,575.7,439.8,571.6,449,567.6z"/>
		<path id="XMLID_51_" fill="#E6E6E6" stroke="#CCCCCC" stroke-width="0.25" stroke-miterlimit="10" d="M522.2,412.9
			c1.3-5.8,3-12,5-18.5c5.1-15.8,8.5-18.8,11.1-25.2c0.6-1.4,1.1-3.2,2-7.1c2.9-11.7,5.1-26.5,6.2-31.9c0.1-0.6,0.4-1.5,0.7-2.6
			c0.7-2.4,1.5-4.2,1.7-4.5c1.7-3.6,6.1-23.2,3.9-24c-2.4-1.1-14.9,19.8-48,86c-3.1,3.6-6.3,7.7-9.5,12.1
			c-5.2,7.4-9.3,14.4-12.5,20.8c-3,0.5-7,1.3-11.7,3c-3.5,1.2-6.1,2.5-7.1,3c-0.2,0.1-0.5,0.2-0.6,0.2c-2.6,1.3-4.5,2.5-5.2,3
			c-0.1,0-0.2,0.1-0.4,0.2c-0.6,0.5-7.7,7.1-9.5,8.3c-3.2,2.7-4.6,6.1-5.7,8.6c-0.7,1.7-1.5,4.2-1.8,7.4c0.4,12.4,0.1,17.4-0.2,18.9
			c0,0.1-0.2,1.1-0.5,2.3c-0.4,1.7-0.4,2.6-0.5,3.3c-0.4,2.3-1.2,3.1-1.9,4.9c-1.2,3.2,0,4.4-0.2,10.8c0,0.4-0.1,3.1-0.5,5.2
			c-1.1,6.8-5.1,11.4-5.6,12.5c-2.3,4.9-3.3,21.2-0.5,66c5.2,0,12.9,0.7,21.4,3.6c10.5,3.6,17.9,8.9,22.3,12.6
			c5.2-33.6,11.1-54.6,15.6-68c2.7-8,4-12.6,7-21.7c4.4-13.6,7.3-25.4,9.2-34.3c2.4-11.3-2.3-15.7,0.5-26.4
			c1.7-6.3,4.2-11.2,6.2-14.4C516.3,422.7,519.3,417.8,522.2,412.9z"/>
		<path id="XMLID_1_" fill="#E6E6E6" stroke="#CCCCCC" stroke-width="0.25" stroke-miterlimit="10" d="M535.4,325.5
			c0.8,1,3.2-0.5,6.8,0.6c2.3,0.7,3.9,2,4.9,3.1c2-2.5,4-5,6.2-7.5c0.5-8.5,1.1-16.9,1.5-25.5c-1.4,1.4-4.9,5-7.7,9.4
			c-1.4,2.3-2.6,4.4-2.7,4.6c-0.7,1.3-1.2,2.5-1.8,3.6C535.6,322,534.7,324.7,535.4,325.5z"/>
		<path id="XMLID_2_" fill="#E6E6E6" stroke="#CCCCCC" stroke-width="0.25" stroke-miterlimit="10" d="M513.4,325.1
			c0.8,0.6,2.4-0.8,5.2-0.6c2.4,0.1,4.2,1.2,5.4,2.1c1.5-2.9,3.1-5.7,4.8-8.6c-1.1-8.5-2-16.9-3.1-25.2c-1.2,1.7-3.9,5.8-6,10.6
			c-1.1,2.5-1.8,4.9-1.9,5.1c-0.5,1.3-0.8,2.6-1.1,3.8C512.6,321.7,512.6,324.4,513.4,325.1z"/>
	</g>
	<g id="Ebene_6">
		<path id="XMLID_113_" fill="#E6E6E6" stroke="#CCCCCC" stroke-width="0.25" stroke-miterlimit="10" d="M392.6,372.9
			c-3,0.8-9.4,3.1-15,9.2c-7.6,8.2-8.6,17.7-8.7,20.6c0.2,3.5,0.8,6.3,1.3,8.2c1.1,4.3,2.4,6.3,1.3,8.7c-1.2,2.7-4,4.4-4,4.4
			l4.5,5.5c0.6,3.2,1.3,6.3,1.9,9.5c-0.1,1-0.2,3.9,1.8,6c1.1,1.1,2.5,1.7,6.2,1.8c5.8,0.1,10.5-1.2,12-1.7
			c6.2-1.9,8.7-3.2,12.4-4.5c4-1.4,9.9-3,17.5-3.2c-0.2-2.3-0.4-5.5,0.4-9.3c1.2-5.6,3.7-9.6,5.4-11.9c-0.5-6.9-1-13.8-1.4-20.8
			c-1.2-3.1-6.8-16.1-16.5-19.6c-1.3-0.5-4.3-1.3-7.7-2C399.2,372.9,395.3,372.8,392.6,372.9z"/>
		<path id="XMLID_112_" fill="#E6E6E6" stroke="#CCCCCC" stroke-width="0.25" stroke-miterlimit="10" d="M372,417.7
			c-0.4,0.7-0.7,1.5-1.2,2.3c-1.1,1.8-2.3,3.1-3.3,4l4.5,5.5C372,425.6,372,421.6,372,417.7z"/>
		
			<ellipse id="XMLID_111_" transform="matrix(0.9959 -9.078750e-02 9.078750e-02 0.9959 -36.1653 36.1325)" fill="#E6E6E6" stroke="#CCCCCC" stroke-width="0.25" stroke-miterlimit="10" cx="379.1" cy="415.6" rx="2.4" ry="3.8"/>
		
			<ellipse id="XMLID_110_" transform="matrix(7.887942e-02 0.9969 -0.9969 7.887942e-02 761.5075 4.5533)" fill="#E6E6E6" stroke="#CCCCCC" stroke-width="0.25" stroke-miterlimit="10" cx="378.3" cy="414.3" rx="1.4" ry="1"/>
		<path id="XMLID_109_" fill="#E6E6E6" stroke="#CCCCCC" stroke-width="0.25" stroke-miterlimit="10" d="M376.2,409.4
			c0,0,3.8-2.9,13.6-1.1l-2.5-1.8c0,0-11.8-1.4-13.6,1.1C371.9,410.1,376.2,409.4,376.2,409.4z"/>
		<path id="XMLID_108_" fill="#E6E6E6" stroke="#CCCCCC" stroke-width="0.25" stroke-miterlimit="10" d="M373.2,435.2
			c0,0,4-0.2,6.7-2c0,0-3.8,4.3-6.3,4.4L373.2,435.2z"/>
		<path id="XMLID_107_" fill="#E6E6E6" stroke="#CCCCCC" stroke-width="0.25" stroke-miterlimit="10" d="M371.4,383.9
			c-1.1,1.1-2.5,3.1-3.3,6c-1.7,5.5,0.6,10.2,1.2,11.4c-0.1-1.3-0.1-4.3,1.4-7.4c1-1.9,2.3-3.2,3.1-3.9c-0.5,0.6-1.7,2.3-1.8,4.8
			c-0.2,3.7,2.4,6.2,2.7,6.5c-0.1-0.5-1.2-3.6,0.7-6.5c1.4-2.3,3.6-3,4.2-3.2c0.5,2.4,1.4,4.2,2.3,5.6c6.8,10.1,23.5,8,24.4,7.7
			c-0.8-0.1-2.7-0.5-4.4-2c-0.8-0.8-1.4-1.7-1.8-2.3c1.7,0.1,5.4,0.7,7.9,3.6c3.7,4.3,3.2,12.4-2.4,18.7c1,0,2.6-0.1,4.3-1
			c1.3-0.6,2.3-1.3,2.9-1.9c0.1,0.8,0.2,2,0,3.3c-0.4,2.1-1.3,3.6-1.9,4.4c1-0.1,3.2-0.5,5.4-2.3c1.4-1.2,2.1-2.5,2.6-3.3
			c0,0,2.6,6.5-0.7,8.3c1.9-0.8,4.5-2.4,6.8-4.9c6.5-7.3,5.5-16.8,5.2-18.6c0.8,0.4,1.7,0.6,2.7,0.8c1.4,0.4,2.7,0.5,3.8,0.5
			c0,0-5.7-2.7-6.8-6c-0.1-0.2-0.1-0.5-0.1-0.8c-0.2-3.6-1.4-26-22.7-28.9c0,0-10.2-2.5-14.5-1.1c0,0-7.1,3.2-11.9-0.7
			c0,0,2.1,3.5,4.8,3.9c-2,0.8-4.6,2-7.3,3.7C375.2,380.2,373.1,382.2,371.4,383.9z"/>
		<path id="XMLID_106_" fill="#E6E6E6" stroke="#CCCCCC" stroke-width="0.25" stroke-miterlimit="10" d="M423.9,430.9
			c-7.9,4-15.8,8-23.7,12c0,3,0.1,6.1,0.2,9.2c0.1,2.9,0.2,5.7,0.5,8.5c8.7-0.5,17.5-1.1,26.2-1.5c-0.7-4.4-1.4-8.9-1.9-13.7
			C424.6,440.3,424.1,435.4,423.9,430.9z"/>
		<path id="XMLID_105_" fill="#E6E6E6" stroke="#CCCCCC" stroke-width="0.25" stroke-miterlimit="10" d="M401.4,466.5
			c-12.6,1.4-25.4,2.7-38,4.2l-54.1,18.5c-5,0.2-10,0.6-15,0.8c-4.3,4-8.5,8.1-12.7,12.3l98.7-16c10.4-5.5,20.7-10.8,31.1-16.3
			C408.2,468.7,404.8,467.6,401.4,466.5z"/>
		<path id="XMLID_104_" fill="#E6E6E6" stroke="#CCCCCC" stroke-width="0.25" stroke-miterlimit="10" d="M409.8,795.1
			c-7.5,6.3-12,10-12,10.1c0,0,1.2-1,1.2-1.1c0,0,0,0-1.9,1.3l0,0c0,0-14.8,1.8-16.8,3c0,0,3.3,9.2,15.7,8c17.1-2.6,23.8-4.2,25.8-5
			c0.4-0.1,2.1-1.1,4.6-1.3c1.2-0.1,2.1-0.1,2.7,0c1.7-2.6,1.7-4.5,1.4-5.6C429.6,799.3,421.4,795,409.8,795.1z"/>
		<path id="XMLID_103_" fill="#E6E6E6" stroke="#CCCCCC" stroke-width="0.25" stroke-miterlimit="10" d="M409.5,802.4
			c-7.5,6.3-12,10-12,10.1c0,0,1.2-1,1.2-1.1c0,0,0,0-1.9,1.3l0,0c0,0-14.8,1.8-16.8,3c0,0,3.3,9.2,15.7,8c17.1-2.6,23.8-4.2,25.8-5
			c0.4-0.1,2.1-1.1,4.6-1.3c1.2-0.1,2.1-0.1,2.7,0c1.7-2.6,1.7-4.5,1.4-5.6C429.4,806.4,421,802.2,409.5,802.4z"/>
		<path id="XMLID_102_" fill="#E6E6E6" stroke="#CCCCCC" stroke-width="0.25" stroke-miterlimit="10" d="M402.3,801.4
			c5.5-29.4,7.4-45.1,7.7-53.9c0-1,0.1-3.2,0.7-3.3c1.5-0.2,5.5,17.7,13.3,53.8l0,0l-8.1,3.3C411.4,801.4,406.9,801.4,402.3,801.4z"
			/>
		<path id="XMLID_101_" fill="#E6E6E6" stroke="#CCCCCC" stroke-width="0.25" stroke-miterlimit="10" d="M411.4,574.6
			c8.2,6.4,16.4,12.9,24.6,19.3c3.5,11.3,6.5,25.6,7.7,42.4c1.8,26.4-2.4,48.5-6.4,63.5c0.4,19,0,39.8-1.4,61.7
			c-1.2,18.3-3.1,35.7-5.5,51.8c-2,0.2-6.1,0.2-10.6-1.8c-6-2.6-9.2-7.3-10.2-9.2c1.9-23.7,1.9-50.2-1.4-79.2
			c-0.7-6.2-1.5-12.1-2.5-17.9c0,0-16.1-48.6-20.7-84.5c-0.2-11.2-0.6-22.4-0.8-33.7C393.1,582.9,402.2,578.8,411.4,574.6z"/>
		<path id="XMLID_100_" fill="#E6E6E6" stroke="#CCCCCC" stroke-width="0.25" stroke-miterlimit="10" d="M418.1,449
			c-4.6-0.4-9.9-0.4-15.5,0.1c-15.4,1.3-27.7,5.8-36.3,10.1c-10.6,3.2-18.7,6.2-24.4,8.3c-3.8,1.4-7.3,2.9-12.9,4.5
			c-3.5,1.1-7,1.9-14.3,3.6c-6.8,1.5-10.1,2.4-12.1,2.6c-3.6,0.5-9,1-15.7,0.2c-7.4,0.2-14.6,0.4-22,0.6c-1.3,3.8-2.6,7.5-3.8,11.3
			c1.1,1.1,2.6,2.3,4.5,3.3c6.7,3.5,13.5,1.5,15.5,1c2.1-1,5.2-2,8.9-2.1c1.9,0,3.2,0.2,3.6,0.2c3.5,0.6,13,0,36-3.8
			c22.1-1.9,32.7-3.7,37.5-5.4c1.2-0.5,4.9-1.8,8.3-0.2c0.5,0.2,3.2,1.4,4.5,4.2c1.2,2.7,1.2,8.1,2.1,9.5c0,0,0.1,0.1,0.2,0.2
			c0.2,0.6,0.1,1.4,1,5.5c0.4,1.7,0.7,3.8,1,4.5c0.4,1.8,0.5,1.9,0.6,2.7c0.1,0.5,0.4,1.7,0.6,4.5c0.2,2,0.4,3.1,0.4,3.6
			c0.1,2.9-0.7,5.1-1.1,6.1c-1.5,4.3-1.8,8.9-2.6,13.3c-1.1,5-0.7,15.4,4.6,38.6c6,4.4,12.6,9,20,13.6c11.8,7,23,12.4,33,16.3
			c0-21.4,0.8-44.1,2.6-67.6c0.6-7.6,1.3-15.2,2.1-22.6c1.3-14.3,1.5-26.3,1.4-35.5c-0.2-15.5-1.3-21.2-5.4-26
			c-5-6-12.4-7.7-16.8-8.5C421.8,447,420,447.9,418.1,449z"/>
	</g>
	<g id="Ebene_5">
		<path id="XMLID_50_" fill="#E6E6E6" stroke="#CCCCCC" stroke-width="0.25" stroke-miterlimit="10" d="M230.5,500.8
			c-0.2,3.1-0.5,10,3.1,17.4c4.9,10.1,13.5,14.4,16.1,15.6c3.3,1,6.2,1.4,8.1,1.8c4.4,0.6,6.8,0.1,8.6,1.9c2,2.1,2.6,5.4,2.6,5.4
			l6.8-2.3c3.2,0.6,6.3,1.1,9.5,1.7c0.8,0.4,3.6,1.7,6.2,0.5c1.3-0.6,2.5-1.8,3.9-5.2c2.3-5.5,2.6-10.2,2.9-11.9
			c0.5-6.4,0.2-9.3,0.4-13.2c0.1-4.3,0.8-10.2,3.3-17.5c-2.3-0.6-5.2-1.7-8.6-3.7c-4.9-3.1-7.7-7-9.2-9.3c-6.7-2-13.2-4.2-19.9-6.2
			c-3.3,0-17.4,0.5-24.3,8.3c-1,1.1-2.9,3.5-4.6,6.5C232.9,494.6,231.4,498.3,230.5,500.8z"/>
		<path id="XMLID_49_" fill="#E6E6E6" stroke="#CCCCCC" stroke-width="0.25" stroke-miterlimit="10" d="M264.7,536.3
			c0.6,0.6,1.2,1.2,1.7,1.9c1.3,1.7,2,3.3,2.5,4.6l6.8-2.3C272.1,539.1,268.4,537.7,264.7,536.3z"/>
		
			<ellipse id="XMLID_48_" transform="matrix(0.2772 -0.9608 0.9608 0.2772 -316.3906 637.1969)" fill="#E6E6E6" stroke="#CCCCCC" stroke-width="0.25" stroke-miterlimit="10" cx="265.3" cy="528.9" rx="2.4" ry="3.8"/>
		
			<ellipse id="XMLID_47_" transform="matrix(0.9574 0.2887 -0.2887 0.9574 164.018 -53.6712)" fill="#E6E6E6" stroke="#CCCCCC" stroke-width="0.25" stroke-miterlimit="10" cx="264" cy="529.2" rx="1.4" ry="1"/>
		<path id="XMLID_46_" fill="#E6E6E6" stroke="#CCCCCC" stroke-width="0.25" stroke-miterlimit="10" d="M258.5,529.4
			c0,0-1.3-4.6,3.9-13.1l-2.6,1.7c0,0-5.6,10.5-3.9,13.1C257.6,533.7,258.5,529.4,258.5,529.4z"/>
		<path id="XMLID_45_" fill="#EAA16E" d="M281.5,541.6c0,0,1.3-3.8,0.5-6.9c0,0,2.6,5.1,1.8,7.5L281.5,541.6z"/>
		<path id="XMLID_44_" fill="#E6E6E6" stroke="#CCCCCC" stroke-width="0.25" stroke-miterlimit="10" d="M232.9,524.6
			c0.7,1.3,1.9,3.5,4.3,5.2c4.5,3.6,9.8,3.2,11.1,3.1c-1.3-0.4-4-1.4-6.4-4c-1.4-1.7-2.1-3.2-2.6-4.4c0.4,0.7,1.5,2.4,3.8,3.5
			c3.5,1.5,6.7,0.1,7.1-0.1c-0.5,0-3.7-0.2-5.8-3c-1.5-2.1-1.5-4.4-1.4-5.1c2.4,0.4,4.4,0.2,6-0.1c11.9-2.6,16-19,16.2-20
			c-0.4,0.7-1.4,2.4-3.5,3.5c-1.1,0.6-2,0.7-2.7,0.8c0.7-1.4,2.6-4.8,6.2-6.1c5.4-1.9,12.6,1.5,16.5,8.9c0.4-1,0.8-2.5,0.7-4.4
			c-0.1-1.4-0.5-2.6-0.7-3.3c0.8,0.2,1.9,0.6,3.1,1.2c1.8,1.1,2.9,2.5,3.5,3.3c0.2-1,0.7-3.2-0.2-5.8c-0.6-1.8-1.5-3-2.3-3.7
			c0,0,7,0,7.5,3.7c-0.1-2.1-0.6-5.1-2.1-8.1c-4.3-8.7-13.6-11.2-15.4-11.7c0.6-0.6,1.2-1.3,1.8-2.3c0.8-1.2,1.4-2.4,1.9-3.3
			c0,0-4.6,4.4-8.1,4.2c-0.2,0-0.6-0.1-0.8-0.1c-3.5-1.1-24.6-8.1-35.2,10.7c0,0-6.1,8.6-6.3,13.2c0,0,0.5,7.9-4.9,10.8
			c0,0,4-0.7,5.4-3c0,2.3,0.1,5,0.8,8.1C230.9,519.6,232,522.5,232.9,524.6z"/>
		<path id="XMLID_43_" fill="#F7E9D7" d="M315,525c2.7-8.3,5.5-16.8,8.2-25.1c-5.6-0.7-11.9-2-18.7-3.9c-3.1-0.8-6-1.9-8.6-2.9
			c-2.3,7.7-4.6,15.6-6.9,23.3L315,525z"/>
		<path id="XMLID_42_" fill="#F9DCC7" d="M295.8,492.8c0.8,8.8,1.7,17.6,2.5,26.4c2.7,1.1,5.6,2,8.6,3.1c2.7,1,5.4,1.8,8.1,2.6
			c2.7-8.3,5.4-16.7,8.1-25c-4.3-1-8.8-1.9-13.5-3.1C304.8,495.4,300.2,494.1,295.8,492.8z"/>
		<path id="XMLID_41_" fill="#E6E6E6" stroke="#CCCCCC" stroke-width="0.25" stroke-miterlimit="10" d="M266.6,548.1
			c-2.1,12.4-4.2,24.6-6.3,37l-2.5,57l-6.9,13.5l7.5,17l13.7-98.1c-0.5-11.5-1.1-23.2-1.5-34.8C269.4,542.5,267.9,545.2,266.6,548.1
			z"/>
		<path id="XMLID_40_" fill="#E6E6E6" stroke="#CCCCCC" stroke-width="0.25" stroke-miterlimit="10" d="M362.7,801.8
			c-8.2,5.4-13.1,8.6-13.1,8.6s1.3-0.8,1.3-1c0,0,0,0-2.1,1.1l0,0c0,0-14.9,0-17,1c0,0,2.1,9.5,14.6,9.8c17.4-0.6,24.2-1.3,26.2-2
			c0.4-0.1,2.3-0.8,4.8-0.8c1.2,0,2.1,0.1,2.7,0.2c1.9-2.4,2.1-4.3,2.1-5.4C382,808.2,374.2,803,362.7,801.8z"/>
		<path id="XMLID_39_" fill="#E6E6E6" stroke="#CCCCCC" stroke-width="0.25" stroke-miterlimit="10" d="M361.5,808.9
			c-8.2,5.4-13.1,8.6-13.1,8.6s1.3-0.8,1.3-1c0,0,0,0-2.1,1.1l0,0c0,0-14.9,0-17,1c0,0,2.1,9.5,14.6,9.8c17.4-0.6,24.2-1.3,26.2-2
			c0.4-0.1,2.3-0.8,4.8-0.8c1.2,0,2.1,0.1,2.7,0.2c1.9-2.4,2.1-4.3,2.1-5.4C380.8,815.3,373.1,810.1,361.5,808.9z"/>
		<path id="XMLID_38_" fill="#E6E6E6" stroke="#CCCCCC" stroke-width="0.25" stroke-miterlimit="10" d="M354.6,807.1
			c8.9-28.6,12.6-43.9,14-52.6c0.1-1,0.5-3.2,1.1-3.2c1.5,0,3.3,18.3,6.9,55l0,0l-8.5,2.4C363.5,808.2,359.1,807.7,354.6,807.1z"/>
		<path id="XMLID_37_" fill="#E6E6E6" stroke="#CCCCCC" stroke-width="0.25" stroke-miterlimit="10" d="M390.2,582.9
			c7.4,7.4,14.8,14.8,22.1,22c2,11.7,3.6,26.2,2.6,43c-1.3,26.4-8,47.9-13.9,62.3c-1.9,18.9-4.6,39.4-8.7,61.1
			c-3.5,18.1-7.4,35-11.5,50.8c-2,0-6.1-0.5-10.4-3c-5.6-3.3-8.2-8.3-9.2-10.4c4.6-23.2,7.9-49.6,7.9-78.8c0-6.2-0.1-12.1-0.4-18.1
			c0,0-10.2-50.1-10.7-86.4c1.1-11.2,2.1-22.4,3.1-33.5C371,589.1,380.7,586,390.2,582.9z"/>
		<path id="XMLID_36_" fill="#E6E6E6" stroke="#CCCCCC" stroke-width="0.25" stroke-miterlimit="10" d="M294.5,498.7
			c-3.8,3-7.5,6.4-11.1,10.8c-18.3,22.6-16.7,51-15.6,61.2c-0.7,1.3-1.8,3.3-2.7,6c-1.5,3.9-1.3,5.2-2.4,8.3
			c-1.9,5.5-3.8,5.7-5.6,10.4c-0.8,2.3-1.7,5.8-1.2,10.7c-0.5,11.7-1.1,23.3-1.5,34.9c-0.7,3.9-1.3,8-2,11.9c0.4,3,2.7,19.4,6,19.4
			c2.9,0,5-13.8,5.6-17.5c1.2-4.3,2.3-8.9,3.2-13.9c1.4-8.1,2.1-15.6,2.4-22.3c3.8-9.3,8-18.9,12.7-28.9c4.3-9.2,8.7-17.9,13.1-26
			c3-4.6,5-5.5,6.3-5.4c0.8,0.1,0.8,0.6,4.8,3.3c1.4,1.1,3.2,2.1,3.8,2.6c1.5,1.1,1.7,1.1,2.4,1.5c0.4,0.2,1.3,1,3.6,2.7
			c1.4,1.2,2,1.7,2.7,2.3c2.3,2,3.5,3.8,4.4,4.9c3,3.2,5.5,5.6,7.1,7.3c8.3,8.3,18.1,18,29.3,29c7-1.7,15-3.2,23.8-4.2
			c10.8-1.2,20.7-1.5,29.4-1.2c-4.3-17.6-13.6-45.5-35.7-72.5c-9.8-11.9-19.9-21.1-28.8-28c-3.6-1.9-7.6-3.7-11.9-5.4
			c-15-5.8-29-7.9-40.1-8.3C295.7,494.7,295.1,496.7,294.5,498.7z"/>
		<polygon id="XMLID_35_" fill="#E6E6E6" stroke="#CCCCCC" stroke-width="0.25" stroke-miterlimit="10" points="252.5,649.4 
			249.6,657.6 259.2,673.9 259.8,660.8 		"/>
		<path id="XMLID_34_" fill="#E6E6E6" stroke="#CCCCCC" stroke-width="0.25" stroke-miterlimit="10" d="M266.9,640
			c-1.1-0.6-2.9,1.5-6.5,1.8c-2.4,0.1-4.3-0.6-5.6-1.2c-1.1,3.1-2.1,6.1-3.3,9.2c2.4,8.2,4.8,16.3,7,24.5c0.8-1.8,2.9-6.3,4.2-11.4
			c0.6-2.6,1.1-5.1,1.1-5.4c0.2-1.4,0.4-2.7,0.5-3.9C267.9,643.3,267.8,640.4,266.9,640z"/>
	</g>
	<g id="Ebene_1_1_">
		<path id="XMLID_62_" fill="#F7E9D7" d="M157.2,649.9c2.1,2.3,7,7,14.9,9.4c10.7,3.2,19.8-0.2,22.4-1.3c3-1.8,5.2-3.6,6.8-4.8
			c3.5-2.9,4.6-5,7.1-5c3-0.1,5.7,1.7,5.7,1.7l3-6.5c2.5-1.9,5.1-3.9,7.6-5.8c0.8-0.4,3.7-1.5,4.5-4.2c0.5-1.4,0.4-3-1.2-6.3
			c-2.5-5.4-5.7-8.8-6.9-10.1c-4.4-4.8-6.7-6.4-9.5-9.2c-3-3-7-7.5-10.6-14.3c-1.9,1.3-4.8,2.7-8.5,3.8c-5.6,1.4-10.4,1-13.1,0.5
			c-6,3.5-12,7-18,10.5c-2.1,2.5-11.4,13.2-10.2,23.5c0.1,1.4,0.7,4.4,1.7,7.9C154.1,643.9,155.9,647.5,157.2,649.9z"/>
		<path id="XMLID_61_" fill="#F9DCC7" d="M206.4,648.5c0.8,0,1.7,0,2.6,0c2,0.2,3.8,0.7,5.1,1.2l3-6.5
			C213.5,645,210,646.8,206.4,648.5z"/>
		
			<ellipse id="XMLID_59_" transform="matrix(-0.5211 -0.8535 0.8535 -0.5211 -242.5307 1149.989)" fill="#4A8FD3" cx="201.4" cy="643" rx="2.4" ry="3.8"/>
		
			<ellipse id="XMLID_58_" transform="matrix(0.8597 -0.5108 0.5108 0.8597 -301.0076 192.8816)" fill="#FFFFFF" cx="200.6" cy="644.4" rx="1.4" ry="1"/>
		<path id="XMLID_57_" fill="#E0AA73" d="M197.1,648.4c0,0-4.3-2.1-7-11.8l-0.5,3.1c0,0,3.9,11.2,7,11.8
			C199.7,652,197.1,648.4,197.1,648.4z"/>
		<path id="XMLID_56_" fill="#EAA16E" d="M221.6,639.7c0,0-1.9-3.6-4.8-5.1c0,0,5.6,1.5,6.8,3.7L221.6,639.7z"/>
		<path id="XMLID_55_" fill="#E0AA73" d="M176.4,664c1.4,0.5,3.9,1,6.8,0.4c5.7-1,8.9-5,9.8-6.1c-1.2,0.7-3.8,2-7.3,2
			c-2.1,0-3.8-0.6-5-1.1c0.8,0.1,2.9,0.5,5-0.5c3.5-1.4,4.5-4.9,4.8-5.4c-0.4,0.4-2.7,2.6-6.2,2.3c-2.6-0.2-4.3-1.9-4.8-2.4
			c1.9-1.5,3.2-3.1,3.9-4.5c6.1-10.6-3.2-24.5-3.8-25.4c0.2,0.8,0.8,2.6,0.1,4.9c-0.4,1.2-0.8,2-1.3,2.6c-0.6-1.5-1.8-5.1-0.2-8.6
			c2.3-5.2,9.6-8.3,17.9-6.2c-0.5-0.8-1.3-2.3-2.7-3.5c-1.1-1-2.1-1.4-3-1.7c0.7-0.5,1.7-1.1,3-1.4c2-0.6,3.8-0.5,4.8-0.4
			c-0.5-0.8-1.9-2.7-4.4-3.8c-1.7-0.7-3.2-0.8-4.2-0.8c0,0,4.8-5.2,7.7-3c-1.7-1.3-4.2-3-7.4-3.9c-9.4-2.7-17.5,2.5-18.9,3.5
			c-0.1-0.8-0.2-1.8-0.5-2.9c-0.4-1.4-0.7-2.6-1.2-3.6c0,0,0.1,6.3-2.4,8.7c-0.2,0.2-0.4,0.4-0.6,0.5c-3.1,1.8-22.6,12.7-15.8,33.2
			c0,0,2.3,10.2,5.5,13.6c0,0,6.1,5,4.6,11c0,0,2.1-3.5,1.4-6c1.7,1.5,3.8,3.2,6.5,4.9C171.4,662.1,174.1,663.3,176.4,664z"/>
		<path id="XMLID_54_" fill="#F7E9D7" d="M232,603.9c-4.3-7.6-8.7-15.4-13-23c-4.4,3.7-9.5,7.5-15.5,11.1c-2.7,1.7-5.4,3.1-7.9,4.4
			c4.2,6.9,8.3,13.9,12.5,20.8L232,603.9z"/>
		<path id="XMLID_53_" fill="#F9DCC7" d="M195.3,596.2c7,5.4,14.2,10.6,21.2,16c2.6-1.3,5.4-2.7,8.1-4.3c2.5-1.4,5-2.7,7.4-4.2
			c-4.3-7.6-8.6-15.2-13-22.9c-3.6,2.6-7.4,5.1-11.4,7.7C203.4,591.4,199.4,593.9,195.3,596.2z"/>
	</g>
	<g id="Ebene_4">
		<polygon id="XMLID_6_" fill="#97C3CE" points="201.3,652.8 213.9,691.8 213.9,748.8 207.6,762.5 215.8,779.3 225.2,680.6 
			208.9,646.5 		"/>
		<path id="XMLID_33_" fill="#747575" d="M330.6,805.3c-8.2,5.4-13.1,8.6-13.1,8.6s1.3-0.8,1.3-1c0,0,0,0-2.1,1.1l0,0
			c0,0-14.9,0-17,1c0,0,2.1,9.5,14.6,9.8c17.4-0.6,24.2-1.3,26.2-2c0.4-0.1,2.3-0.8,4.8-0.8c1.2,0,2.1,0.1,2.7,0.2
			c1.9-2.4,2.1-4.3,2.1-5.4C349.8,811.8,342.1,806.5,330.6,805.3z"/>
		<path id="XMLID_32_" fill="#898989" d="M329.4,812.5c-8.2,5.4-13.1,8.6-13.1,8.6s1.3-0.8,1.3-1c0,0,0,0-2.1,1.1l0,0
			c0,0-14.9,0-17,1c0,0,2.1,9.5,14.6,9.8c17.4-0.6,24.2-1.3,26.2-2c0.4-0.1,2.3-0.8,4.8-0.8c1.2,0,2.1,0.1,2.7,0.2
			c1.9-2.4,2.1-4.3,2.1-5.4C348.7,818.9,340.9,813.7,329.4,812.5z"/>
		<path id="XMLID_9_" fill="#9FA0A0" d="M322.5,810.7c8.9-28.6,12.6-43.9,14-52.6c0.1-1,0.5-3.2,1.1-3.2c1.5,0,3.3,18.3,6.9,55l0,0
			l-8.5,2.4C331.4,811.8,327,811.3,322.5,810.7z"/>
		<path id="XMLID_4_" fill="#C1C1C1" d="M358.1,586.5c7.4,7.4,14.8,14.8,22.1,22c2,11.7,3.6,26.2,2.6,43c-1.3,26.4-8,47.9-13.9,62.3
			c-1.9,18.9-4.6,39.4-8.7,61.1c-3.5,18.1-7.4,35-11.5,50.8c-2,0-6.1-0.5-10.4-3c-5.6-3.3-8.2-8.3-9.2-10.4
			c4.6-23.2,7.9-49.6,7.9-78.8c0-6.2-0.1-12.1-0.4-18.1c0,0-10.2-50.1-10.7-86.4l7.9-31.9L358.1,586.5z"/>
		<path id="XMLID_5_" fill="#A0CFE0" d="M198.8,601.2c0,5,0.1,10.1,0.5,15.5c1.8,26.5,8.7,49.2,15.8,67c0,19.2,0,38.5,0,57.6
			c0,0.6,0,1.1,0,1.7c-1.7,3.9-3.5,7.9-5.1,11.8l5.1,24.6c0,0,7-13.2,7.4-22.5c0,0,3.6-4,3.5-12.9l8.2-63v-58.6
			c4.8,2.9,11.3,5.8,17,8.7c5.5,0.5,11.3,0.7,17.4,0.8c7.6,0.1,13.2-0.1,16.8-0.4c11.8-0.6,25.5-1.2,41.3-1.9
			c3.6-6.3,7.9-13.2,13-20.4c6.4-8.8,12.9-16.3,18.9-22.5c-15.8-8.8-42.7-20.7-77.6-22.6c-15.4-0.8-28.9,0.5-40.1,2.4
			c-3.8,1.4-7.9,3.1-11.9,5.1c-14.5,7.1-25.4,16.1-33.2,24C196.7,597.6,197.8,599.4,198.8,601.2z"/>
		<polygon id="XMLID_12_" fill="#EFD6C5" points="211.1,754.6 207.6,762.6 215.8,779.6 217.5,766.6 		"/>
		<path id="XMLID_11_" fill="#F7E9D7" d="M226.1,746.3c-1-0.7-3,1.3-6.7,1.2c-2.4-0.1-4.3-1-5.5-1.7c-1.3,3-2.6,6-4,8.8
			c1.7,8.3,3.3,16.7,5,25c1-1.8,3.5-6.1,5-11c0.8-2.5,1.4-5,1.4-5.2c0.4-1.4,0.6-2.7,0.7-3.9C227,749.7,227.1,747,226.1,746.3z"/>
	</g>
</g>
<g id="turn-head">
	<g id="Ebene_3">
		<path id="XMLID_86_" fill="#6D6D6D" d="M880.2,620.2c-10.5,7-15.5,16.4-17.3,20c-6.8,13.9-5.4,26.8-4.5,31.5
			c6.4,5.6,15.4,11.7,26.9,15.8c39.2,13.8,75.6-7.6,82.1-11.7c1.1-4.4,4.9-21.3-4.5-37.3c-5.8-9.9-13.8-14.6-18.5-17.5
			C927.4,611.1,900.5,606.5,880.2,620.2z"/>
		<rect id="XMLID_85_" x="858.4" y="659.8" fill="#6D6D6D" width="8.7" height="149.8"/>
		<rect id="XMLID_84_" x="959.4" y="658.9" fill="#6D6D6D" width="8.3" height="151.6"/>
		<rect id="XMLID_83_" x="877.2" y="624.1" fill="#6D6D6D" width="8.3" height="147"/>
		<rect id="XMLID_82_" x="939.1" y="619.6" fill="#6D6D6D" width="8.3" height="151.6"/>
		<path id="XMLID_81_" fill="#444444" d="M857.8,671.7c5.6,4.5,27,21.2,58.6,20.4c26.9-0.6,45.5-13.5,51.8-18.3
			c0.2-3.1,0.6-6.2,1-9.4c-8.5,5-27.1,14.5-52.9,14.9c-29.4,0.4-50.6-11.5-58.8-16.8C857.7,665.5,857.8,668.6,857.8,671.7z"/>
	</g>
	<g id="Ebene_2">
		<rect id="XMLID_80_" x="906.6" y="527.9" fill="#F7E7D7" width="11.9" height="17.3"/>
		<path id="XMLID_79_" fill="#F7E7D7" d="M906.6,543.8l-16.5,0.4c0,0,0.2,32.5,22.1,27.1c21.8-5.4,20.2-8.5,23.2-27.5H906.6z"/>
		<path id="XMLID_67_" fill="#D35959" d="M896.5,799c0,0,4.8,9,10.2,0.8l3.3,15.4l5.2,6c0,0,5.4,11.3-7.4,10.7s-20.2-16.4-20.2-16.4
			s3.8-11.5,0-18.7s2.9-16.4,2.9-16.4L896.5,799z"/>
		<path id="XMLID_66_" fill="#D35959" d="M931.4,797.8c0,0-4.8,9-10.2,0.8l-3.3,15.4l-5.2,6c0,0-5.4,11.3,7.4,10.7
			c12.9-0.6,20.2-16.4,20.2-16.4s-3.8-11.5,0-18.7c3.8-7.1-2.9-16.4-2.9-16.4L931.4,797.8z"/>
		<path id="XMLID_65_" fill="#F4DED3" d="M938.5,543.8c0,0,4.4,0.8,9.9,7.1c0,0-1.2,65.1,9.5,108l8.5,13.1L955.2,683l2.4-13.1
			l-5.1-2.4C952.5,667.6,930.2,611.3,938.5,543.8z"/>
		<path id="XMLID_64_" fill="#C1C1C1" d="M879.8,628.5l64.6-0.2c0,0,10.1,45,10.1,45.4c-0.8,14.6,0-0.4,0-0.4s-32.1-5.5-83.1-0.2
			C871.5,673,879.4,636.3,879.8,628.5z"/>
		<path id="XMLID_63_" fill="#F7E7D7" d="M871.5,679.8c0,0-4-14.8,9.2-16.9c0.8-0.4,2.4-0.8,4.4-1.2c1-0.1,4-0.6,7.4,0.2
			c6,1.4,9.5,6.1,10.6,7.5c3.3,18.6,6.1,40.4,6.8,64.9c0.7,24.8-0.7,46.8-3.1,65.6c-1.5,2.7-3.1,4-4.6,4.2
			C893.2,804.2,883,762.8,871.5,679.8z"/>
		<path id="XMLID_31_" fill="#F4DED3" d="M954.6,680.5c0,0,3.8-14.6-9.4-16.7c-1.4-0.6-6.1-2.3-11.8-0.7c-5.6,1.4-8.8,5.1-9.8,6.3
			c-3.3,18.6-6,40.7-6.3,65.6c-0.4,24.6,1.4,46.6,4,65c1.3,2.3,2.6,3.5,4,3.5C933.8,803.9,943.5,762.8,954.6,680.5z"/>
		<path id="XMLID_30_" fill="#F7E7D7" d="M886,543.8c0,0-4.4,0.8-9.9,7.1c0,0,1.2,65.1-9.5,108l-8.5,13.1l11.3,11.1l-2.4-13.1
			l5.1-2.4C872.1,667.6,894.4,611.3,886,543.8z"/>
		<path id="XMLID_29_" fill="#D35959" d="M890.1,544c0,1,0.5,12.5,10.4,18.9c7.4,4.8,17.1,4.8,24.9-0.1c1.3-1,3-2.5,4.4-4.5
			c4-6,3.3-12.5,3-14.5h6c0,0-3,78.6,6,84.5c-21.5,0.1-43.1,0.1-64.6,0.2c3-9.8,5.7-22.1,6.9-36.7c1.5-19.4-0.5-36-2.9-48.1
			L890.1,544z"/>
		<rect id="XMLID_28_" x="912.1" y="526.7" fill="#F4DED3" width="6.3" height="17.3"/>
		<path id="XMLID_27_" fill="#F4DED3" d="M912.3,543.8v22.6c0,0,16.9,1.3,20-14.8c3.2-16.1,0-0.5,0-0.5s1.4-4.5,0.2-7.4H912.3
			L912.3,543.8z"/>
	</g>
	<g id="Ebene_1_2_">
		<path id="XMLID_26_" fill="#F7E7D7" d="M931.6,513.7c-1,1.4-16.2,23.1-35.7,18.7c-16.3-3.7-22.9-22.6-24.3-33.5
			c-2.7-21.5,11.4-43.8,27.4-48.2c7.7-2.1,15.7-0.2,15.7-0.2s8.1,1.9,14.3,7.5C941.4,469.1,944,495.7,931.6,513.7z"/>
		<path id="XMLID_25_" fill="#F4DED3" d="M896,447.6c-0.7,28.7-1.3,57.5-2,86.2c4.3,0,12-0.4,20.2-3.3c9.4-3.5,14.4-8.5,17.4-11.7
			c10.6-11.1,11.2-22.7,11.3-27c0.2-4.5,0.8-18.8-12.1-30.8c-2.5-2.3-7.4-6.8-16.2-10C907,448,900.1,447.6,896,447.6z"/>
		
			<ellipse id="XMLID_24_" transform="matrix(-9.988424e-03 -1 1 -9.988424e-03 423.5962 1399.0428)" fill="#3A91CC" cx="904.4" cy="489.8" rx="3.5" ry="3"/>
		
			<ellipse id="XMLID_23_" transform="matrix(-9.988424e-03 -1 1 -9.988424e-03 400.3917 1376.7834)" fill="#3A91CC" cx="881.7" cy="490.2" rx="3.5" ry="3"/>
		<circle id="XMLID_18_" fill="#FFFFFF" cx="904.7" cy="489" r="1.4"/>
		<circle id="XMLID_10_" fill="#FFFFFF" cx="882.1" cy="489.3" r="1.4"/>
		<polygon id="XMLID_14_" fill="#EDBFAB" points="891.6,499 887.4,505.8 891.7,509.9 		"/>
		<path id="XMLID_16_" fill="#F4DED3" d="M967.7,530.8"/>
		<path id="XMLID_17_" fill="#DD9480" d="M888.4,518.2c3.9,0.4,7.9,0.6,11.8,1c-0.7,0.8-2.1,1.9-3.9,2.4
			C892.1,522.6,888.9,518.8,888.4,518.2z"/>
		<path id="XMLID_15_" fill="#DD9480" d="M898.5,480.8c0,0,10.1-2.6,16.5,1.3c0,0-14.3-1-15.1,0.1
			C899.8,482.2,898.2,482.4,898.5,480.8z"/>
		<path id="XMLID_13_" fill="#DD9480" d="M887.6,480.9c0,0-10.1-2.4-16.5,1.7c0,0,14.3-1.2,15.1-0.1
			C886.3,482.4,888,482.6,887.6,480.9z"/>
		
			<ellipse id="XMLID_19_" transform="matrix(0.3394 -0.9406 0.9406 0.3394 181.9408 1158.6553)" fill="#CE8A7A" cx="915.9" cy="449.8" rx="6.5" ry="9.8"/>
		<path id="XMLID_20_" fill="#CE8A7A" d="M915.2,443.9c0,0,30.1,1.3,38.6,29.3c0,0,0.6,6.1,7.1,8.7c0,0-23.2,12.3-35-6.9l-2.7-7.1
			C923,467.8,922.1,457.3,915.2,443.9z"/>
		<path id="XMLID_21_" fill="#E56D55" d="M912.1,445.9c0,0,8.7-3,12.5-1.9c0,0-0.8,2.6-1.9,3.1c0,0,1.8,1.9,1.9,2.9
			C924.6,450.1,914.8,445.9,912.1,445.9z"/>
		<path id="XMLID_22_" fill="#E56D55" d="M913.8,447.2c0,0-7.6-4.2-11.1-4.6c0,0,0.1,1.7,0.8,2.5c0,0-2.6,1-3.3,2.4
			C900.2,447.4,908.8,446.1,913.8,447.2z"/>
		<path id="XMLID_8_" fill="#DD9480" d="M892.4,459.5c0,0,2.5,19.6,24.9,20.5c-2.4,2.7-6.3,7.9-8.5,15.5
			c-3.1,11.5,0.1,21.2,1.4,24.6c1.9,2.5,5.4,7.9,5.4,14.9c0,1.5-0.2,3.1-0.5,4.4c0,0-0.8,3.3-3.8,3.3c0,0-2.7,1.4-5-2.4
			c0,0,0.8,3.9,5,5.1c0.4,0.1,0.6,0.1,1.1,0.2c1.2,0.2,3.9,0.7,6.8-0.4c0.8-0.4,1.7-0.8,3.3-2c1.3-0.8,2.3-1.7,3-2.1
			c1.1-0.8,2.3-1.9,3.3-3c3.2-3.1,6.2-7.6,6.9-8.9c21.8-36.3,6.2-62.3,6.2-62.3c-2.5-4.2-8.1-11.9-20.2-17.9c-5.1-2-15-5-25.8-1.5
			c-18.1,5.8-26.4,25.8-27.1,40.2c-0.4,6.8,1.1,12,2,15.4c4,14.9,13,24.4,17.9,28.9c2.6,1.9,3.3,4.8,2.5,6.2c-1,1.7-4.2,1.5-4.5,1.4
			c-1,0-1.5-0.2-2-0.4c-2-0.6-3.3-1.7-4-2.5c1.2,1.7,3.3,4.3,6.7,5.6c1.2,0.5,2.1,0.6,2.5,0.7c3,0.5,5.5-0.6,6.2-1
			c4.2-1.9,7.5-6.5,6.4-8.2c-0.6-1-2-0.1-6.5-1.3c-1.9-0.5-3.5-1.2-4.4-1.5c0,0-1.8-0.8-3.3-1.9c-2.4-1.5-13.2-12.7-15-27.9
			C870.3,477.8,890.8,460.7,892.4,459.5z"/>
		<path id="XMLID_7_" fill="none" stroke="#808080" stroke-miterlimit="10" d="M849.2,518.8c-2,1-5.2,3-7.7,6.5
			c-4.4,6.3-3.5,13.5-3,16.7c2.4,17.6,23.1,27.1,25,28c5.1,2.1,59.3,23.3,97-6c5.6-4.4,12.5-11.2,18.5-21.5"/>
		<path id="XMLID_3_" fill="#808080" d="M840.3,518c1,0.4,2,0.7,3.3,1.1c2.1,0.5,4,0.4,5.4,0.2c-0.2,1-0.5,2.3-0.4,3.9
			c0.1,2.4,1,4,1.5,5c0.8-1.9,1.7-4,2.3-6.4c0.7-2.4,1.2-4.6,1.4-6.7c-1.7-0.2-4.2-0.5-7.3,0.2C843.8,516,841.6,517.2,840.3,518z"/>
	</g>
</g>
<g>
	<rect x="362.8" y="10" fill="#FFFFFF" width="482.4" height="132.7"/>
	<rect x="377.5" y="24.9" fill="none" width="453" height="105"/>
	<text transform="matrix(1 0 0 1 397.5918 61.6898)"><tspan x="0" y="0" font-family="'CenturyGothic'" font-size="50">Deine Übung am </tspan><tspan x="111.2" y="60" font-family="'CenturyGothic'" font-size="50">Morgen</tspan></text>
</g>
<g>
	<rect x="116.5" y="153.8" fill="#F9C0C0" width="482.4" height="132.7"/>
	<rect x="107.1" y="180.9" fill="none" width="453" height="105"/>
	<text transform="matrix(1 0 0 1 210.5375 210.3295)"><tspan x="0" y="0" font-family="'CenturyGothic'" font-size="40">1. Mobilisiere  </tspan><tspan x="-23" y="48" font-family="'CenturyGothic'" font-size="40">deinen Rücken</tspan></text>
</g>
<g>
	<rect x="658" y="153.8" fill="#F9C0C0" width="482.4" height="132.7"/>
	<rect x="684.3" y="179.9" fill="none" width="453" height="105"/>
	<text transform="matrix(1 0 0 1 787.6909 209.3295)"><tspan x="0" y="0" font-family="'CenturyGothic'" font-size="40">2. Mobilisiere  </tspan><tspan x="-27.2" y="48" font-family="'CenturyGothic'" font-size="40">deinen Nacken</tspan></text>
</g>
</g>
	<text id="close" x="1200" y="20" font-family="'CenturyGothic'" font-size="40">X</text>
</svg>
