<svg id="uebung-abend" version="1.1" id="Ebene_1" xmlns="http://www.w3.org/2000/svg" xmlns:xlink="http://www.w3.org/1999/xlink" x="0px" y="0px"
	 viewBox="0 0 1208 841.9" enable-background="new 0 0 1208 841.9" xml:space="preserve">
<g >
<g>
	<rect x="362.8" y="10" fill="#FFFFFF" width="482.4" height="132.7"/>
	<rect x="377.5" y="24.9" fill="none" width="453" height="105"/>
	<text transform="matrix(1 0 0 1 397.5918 61.6898)"><tspan x="0" y="0" font-family="'CenturyGothic'" font-size="50">Deine Übung am </tspan><tspan x="122.2" y="60" font-family="'CenturyGothic'" font-size="50">Abend</tspan></text>
</g>
<g>
	<rect x="116.5" y="153.8" fill="#F9C0C0" width="482.4" height="132.7"/>
	<rect x="107.1" y="180.9" fill="none" width="453" height="105"/>
	<text transform="matrix(1 0 0 1 246.1722 210.3295)"><tspan x="0" y="0" font-family="'CenturyGothic'" font-size="40">1. Dehne  </tspan><tspan x="-62.8" y="48" font-family="'CenturyGothic'" font-size="40">deinen Nacken</tspan></text>
</g>
<g>
	<rect x="658" y="153.8" fill="#F9C0C0" width="482.4" height="132.7"/>
	<rect x="684.3" y="179.9" fill="none" width="453" height="105"/>
	<text transform="matrix(1 0 0 1 823.3257 209.3295)"><tspan x="0" y="0" font-family="'CenturyGothic'" font-size="40">2. Dehne </tspan><tspan x="-58.7" y="48" font-family="'CenturyGothic'" font-size="40">deinen Rücken</tspan></text>
</g>
<g>
	<g id="Ebene_4">
		<path id="XMLID_27_" fill="#3F3F3F" d="M805.1,622.9l95.9,27.3c0,0,12-11,16.5-13.6l56.5-31.8c-2.8-17.5-5-36.3-6.8-56.1
			c-2.3-26-3.1-50.5-2.9-73c-10.1-0.3-20-0.5-30-0.8C891.1,524.1,848.1,573.6,805.1,622.9z"/>
		<path id="XMLID_29_" fill="#3F3F3F" d="M894.4,648.1v115.2c2.4,1.1,4.9,2.3,7.3,3.6c2.4-1.3,4.9-2.6,7.3-3.7
			c-0.2-40.4-0.2-80.8-0.3-121.2C903.9,643.8,899.1,646,894.4,648.1z"/>
		<path id="XMLID_28_" fill="#3F3F3F" d="M959.3,604.3v115.2c2.4,1.1,4.9,2.3,7.3,3.6c2.4-1.3,4.9-2.6,7.3-3.7
			c0-38.4-0.2-76.7-0.2-115.2C968.8,604.1,964.1,604.3,959.3,604.3z"/>
		<path id="XMLID_30_" fill="#3F3F3F" d="M845.7,573.4v115.2c2.4,1.1,4.9,2.3,7.3,3.6c2.4-1.3,4.9-2.6,7.3-3.7
			c-0.2-40.4-0.2-80.8-0.3-121.2C855.3,569.2,850.4,571.3,845.7,573.4z"/>
		<path id="XMLID_31_" fill="#3F3F3F" d="M797,615.6v115.2c2.4,1.1,4.9,2.3,7.3,3.6c2.4-1.3,4.9-2.6,7.3-3.7
			c-0.2-40.4-0.2-80.8-0.3-121.2C806.6,611.4,801.7,613.5,797,615.6z"/>
		<polygon id="XMLID_35_" fill="#353535" points="901,650.7 805.1,624.5 806.1,611.1 901,636.7 972.7,597.3 973.9,608.8 		"/>
	</g>
	<g id="Ebene_2">
		<rect id="XMLID_23_" x="904.4" y="423.7" fill="#F7E7D7" width="16.2" height="23.5"/>
		<path id="XMLID_33_" fill="#F7E7D7" d="M893.6,442.4c-6.3,1.9-12.8,3.7-19.1,5.7c1.8,16.7,9.4,30.5,20.8,34.2
			c4.7,1.5,9.4,1.1,13.6,0.6c4.9-0.5,16.5-1.8,24.8-11c1.9-2.1,4.9-6,6.7-12c-4.4-3.6-10.7-7.9-18.8-11.4
			C910.3,443.8,900.2,442.5,893.6,442.4z"/>
		<rect id="XMLID_34_" x="909.3" y="423.7" fill="#F4DED3" width="11.4" height="23.5"/>
		<path id="XMLID_36_" fill="#F4DED3" d="M909,445.3v36.7c1.6,0.2,12.8,1,21.3-1c5-1.1,7.8-3.1,8.8-3.6c0.3-0.2,1.6-1.1,2.9-2.4
			c4.2-4.4,5.2-10.1,5.5-12.8c-1.1-1.8-2.8-3.6-4.5-5.4c-4.7-4.7-9.6-7.3-13.1-8.9C922.8,446.9,915.8,446.1,909,445.3z"/>
		<path id="XMLID_26_" fill="#3F3F3F" d="M813.3,743.3c0,0-29.4,20.8-31.3,21.3c0,0-11.5,11,7.9,13.3c0,0,17.7-4.4,26.3-10.9
			c0,0,5.5-6.8,12.5-4.4l7.1-0.8c0,0,1-1.6,1.5-3.6l-0.5-13L813.3,743.3z"/>
		<path id="XMLID_22_" fill="#AAAAAA" d="M853.8,561l-63.6,49.8c0,0-5.2,8.1-2.4,15.4L810.2,743c0,0,21.4,5.2,26.8,2.4l-6.8-113.2
			l16.5-7.3l7.1,127c0,0,14.9,4.9,27.3,0l9.7-121.7l45.1-19.5c0,0,9.4-14.8,7.8-29.2C942.1,567.1,853.8,561,853.8,561z"/>
		<path id="XMLID_20_" fill="#F4DED3" d="M938.8,457.9c15.6,2.9,32.4,5.4,50.8,7.3c26.9,2.8,51.6,3.4,73.5,2.9l7.1-3.4
			c-0.2,0.3-0.5,1-0.5,1.6c-0.3,1.9,1,3.6,1.3,4.1c4.7,1,9.2,2.1,14,3.1c1.1,2.6,2.4,5.4,3.6,7.9c-3.4,1.8-6.8,3.4-10.4,5.2
			c-7.5-1.8-14.8-3.7-22.2-5.5c-23.5,0.2-46.9,0.3-70.4,0.5c-15.6-0.8-31.3-1.8-46.9-2.6C938.8,471.9,938.8,464.9,938.8,457.9z"/>
		<path id="XMLID_18_" fill="#56BFAD" d="M894.5,442c0,0-5.7,41.5,36,5.7c8.3,2.8,16.4,5.5,24.7,8.1c-0.6,9.4-1.3,19-1.9,28.4
			c-4.9,0.2-9.7,0.3-14.6,0.3c1.6,32.3,3.2,64.6,4.9,97c-10.5,0.6-22.4,0.6-35.4-0.5c-24.8-2.1-45.9-7.8-62.1-13.5
			c8.6-30.7,17.2-61.5,25.6-92.1c-5.2-1.6-10.4-3.1-15.6-4.7c-0.6-0.2-1.1-0.3-1.8-0.5c6.3-7.9,12.7-15.9,19-23.8
			C880.4,445,887.4,443.5,894.5,442z"/>
		<path id="XMLID_25_" fill="#3F3F3F" d="M855.4,749.8c0,0-29.4,20.8-31.3,21.3c0,0-11.5,11,7.9,13.3c3.1-0.6,6.3-1.6,9.9-2.9
			c5.5-2.1,10.1-4.5,13.6-6.8c1.1-1.1,3.2-2.9,6.3-4.2c3.7-1.5,7-1.5,8.8-1.3l7.1-0.8c0,0,1-1.6,1.5-3.6l-0.5-13L855.4,749.8z"/>
		<path id="XMLID_21_" fill="#F7E7D7" d="M855.3,470.6c-1,16.7-1.9,33.4-2.9,50.1c0,0,2.1,5.2,6,6.7l57.3,6.5l10.5,0.8l14.9,5
			L952,536l-0.6-6.5l-18.8-5c0,0,0.6-5,2.3-5.5l-7.8,3.2c0,0-57.9-11.5-61-11.4c2.6-11.8,5.2-23.5,7.6-35.4
			C867.6,473.7,861.4,472.2,855.3,470.6z"/>
	</g>
	<g id="Ebene_1_1_">
		<path id="XMLID_1_" fill="#F7E7D7" stroke="#F4E4D0" stroke-miterlimit="10" d="M946.9,406.2c-1.1,1.6-19.6,26.8-43.8,21.3
			c-20.1-4.5-28.7-26.9-30.5-39.6c-3.7-25.3,13.5-51.3,32.9-56.1c9.6-2.4,19.3,0,19.3,0s10.1,2.4,17.8,9.1
			C958.1,354.1,961.9,385.3,946.9,406.2z"/>
		<path id="XMLID_3_" fill="#F4DED3" d="M899.4,332.7c-0.6,31-1.3,61.8-1.9,92.8c3.7,1.5,12.2,4.2,22.1,1.6c7-1.8,12-5.7,14.4-7.6
			c3.7-2.9,6-5.7,7.8-7.8c2.6-3.1,6.5-7.8,8.9-14.8c2.3-6.5,2.3-11.8,2.3-16.1c0-4.1-0.3-14-6.2-24.7c-3.9-7.3-8.6-11.5-9.6-12.3
			c-4.1-3.7-7.9-5.7-10.4-6.8c-2.8-1.5-6.8-3.4-12.3-4.5C908.8,331.4,903.5,331.9,899.4,332.7z"/>
		
			<ellipse id="XMLID_7_" transform="matrix(-9.988424e-03 -1 1 -9.988424e-03 550.0759 1294.7189)" fill="#649977" cx="916" cy="375.1" rx="4.7" ry="4.1"/>
		
			<ellipse id="XMLID_8_" transform="matrix(-9.988424e-03 -1 1 -9.988424e-03 518.4576 1264.3882)" fill="#649977" cx="885.1" cy="375.5" rx="4.7" ry="4.1"/>
		<circle id="XMLID_11_" fill="#FFFFFF" cx="916.4" cy="373.9" r="1.9"/>
		<circle id="XMLID_12_" fill="#FFFFFF" cx="885.6" cy="374.4" r="1.9"/>
		<polygon id="XMLID_14_" fill="#EDBFAB" points="898.6,385.9 892.9,395.2 898.7,400.8 		"/>
		<path id="XMLID_16_" fill="#F4DED3" d="M1002.2,430.8"/>
		<path id="XMLID_17_" fill="#DD9480" d="M889.5,407.7c2.1,0.6,4.9,1.5,7.9,1.8c3.1,0.5,6,0.5,8.3,0.3c-1.3,0.6-3.1,1.5-5.5,1.6
			C894.5,411.7,890.5,408.5,889.5,407.7z"/>
		<path id="XMLID_15_" fill="#725044" d="M908,362.7c0,0,13.8-3.6,22.5,1.8c0,0-19.5-1.3-20.6,0.2C909.8,364.7,907.5,365,908,362.7z
			"/>
		<path id="XMLID_13_" fill="#725044" d="M893.1,362.9c0,0-13.8-3.2-22.5,2.3c0,0,19.5-1.6,20.6-0.2
			C891.3,365,893.7,365.1,893.1,362.9z"/>
	</g>
	<g id="Ebene_3">
		<path id="XMLID_19_" fill="#725044" d="M931.8,350.5c-1.9,1.5-4.5,2.9-7.6,3.9c-12.7,4.1-24.3-3.7-26.4-5.2
			c-0.6-0.6-1.9-1.8-4.1-2.4c-2.4-0.6-4.4-0.2-5.2,0c-1.5,0.6-3.1,1.3-4.7,2.4c-8.3,6-9.4,16.4-9.6,19.3
			c1.3-19.3,12.7-35.5,28.9-41.2c15.6-5.4,29.8,1.1,31.8,1.9c3.1,1.5,11.5,5.5,17.5,15.2c5.5,9.1,5.5,18,5.5,25.1
			c0,12-3.6,21.9-6.7,28.4c0.6-4.1,1.3-10.4-0.8-17.8c-0.8-2.9-1.9-5.5-3.1-7.5c-3.2-2.9-7.3-7.3-11-13.1
			C934.4,356.4,933,353.3,931.8,350.5z"/>
	</g>
</g>
<g>
	<g id="Ebene_3_1_">
		<path id="XMLID_64_" fill="#6D6D6D" d="M316.4,530.5c-13.4,9-19.8,21-22.1,25.6c-8.7,17.8-6.8,34.2-5.8,40.3
			c8.2,7.2,19.6,14.9,34.4,20.2c50.1,17.7,96.6-9.7,105-14.9c1.4-5.6,6.2-27.2-5.8-47.6c-7.5-12.6-17.7-18.7-23.6-22.4
			C376.9,519,342.5,513,316.4,530.5z"/>
		<rect id="XMLID_63_" x="288.6" y="581.2" fill="#6D6D6D" width="11.1" height="191.5"/>
		<rect id="XMLID_62_" x="417.6" y="580" fill="#6D6D6D" width="10.7" height="193.7"/>
		<rect id="XMLID_61_" x="312.6" y="535.6" fill="#6D6D6D" width="10.7" height="188"/>
		<rect id="XMLID_60_" x="391.8" y="529.8" fill="#6D6D6D" width="10.7" height="193.7"/>
		<path id="XMLID_59_" fill="#444444" d="M287.8,596.4c7.2,5.8,34.5,27.1,74.9,26c34.4-0.8,58.1-17.2,66.2-23.4
			c0.3-4,0.8-7.9,1.2-12c-10.8,6.4-34.7,18.6-67.6,19c-37.6,0.5-64.7-14.8-75.2-21.5C287.7,588.5,287.8,592.5,287.8,596.4z"/>
	</g>
	<g id="Ebene_2_1_">
		<rect id="XMLID_58_" x="350.2" y="412.6" fill="#F7E7D7" width="15.2" height="22.1"/>
		<path id="XMLID_57_" fill="#F7E7D7" d="M350.2,432.8l-21.2,0.5c0,0,0.3,41.5,28.3,34.7c27.9-6.8,25.9-10.8,29.7-35.2H350.2z"/>
		<path id="XMLID_56_" fill="#D35959" d="M337.3,759.1c0,0,6.1,11.6,13.1,1.1l4.3,19.6l6.7,7.6c0,0,6.8,14.5-9.4,13.7
			c-16.3-0.8-25.9-21-25.9-21s4.9-14.8,0-23.9c-4.9-9.1,3.7-21,3.7-21L337.3,759.1z"/>
		<path id="XMLID_55_" fill="#D35959" d="M381.9,757.6c0,0-6.1,11.6-13.1,1.1l-4.3,19.6l-6.7,7.6c0,0-6.8,14.5,9.4,13.7
			c16.4-0.8,25.9-21,25.9-21s-4.9-14.8,0-23.9c4.9-9.1-3.7-21-3.7-21L381.9,757.6z"/>
		<path id="XMLID_54_" fill="#F4DED3" d="M391,432.8c0,0,5.6,1.1,12.6,9.1c0,0-1.5,83.2,12.2,138l10.8,16.7l-14.3,14.2l3-16.7
			l-6.5-3C408.8,591.1,380.4,519.1,391,432.8z"/>
		<path id="XMLID_53_" fill="#C1C1C1" d="M316,541.2l82.6-0.3c0,0,12.9,57.5,12.9,58c-1.1,18.7,0-0.5,0-0.5s-41.1-7-106.2-0.3
			C305.3,598.1,315.4,551.1,316,541.2z"/>
		<path id="XMLID_52_" fill="#F7E7D7" d="M305.3,606.8c0,0-5.2-18.9,11.7-21.6c1.1-0.5,3-1.1,5.6-1.5c1.2-0.2,5.2-0.8,9.4,0.3
			c7.6,1.8,12.2,7.8,13.5,9.6c4.3,23.7,7.8,51.6,8.7,82.9c0.9,31.7-0.9,59.8-4,83.9c-2,3.5-4,5.2-5.9,5.3
			C333,765.8,320.1,712.9,305.3,606.8z"/>
		<path id="XMLID_51_" fill="#F4DED3" d="M411.6,607.7c0,0,4.9-18.7-12-21.3c-1.8-0.8-7.8-2.9-15.1-0.9c-7.2,1.8-11.3,6.5-12.5,8.1
			c-4.3,23.7-7.6,52-8.1,83.9c-0.5,31.5,1.8,59.5,5.2,83.1c1.7,2.9,3.3,4.4,5.2,4.4C384.9,765.4,397.4,712.9,411.6,607.7z"/>
		<path id="XMLID_50_" fill="#CE8A7A" d="M312.3,344.7c0,0-35.2,15.5-32.4,52.7c0,0,2,7.5-4.4,13.5c0,0,33.3,4,38.7-24.4v-9.7
			C314,376.7,310.3,364.1,312.3,344.7z"/>
		<path id="XMLID_49_" fill="#F7E7D7" d="M323.6,435.7c-4.3-5.3-8.5-10.8-12.9-16.1c-5.2-6.4-10.3-12.6-15.5-18.9l12.9-58.9l-11.6,4
			l-2.1,12l-18.7,41.7c0,0-0.3,1.2-0.2,2.9c0.2,2.4,1.5,4.3,2,5c2.1,2.9,21,26,47.3,57.8C324.5,455.4,324,445.6,323.6,435.7z"/>
		<path id="XMLID_48_" fill="#D35959" d="M329.1,433.1c0,1.2,0.6,16,13.2,24.2c9.4,6.1,21.9,6.1,31.8-0.2c1.7-1.2,3.8-3.2,5.6-5.8
			c5.2-7.6,4.3-16,3.8-18.6h7.6c0,0-3.8,100.4,7.6,108.1c-27.5,0.2-55.1,0.2-82.6,0.3c3.8-12.5,7.3-28.3,8.8-46.9
			c2-24.8-0.6-46-3.7-61.5L329.1,433.1z"/>
		<rect id="XMLID_47_" x="357.2" y="411.1" fill="#F4DED3" width="8.1" height="22.1"/>
		<path id="XMLID_43_" fill="#F4DED3" d="M357.5,432.8v28.9c0,0,21.6,1.7,25.6-18.9c4.1-20.5,0-0.6,0-0.6s1.8-5.8,0.3-9.4H357.5
			L357.5,432.8z"/>
		<path id="XMLID_45_" display="none" fill="none" stroke="#808080" stroke-miterlimit="10" d="M276.9,400.9
			c-2.6,1.2-6.7,3.8-9.9,8.4c-5.6,8.1-4.4,17.2-3.8,21.3c3,22.5,29.5,34.7,32,35.8c6.5,2.7,75.8,29.8,124-7.6
			c7.2-5.6,16-14.3,23.6-27.5"/>
		<path id="XMLID_46_" display="none" fill="#808080" d="M265.5,400c1.2,0.5,2.6,0.9,4.3,1.4c2.7,0.6,5.2,0.5,6.8,0.3
			c-0.3,1.2-0.6,2.9-0.5,5c0.2,3,1.2,5.2,2,6.4c1.1-2.4,2.1-5.2,2.9-8.2c0.9-3,1.5-5.9,1.8-8.5c-2.1-0.3-5.3-0.6-9.3,0.3
			C269.9,397.4,267.1,398.9,265.5,400z"/>
	</g>
	<g id="Ebene_1_2_">
		<path id="XMLID_42_" fill="#F7E7D7" d="M385.8,377c0.2,1.8,1.8,32.1-18.9,42.2c-17.3,8.4-36.8-3.8-45.7-12.5
			c-17.8-17.3-20.9-47.2-9.6-62.4c5.5-7.5,14-11.4,14-11.4s8.7-4.1,18.3-3.5C362.9,330.4,384,352.2,385.8,377z"/>
		<path id="XMLID_41_" fill="#F4DED3" d="M326.3,333.3c13.1,28.9,26,57.8,39.1,86.7c3.2-1.5,8.2-4.6,12.6-10
			c5.8-7.2,7.2-14.5,7.9-18.9c2.6-14.8-2.4-26.6-4.3-31c-2-4.6-8.2-19-23.4-26.3c-2.9-1.4-8.7-4.1-16.7-4.1
			C334.7,330,329.4,331.9,326.3,333.3z"/>
		
			<ellipse id="XMLID_40_" transform="matrix(-0.4208 -0.9072 0.9072 -0.4208 174.6956 844.4783)" fill="#3A91CC" cx="356.9" cy="366.5" rx="4.4" ry="3.8"/>
		
			<ellipse id="XMLID_39_" transform="matrix(-0.4208 -0.9072 0.9072 -0.4208 126.3876 838.0015)" fill="#3A91CC" cx="330.7" cy="378.7" rx="4.4" ry="3.8"/>
		<circle id="XMLID_38_" fill="#FFFFFF" cx="356.8" cy="365.4" r="1.8"/>
		<circle id="XMLID_37_" fill="#FFFFFF" cx="330.6" cy="377.6" r="1.8"/>
		<polygon id="XMLID_32_" fill="#EDBFAB" points="347,380.5 345.7,390.5 352.8,393.1 		"/>
		<path id="XMLID_24_" fill="#F4DED3" d="M428.8,388.1"/>
		<path id="XMLID_10_" fill="#DD9480" d="M350.7,406.4c4.6-2.1,9.1-4.3,13.7-6.4c-0.3,1.4-1.1,3.5-2.9,5.2
			C357.4,408.9,351.6,406.7,350.7,406.4z"/>
		<path id="XMLID_9_" fill="#DD9480" d="M345.4,359c0,0,10.3-8.4,19.9-7.2c0,0-17.2,6.5-17.7,8.2C347.6,359.9,345.7,361.2,345.4,359
			z"/>
		<path id="XMLID_6_" fill="#DD9480" d="M332.7,365c0,0-13.1,2.4-18.4,10.7c0,0,16-8.8,17.7-8.2C332,367.4,334.1,366.6,332.7,365z"
			/>
		
			<ellipse id="XMLID_5_" transform="matrix(-0.4452 -0.8954 0.8954 -0.4452 173.6872 769.9884)" fill="#CE8A7A" cx="325.4" cy="331.2" rx="8.4" ry="12.5"/>
		<path id="XMLID_4_" fill="#E56D55" d="M325,327.5c0,0,8.7-8.1,13.7-8.8c0,0,0.3,3.5-0.6,4.6c0,0,3,1.4,3.7,2.4
			C341.7,325.9,328.2,326,325,327.5z"/>
		<path id="XMLID_2_" fill="#E56D55" d="M325.9,327.2c0,0-11,1.2-15.1,3.3c0,0,1.4,1.7,2.7,2c0,0-2,2.9-1.7,4.9
			C311.9,337.4,319.9,329.8,325.9,327.2z"/>
		<path id="XMLID_44_" fill="#CE8A7A" d="M316.1,353.7c0,0,15.1,2.7,34.2-9.3c0,0,6.4,2.7,12.5,7.6c0.3,0.3,8.8,8.7,10.5,20.9
			c0.5,3.8,0.5,8.4,0.5,9.3c0,3.5-0.3,6.4-0.6,8.5c0.5,5.5,2.3,8.4,3.3,9.7c0.8,1.1,2.9,3.2,4.3,4.7c0.9,0.9,1.7,1.7,2.1,2.1
			c0.3,0.3,1.2,1.4,1.2,2.9c0.2,1.1-0.2,2-0.3,2.4c-0.3,0.3-0.8,0.9-1.5,1.2c-1.2,0.8-2.3,0.8-2.9,0.8c-0.3-0.2-2-0.5-2.9-2
			c-0.5-0.8-0.6-1.5-0.6-2c-0.3,0.6-0.8,1.5-0.9,2.7c-0.3,2.4,0.8,4.3,1.2,4.9c0.8,0.6,2.7,2.1,5.6,2.1c3,0,5.2-1.5,6.1-2.4
			c1.2-1.1,2.1-2.3,2.9-3.3c7.9-11.4,3-26.9,1.4-31.4c0,0-12.3-63-57.2-57.4c0,0-15.8,1.7-25.1,13.5c0,0-21,21.8,2.7,64.2
			c0.2,0.3,0.5,0.8,0.9,1.7c11.4,19.9,17.3,30,26.5,32.3c2,0.5,5,0.9,9.3,0c0.9-0.2,3.7-0.8,5.8-3.3c1.2-1.4,1.7-2.9,1.8-3.8
			c0.2-0.5,0.8-2.6-0.3-4.7c-1.2-2.7-4-3.5-4.3-3.7c0.2,0.3,1.1,2.1,0.3,4c-0.5,1.1-1.2,1.7-1.4,1.8c-0.3,0.2-1.1,0.8-2.4,0.9
			c-1.1,0.2-1.8-0.2-2.3-0.3c-0.9-0.5-2.4-1.2-3-2.9c-0.5-0.9-0.9-2,0-4.4c0.5-1.4,0.9-3,0.9-5c0-7-5.2-11.7-6.4-12.8
			c-3.5-2.1-23.9-15.1-23.3-32.7c0-1.7,0.3-3.3,0.8-5.3c0,0,0,0-0.8,3.7C314.8,369.4,320.5,362.5,316.1,353.7z"/>
	</g>
</g>
</g>
	<text id="close" x="1200" y="20" font-family="'CenturyGothic'" font-size="40">X</text>
</svg>
