<svg version="1.1" id="Objects" xmlns="http://www.w3.org/2000/svg" xmlns:xlink="http://www.w3.org/1999/xlink" x="0px" y="0px"
	 viewBox="454 38.3 115.9 526.6" style="enable-background:new 454 38.3 115.9 526.6;" xml:space="preserve">

            <g id="cactus-body" style="transform: translate(0,<?php echo (100-$percent_antwort4-20) ?>%);">
                <g>
                		<path class="st0" d="M531.1,148.4l-0.4-17.2h-0.1c0,0,3.7-0.2,7.4-2.3c4.5-2.6,7.2-6.9,8-13.2c0.7-4.7,5-8,9.7-7.3
                			c4.7,0.7,8,5,7.3,9.7C559.8,141.5,540.7,148.1,531.1,148.4z"/>
                	</g>
                	<path class="st1" d="M559.1,109.5c0.2,0.9,0.2,1.9,0.1,2.9c-2.9,20.8-18.1,27-28.3,28.6l0.2,7.3c9.6-0.2,28.7-6.9,31.9-30.4
                		C563.5,114.5,561.9,111.3,559.1,109.5z"/>
                	<g>
                		<path class="st0" d="M515.6,389c-12.1,0-21.9-6.4-21.9-26.7V75.1c0-20.3,5.4-36.7,21.9-36.7c15,0,21.9,16.4,21.9,36.7v287.2
                			C537.5,382.6,527.7,389,515.6,389z"/>
                	</g>
                	<g>
                		<path class="st1" d="M498.3,195.1c-9.5,0-26.8-5.7-32.6-21c-4.4-11.5-2.8-23.8-2.7-24.4c0.6-4.2,4.5-7.2,8.7-6.6s7.2,4.5,6.6,8.7
                			c0,0.1-1.1,9,1.9,16.8c2.7,7.1,12.4,11,18.1,11c4.3,0,7.7,3.5,7.7,7.7C506.1,191.7,502.6,195.1,498.3,195.1z"/>
                	</g>
                	<path class="st1" d="M506.6,354.7V74c0-16,6.5-29.9,15.4-34.4c-2.3-1-4.2-1-6.5-1.2c-14.8-1.1-21.9,15.9-21.9,35.6v280.7
                		c0,19.6,9.8,25.6,21.9,25.6c2.2,0,4.4-0.6,6.5-1.6C513.1,374.3,506.6,370.7,506.6,354.7z"/>
                	<line class="st2" x1="534.7" y1="81.8" x2="540.3" y2="81.8"/>
                	<line class="st2" x1="527.2" y1="66.5" x2="528.6" y2="66.5"/>
                	<line class="st2" x1="529.9" y1="95.7" x2="531.3" y2="95.7"/>
                	<line class="st2" x1="526.8" y1="118.4" x2="528.1" y2="118.4"/>
                	<line class="st2" x1="511.9" y1="109.2" x2="513.4" y2="108.9"/>
                	<line class="st2" x1="512.5" y1="174.6" x2="513.9" y2="174.6"/>
                	<line class="st2" x1="525.3" y1="149.2" x2="526.7" y2="149.2"/>
                	<line class="st2" x1="519.5" y1="161" x2="520.9" y2="161"/>
                	<line class="st2" x1="517" y1="194.3" x2="518.4" y2="194.3"/>
                	<line class="st2" x1="515.4" y1="140.6" x2="516.7" y2="140.6"/>
                	<line class="st2" x1="513.7" y1="124.7" x2="515.1" y2="124.7"/>
                	<line class="st3" x1="476.9" y1="181.1" x2="478.2" y2="180.3"/>
                	<line class="st3" x1="471.5" y1="162.6" x2="471.7" y2="164.1"/>
                	<line class="st3" x1="498.3" y1="105.5" x2="499.7" y2="105.5"/>
                	<line class="st3" x1="499.1" y1="84.4" x2="500.5" y2="84.4"/>
                	<line class="st3" x1="501.1" y1="53.4" x2="502.2" y2="54.1"/>
                	<line class="st3" x1="509.4" y1="42.2" x2="510.2" y2="43.4"/>
                	<line class="st3" x1="500.6" y1="158.2" x2="502" y2="158.2"/>
                	<line class="st3" x1="499.7" y1="188.7" x2="501.1" y2="188.6"/>
                	<line class="st2" x1="520.1" y1="50" x2="521" y2="48.9"/>
                	<line class="st2" x1="490.7" y1="67" x2="496.2" y2="67"/>
                	<line class="st2" x1="535.4" y1="109.2" x2="541" y2="109.2"/>
                	<line class="st2" x1="527.8" y1="171.2" x2="533.3" y2="171.2"/>
                	<line class="st2" x1="490.6" y1="203.7" x2="496.1" y2="203.7"/>
                	<line class="st2" x1="535" y1="193.6" x2="540.5" y2="193.6"/>
                	<line class="st2" x1="490.9" y1="113.4" x2="496.4" y2="113.4"/>
                	<line class="st2" x1="491.8" y1="96.1" x2="497.4" y2="96.1"/>
                	<line class="st2" x1="460.5" y1="172.4" x2="466.5" y2="172.4"/>
                	<line class="st2" x1="559.9" y1="126.5" x2="566.2" y2="126.5"/>
                	<line class="st2" x1="475.5" y1="157.7" x2="481.5" y2="157.7"/>
                	<line class="st2" x1="459.7" y1="152.6" x2="465.8" y2="152.6"/>
                	<line class="st2" x1="498.5" y1="41.9" x2="501.8" y2="46.4"/>
                	<line class="st2" x1="527.7" y1="54.6" x2="532.1" y2="51.2"/>
                	<line class="st2" x1="548.2" y1="146.4" x2="546.2" y2="140.4"/>
                	<line class="st2" x1="478.3" y1="194.7" x2="481.8" y2="189.8"/>
                	<path class="st4" d="M505.3,83.3c0.2,5.3,4.6,9.6,10,9.6c5.4,0,9.8-4.3,10-9.6H505.3L505.3,83.3z"/>
                	<circle class="st5" cx="504.1" cy="76.8" r="2.5"/>
                	<circle class="st5" cx="526" cy="76.8" r="2.5"/>
                	<path class="st6" d="M512.2,85.1c0,1.4,0.8,2.5,1.8,2.5c0.5,0,1-0.3,1.3-0.8c0.3,0.5,0.8,0.8,1.3,0.8c1,0,1.8-1.1,1.8-2.5
                		c0-0.2,0-0.4-0.1-0.6h-6C512.2,84.7,512.2,84.9,512.2,85.1z"/>
                	<line class="st2" x1="523.5" y1="205" x2="524.9" y2="205"/>
                	<line class="st2" x1="536.8" y1="218.7" x2="542.3" y2="218.7"/>
                	<line class="st3" x1="500.1" y1="206.6" x2="501.4" y2="206.5"/>
                	<line class="st2" x1="533.2" y1="247.3" x2="538.7" y2="247.3"/>
                	<line class="st2" x1="491" y1="227.3" x2="496.5" y2="227.3"/>
                	<path class="st2" d="M535,312.1h5.5H535z"/>
                	<line class="st2" x1="518.2" y1="231.3" x2="519.5" y2="231.3"/>
                	<line class="st3" x1="500.9" y1="225.6" x2="502.2" y2="225.6"/>
                	<line class="st2" x1="524.7" y1="262" x2="526.1" y2="262"/>
                	<line class="st3" x1="498.3" y1="251.5" x2="499.6" y2="251.5"/>
                	<line class="st2" x1="526.8" y1="298.5" x2="528.1" y2="298.5"/>
                	<line class="st2" x1="515.4" y1="248.2" x2="516.7" y2="248.2"/>
                	<line class="st2" x1="517.7" y1="340.7" x2="519.1" y2="340.7"/>
                	<line class="st3" x1="499.4" y1="336.1" x2="500.8" y2="336"/>
                	<line class="st2" x1="526.8" y1="283.9" x2="528.2" y2="283.9"/>
                	<line class="st2" x1="517.8" y1="320.7" x2="519.1" y2="320.7"/>
                	<line class="st2" x1="510.8" y1="279.9" x2="512.2" y2="279.9"/>
                	<line class="st2" x1="511.4" y1="300.7" x2="512.8" y2="300.7"/>
                	<path class="st2" d="M537,274.1h5.5H537z"/>
                	<line class="st2" x1="528.7" y1="330.7" x2="530.1" y2="330.7"/>
                	<line class="st3" x1="498.4" y1="313.1" x2="499.8" y2="313"/>
                	<line class="st3" x1="500.4" y1="285.1" x2="501.8" y2="285"/>
                	<line class="st3" x1="501.3" y1="135.5" x2="502.7" y2="135.5"/>
                	<line class="st2" x1="489" y1="270.3" x2="494.5" y2="270.3"/>
                	<line class="st2" x1="491" y1="300.3" x2="496.5" y2="300.3"/>
                	<line class="st2" x1="489" y1="345.3" x2="494.5" y2="345.3"/>
                	<line class="st2" x1="511.7" y1="351.7" x2="513.1" y2="351.7"/>
                	<line class="st2" x1="490.4" y1="357.4" x2="495.9" y2="357.4"/>
                	<line class="st2" x1="525.3" y1="362.2" x2="526.7" y2="362.2"/>
                	<line class="st3" x1="498.5" y1="366.5" x2="499.9" y2="366.5"/>
                </g>
                <rect x="454" y="305.4" class="st7" width="115.9" height="259.5"/>
                <g id="topf">
                	<polygon class="st8" points="560.9,312.8 463,312.8 481,389.5 542.9,389.5 	"/>
                	<polygon class="st9" points="468.1,334.4 555.8,334.4 560.9,312.8 463,312.8 	"/>
                	<polygon class="st10" points="569.9,301.9 454,301.9 458.1,322 565.8,322 	"/>
                	<g id="LABEL">
                		<path class="st7" d="M545,369.7c-21.7-2.7-43.8-2.7-65.5,0c-1.3-9.9-2.5-19.8-3.8-29.7c24.2-3.1,48.8-3.1,73,0
                			C547.5,349.8,546.3,359.8,545,369.7z"/>
                			<text x="495" y="360" font-family="Century Gothic" font-size="12" font-weight="bold"> <?php echo round($percent_antwort4, 1)?>% </text>
                	</g>
                </g>
</svg>