<?xml version="1.0" encoding="utf-8"?>
<!-- Generator: Adobe Illustrator 18.1.1, SVG Export Plug-In . SVG Version: 6.00 Build 0)  -->
<svg version="1.1" id="Objects" xmlns="http://www.w3.org/2000/svg" xmlns:xlink="http://www.w3.org/1999/xlink" x="0px" y="0px"
	 viewBox="659 38.4 185.3 841.8" enable-background="new 659 38.4 185.3 841.8" xml:space="preserve">
<g id="cactus-body">
	<g>
		<path fill="#51A529" d="M782.3,214.3l-0.6-27.5h-0.2c0,0,5.9-0.3,11.8-3.7c7.2-4.2,11.5-11,12.8-21.1c1.1-7.5,8-12.8,15.5-11.7
			c7.5,1.1,12.8,8,11.7,15.5C828.1,203.3,797.6,213.8,782.3,214.3z"/>
	</g>
	<path fill="#3E8916" d="M827,152.1c0.3,1.4,0.3,3,0.2,4.6c-4.6,33.3-28.9,43.2-45.2,45.7l0.3,11.7c15.3-0.3,45.9-11,51-48.6
		C834.1,160.1,831.5,155,827,152.1z"/>
	<g>
		<path fill="#51A529" d="M757.5,599c-19.3,0-35-10.2-35-42.7V97.1c0-32.5,8.6-58.7,35-58.7c24,0,35,26.2,35,58.7v459.2
			C792.5,588.7,776.8,599,757.5,599z"/>
	</g>
	<g>
		<path fill="#3E8916" d="M729.8,289c-15.2,0-42.8-9.1-52.1-33.6c-7-18.4-4.5-38-4.3-39c1-6.7,7.2-11.5,13.9-10.6
			c6.7,1,11.5,7.2,10.6,13.9c0,0.2-1.8,14.4,3,26.9c4.3,11.4,19.8,17.6,28.9,17.6c6.9,0,12.3,5.6,12.3,12.3
			C742.3,283.5,736.7,289,729.8,289z"/>
	</g>
	<path fill="#3E8916" d="M743.1,544.1V95.4c0-25.6,10.4-47.8,24.6-55c-3.7-1.6-6.7-1.6-10.4-1.9c-23.7-1.8-35,25.4-35,56.9v448.8
		c0,31.3,15.7,40.9,35,40.9c3.5,0,7-1,10.4-2.6C753.5,575.5,743.1,569.7,743.1,544.1z"/>
	
		<line fill="none" stroke="#3E8916" stroke-width="5.4108" stroke-linecap="round" stroke-linejoin="round" stroke-miterlimit="10" x1="788" y1="107.8" x2="797" y2="107.8"/>
	
		<line fill="none" stroke="#3E8916" stroke-width="5.4108" stroke-linecap="round" stroke-linejoin="round" stroke-miterlimit="10" x1="776" y1="83.4" x2="778.3" y2="83.4"/>
	
		<line fill="none" stroke="#3E8916" stroke-width="5.4108" stroke-linecap="round" stroke-linejoin="round" stroke-miterlimit="10" x1="780.3" y1="130.1" x2="782.6" y2="130.1"/>
	
		<line fill="none" stroke="#3E8916" stroke-width="5.4108" stroke-linecap="round" stroke-linejoin="round" stroke-miterlimit="10" x1="775.4" y1="166.4" x2="777.5" y2="166.4"/>
	
		<line fill="none" stroke="#3E8916" stroke-width="5.4108" stroke-linecap="round" stroke-linejoin="round" stroke-miterlimit="10" x1="751.6" y1="151.6" x2="754" y2="151.2"/>
	
		<line fill="none" stroke="#3E8916" stroke-width="5.4108" stroke-linecap="round" stroke-linejoin="round" stroke-miterlimit="10" x1="752.5" y1="256.2" x2="754.8" y2="256.2"/>
	
		<line fill="none" stroke="#3E8916" stroke-width="5.4108" stroke-linecap="round" stroke-linejoin="round" stroke-miterlimit="10" x1="773" y1="215.6" x2="775.2" y2="215.6"/>
	
		<line fill="none" stroke="#3E8916" stroke-width="5.4108" stroke-linecap="round" stroke-linejoin="round" stroke-miterlimit="10" x1="763.7" y1="234.5" x2="765.9" y2="234.5"/>
	
		<line fill="none" stroke="#3E8916" stroke-width="5.4108" stroke-linecap="round" stroke-linejoin="round" stroke-miterlimit="10" x1="759.7" y1="287.7" x2="762" y2="287.7"/>
	
		<line fill="none" stroke="#3E8916" stroke-width="5.4108" stroke-linecap="round" stroke-linejoin="round" stroke-miterlimit="10" x1="757.2" y1="201.8" x2="759.2" y2="201.8"/>
	
		<line fill="none" stroke="#3E8916" stroke-width="5.4108" stroke-linecap="round" stroke-linejoin="round" stroke-miterlimit="10" x1="754.4" y1="176.4" x2="756.7" y2="176.4"/>
	
		<line fill="none" stroke="#386D16" stroke-width="5.4108" stroke-linecap="round" stroke-linejoin="round" stroke-miterlimit="10" x1="695.6" y1="266.6" x2="697.7" y2="265.3"/>
	
		<line fill="none" stroke="#386D16" stroke-width="5.4108" stroke-linecap="round" stroke-linejoin="round" stroke-miterlimit="10" x1="687" y1="237" x2="687.3" y2="239.4"/>
	
		<line fill="none" stroke="#386D16" stroke-width="5.4108" stroke-linecap="round" stroke-linejoin="round" stroke-miterlimit="10" x1="729.8" y1="145.7" x2="732.1" y2="145.7"/>
	
		<line fill="none" stroke="#386D16" stroke-width="5.4108" stroke-linecap="round" stroke-linejoin="round" stroke-miterlimit="10" x1="731.1" y1="112" x2="733.3" y2="112"/>
	
		<line fill="none" stroke="#386D16" stroke-width="5.4108" stroke-linecap="round" stroke-linejoin="round" stroke-miterlimit="10" x1="734.3" y1="62.4" x2="736.1" y2="63.6"/>
	
		<line fill="none" stroke="#386D16" stroke-width="5.4108" stroke-linecap="round" stroke-linejoin="round" stroke-miterlimit="10" x1="747.6" y1="44.5" x2="748.8" y2="46.5"/>
	
		<line fill="none" stroke="#386D16" stroke-width="5.4108" stroke-linecap="round" stroke-linejoin="round" stroke-miterlimit="10" x1="733.5" y1="230" x2="735.7" y2="230"/>
	
		<line fill="none" stroke="#386D16" stroke-width="5.4108" stroke-linecap="round" stroke-linejoin="round" stroke-miterlimit="10" x1="732.1" y1="278.7" x2="734.3" y2="278.6"/>
	
		<line fill="none" stroke="#3E8916" stroke-width="5.4108" stroke-linecap="round" stroke-linejoin="round" stroke-miterlimit="10" x1="764.7" y1="57" x2="766.1" y2="55.2"/>
	
		<line fill="none" stroke="#3E8916" stroke-width="5.4108" stroke-linecap="round" stroke-linejoin="round" stroke-miterlimit="10" x1="717.7" y1="84.2" x2="726.5" y2="84.2"/>
	
		<line fill="none" stroke="#3E8916" stroke-width="5.4108" stroke-linecap="round" stroke-linejoin="round" stroke-miterlimit="10" x1="789.1" y1="151.6" x2="798.1" y2="151.6"/>
	
		<line fill="none" stroke="#3E8916" stroke-width="5.4108" stroke-linecap="round" stroke-linejoin="round" stroke-miterlimit="10" x1="777" y1="250.8" x2="785.8" y2="250.8"/>
	
		<line fill="none" stroke="#3E8916" stroke-width="5.4108" stroke-linecap="round" stroke-linejoin="round" stroke-miterlimit="10" x1="717.5" y1="302.7" x2="726.3" y2="302.7"/>
	
		<line fill="none" stroke="#3E8916" stroke-width="5.4108" stroke-linecap="round" stroke-linejoin="round" stroke-miterlimit="10" x1="788.5" y1="286.6" x2="797.3" y2="286.6"/>
	
		<line fill="none" stroke="#3E8916" stroke-width="5.4108" stroke-linecap="round" stroke-linejoin="round" stroke-miterlimit="10" x1="718" y1="158.4" x2="726.8" y2="158.4"/>
	
		<line fill="none" stroke="#3E8916" stroke-width="5.4108" stroke-linecap="round" stroke-linejoin="round" stroke-miterlimit="10" x1="719.4" y1="130.7" x2="728.4" y2="130.7"/>
	
		<line fill="none" stroke="#3E8916" stroke-width="5.4108" stroke-linecap="round" stroke-linejoin="round" stroke-miterlimit="10" x1="669.4" y1="252.7" x2="679" y2="252.7"/>
	
		<line fill="none" stroke="#3E8916" stroke-width="5.4108" stroke-linecap="round" stroke-linejoin="round" stroke-miterlimit="10" x1="828.3" y1="179.3" x2="838.4" y2="179.3"/>
	
		<line fill="none" stroke="#3E8916" stroke-width="5.4108" stroke-linecap="round" stroke-linejoin="round" stroke-miterlimit="10" x1="693.4" y1="229.2" x2="703" y2="229.2"/>
	
		<line fill="none" stroke="#3E8916" stroke-width="5.4108" stroke-linecap="round" stroke-linejoin="round" stroke-miterlimit="10" x1="668.1" y1="221" x2="677.9" y2="221"/>
	
		<line fill="none" stroke="#3E8916" stroke-width="5.4108" stroke-linecap="round" stroke-linejoin="round" stroke-miterlimit="10" x1="730.1" y1="44.1" x2="735.4" y2="51.2"/>
	
		<line fill="none" stroke="#3E8916" stroke-width="5.4108" stroke-linecap="round" stroke-linejoin="round" stroke-miterlimit="10" x1="776.8" y1="64.4" x2="783.9" y2="58.9"/>
	
		<line fill="none" stroke="#3E8916" stroke-width="5.4108" stroke-linecap="round" stroke-linejoin="round" stroke-miterlimit="10" x1="809.6" y1="211.1" x2="806.4" y2="201.5"/>
	
		<line fill="none" stroke="#3E8916" stroke-width="5.4108" stroke-linecap="round" stroke-linejoin="round" stroke-miterlimit="10" x1="697.8" y1="288.3" x2="703.4" y2="280.5"/>
	<path fill="#2C5414" d="M741,110.2c0.3,8.5,7.4,15.3,16,15.3c8.6,0,15.7-6.9,16-15.3H741L741,110.2z"/>
	<circle fill="#122606" cx="739.1" cy="99.9" r="4"/>
	<circle fill="#122606" cx="774.1" cy="99.9" r="4"/>
	<path fill="#E0FFCC" d="M752,113.1c0,2.2,1.3,4,2.9,4c0.8,0,1.6-0.5,2.1-1.3c0.5,0.8,1.3,1.3,2.1,1.3c1.6,0,2.9-1.8,2.9-4
		c0-0.3,0-0.6-0.2-1h-9.6C752,112.5,752,112.8,752,113.1z"/>
	
		<line fill="none" stroke="#3E8916" stroke-width="5.4108" stroke-linecap="round" stroke-linejoin="round" stroke-miterlimit="10" x1="770.1" y1="304.8" x2="772.3" y2="304.8"/>
	
		<line fill="none" stroke="#3E8916" stroke-width="5.4108" stroke-linecap="round" stroke-linejoin="round" stroke-miterlimit="10" x1="791.4" y1="326.7" x2="800.2" y2="326.7"/>
	
		<line fill="none" stroke="#386D16" stroke-width="5.4108" stroke-linecap="round" stroke-linejoin="round" stroke-miterlimit="10" x1="732.7" y1="307.4" x2="734.8" y2="307.2"/>
	
		<line fill="none" stroke="#3E8916" stroke-width="5.4108" stroke-linecap="round" stroke-linejoin="round" stroke-miterlimit="10" x1="785.6" y1="372.4" x2="794.4" y2="372.4"/>
	
		<line fill="none" stroke="#3E8916" stroke-width="5.4108" stroke-linecap="round" stroke-linejoin="round" stroke-miterlimit="10" x1="718.1" y1="340.5" x2="726.9" y2="340.5"/>
	
		<path fill="none" stroke="#3E8916" stroke-width="5.4108" stroke-linecap="round" stroke-linejoin="round" stroke-miterlimit="10" d="
		M788.5,476h8.8H788.5z"/>
	
		<line fill="none" stroke="#3E8916" stroke-width="5.4108" stroke-linecap="round" stroke-linejoin="round" stroke-miterlimit="10" x1="761.6" y1="346.9" x2="763.7" y2="346.9"/>
	
		<line fill="none" stroke="#386D16" stroke-width="5.4108" stroke-linecap="round" stroke-linejoin="round" stroke-miterlimit="10" x1="734" y1="337.7" x2="736.1" y2="337.7"/>
	
		<line fill="none" stroke="#3E8916" stroke-width="5.4108" stroke-linecap="round" stroke-linejoin="round" stroke-miterlimit="10" x1="772" y1="395.9" x2="774.3" y2="395.9"/>
	
		<line fill="none" stroke="#386D16" stroke-width="5.4108" stroke-linecap="round" stroke-linejoin="round" stroke-miterlimit="10" x1="729.8" y1="379.1" x2="731.9" y2="379.1"/>
	
		<line fill="none" stroke="#3E8916" stroke-width="5.4108" stroke-linecap="round" stroke-linejoin="round" stroke-miterlimit="10" x1="775.4" y1="454.3" x2="777.5" y2="454.3"/>
	
		<line fill="none" stroke="#3E8916" stroke-width="5.4108" stroke-linecap="round" stroke-linejoin="round" stroke-miterlimit="10" x1="757.2" y1="373.9" x2="759.2" y2="373.9"/>
	
		<line fill="none" stroke="#3E8916" stroke-width="5.4108" stroke-linecap="round" stroke-linejoin="round" stroke-miterlimit="10" x1="760.8" y1="521.8" x2="763.1" y2="521.8"/>
	
		<line fill="none" stroke="#386D16" stroke-width="5.4108" stroke-linecap="round" stroke-linejoin="round" stroke-miterlimit="10" x1="731.6" y1="514.4" x2="733.8" y2="514.2"/>
	
		<line fill="none" stroke="#3E8916" stroke-width="5.4108" stroke-linecap="round" stroke-linejoin="round" stroke-miterlimit="10" x1="775.4" y1="430.9" x2="777.6" y2="430.9"/>
	
		<line fill="none" stroke="#3E8916" stroke-width="5.4108" stroke-linecap="round" stroke-linejoin="round" stroke-miterlimit="10" x1="761" y1="489.8" x2="763.1" y2="489.8"/>
	
		<line fill="none" stroke="#3E8916" stroke-width="5.4108" stroke-linecap="round" stroke-linejoin="round" stroke-miterlimit="10" x1="749.8" y1="424.6" x2="752" y2="424.6"/>
	
		<line fill="none" stroke="#3E8916" stroke-width="5.4108" stroke-linecap="round" stroke-linejoin="round" stroke-miterlimit="10" x1="750.8" y1="457.8" x2="753" y2="457.8"/>
	
		<path fill="none" stroke="#3E8916" stroke-width="5.4108" stroke-linecap="round" stroke-linejoin="round" stroke-miterlimit="10" d="
		M791.7,415.3h8.8H791.7z"/>
	
		<line fill="none" stroke="#3E8916" stroke-width="5.4108" stroke-linecap="round" stroke-linejoin="round" stroke-miterlimit="10" x1="778.4" y1="505.8" x2="780.7" y2="505.8"/>
	
		<line fill="none" stroke="#386D16" stroke-width="5.4108" stroke-linecap="round" stroke-linejoin="round" stroke-miterlimit="10" x1="730" y1="477.6" x2="732.2" y2="477.5"/>
	
		<line fill="none" stroke="#386D16" stroke-width="5.4108" stroke-linecap="round" stroke-linejoin="round" stroke-miterlimit="10" x1="733.2" y1="432.9" x2="735.4" y2="432.7"/>
	
		<line fill="none" stroke="#386D16" stroke-width="5.4108" stroke-linecap="round" stroke-linejoin="round" stroke-miterlimit="10" x1="734.6" y1="193.7" x2="736.9" y2="193.7"/>
	
		<line fill="none" stroke="#3E8916" stroke-width="5.4108" stroke-linecap="round" stroke-linejoin="round" stroke-miterlimit="10" x1="714.9" y1="409.2" x2="723.7" y2="409.2"/>
	
		<line fill="none" stroke="#3E8916" stroke-width="5.4108" stroke-linecap="round" stroke-linejoin="round" stroke-miterlimit="10" x1="718.1" y1="457.2" x2="726.9" y2="457.2"/>
	
		<line fill="none" stroke="#3E8916" stroke-width="5.4108" stroke-linecap="round" stroke-linejoin="round" stroke-miterlimit="10" x1="714.9" y1="529.1" x2="723.7" y2="529.1"/>
	
		<line fill="none" stroke="#3E8916" stroke-width="5.4108" stroke-linecap="round" stroke-linejoin="round" stroke-miterlimit="10" x1="751.2" y1="539.3" x2="753.5" y2="539.3"/>
	
		<line fill="none" stroke="#3E8916" stroke-width="5.4108" stroke-linecap="round" stroke-linejoin="round" stroke-miterlimit="10" x1="717.2" y1="548.5" x2="726" y2="548.5"/>
	
		<line fill="none" stroke="#3E8916" stroke-width="5.4108" stroke-linecap="round" stroke-linejoin="round" stroke-miterlimit="10" x1="773" y1="556.1" x2="775.2" y2="556.1"/>
	
		<line fill="none" stroke="#386D16" stroke-width="5.4108" stroke-linecap="round" stroke-linejoin="round" stroke-miterlimit="10" x1="730.1" y1="563" x2="732.4" y2="563"/>
</g>
<rect x="659" y="465.3" fill="#FFFFFF" width="185.3" height="414.9"/>
<g id="topf">
	<polygon fill="#995D16" points="829.9,477.2 673.4,477.2 702.2,599.8 801.1,599.8 	"/>
	<polygon fill="#845017" points="681.5,511.7 821.7,511.7 829.9,477.2 673.4,477.2 	"/>
	<polygon fill="#C1871F" points="844.3,459.7 659,459.7 665.5,491.9 837.7,491.9 	"/>
	<g id="LABEL">
		<path fill="#FFFFFF" d="M804.5,568.1c-34.7-4.3-70-4.3-104.7,0c-2.1-15.8-4-31.7-6.1-47.5c38.7-5,78-5,116.7,0
			C808.5,536.3,806.6,552.3,804.5,568.1z"/>
	</g>
</g>
</svg>
