<svg class="main-bg" version="1.1" id="Ebene_1" xmlns="http://www.w3.org/2000/svg" xmlns:xlink="http://www.w3.org/1999/xlink" x="0px" y="0px"
	 viewBox="661.7 533.9 595.3 278.4" enable-background="new 661.7 533.9 595.3 278.4" xml:space="preserve">
<pattern  x="0" y="841.9" width="22.3" height="22.3" patternUnits="userSpaceOnUse" id="SVGID_2_" viewBox="8 -25.3 22.3 22.3" overflow="visible">
	<g>
		<polygon fill="none" points="8,-3 30.3,-3 30.3,-25.3 8,-25.3 		"/>
		<g>
			<polygon fill="none" points="8,-25.3 30.3,-25.3 30.3,-3 8,-3 			"/>
			<g>
				<polygon fill="none" points="8,-3 30.3,-3 30.3,-25.3 8,-25.3 				"/>
				<g>
					<polygon fill="none" points="8,-25.3 30.3,-25.3 30.3,-3 8,-3 					"/>
					<g>
						<polygon fill="none" points="8,-3 8,-25.3 30.3,-25.3 30.3,-3 						"/>
						<line fill="none" x1="1.7" y1="-4.9" x2="3.5" y2="-3"/>
						<line fill="none" x1="1.7" y1="-3" x2="3.5" y2="-4.9"/>
						<path fill="none" stroke="#232422" stroke-width="0.3" d="M8.2-16.9c0.5-0.2,4.2-3.9,4.3-4.3"/>
						<path fill="none" stroke="#232422" stroke-width="0.3" d="M10-17.1c-0.5,0.2-4,4.4-4,4.8"/>
						<path fill="none" stroke="#232422" stroke-width="0.3" d="M8.2-10.6c0.5-0.8,5.8-6.8,6.4-7.3c0.6-0.5,1-2.7,1.3-3.1"/>
						<path fill="none" stroke="#232422" stroke-width="0.3" d="M13.6-17.9c-0.7,0.3-4.9,5.6-5,6c-0.1,0.4-2.8,2.5-3.1,2.5"/>
						<path fill="none" stroke="#232422" stroke-width="0.3" d="M10.5-10.3c0.2-0.2,0.6-0.6,1-1.1c1.2-1.4,3-3.5,3.3-3.8"/>
						<path fill="none" stroke="#232422" stroke-width="0.3" d="M12.3-10.3c-0.5,0.7-4,3.5-4.6,4"/>
						<path fill="none" stroke="#232422" stroke-width="0.3" d="M25.6-5.6C24.9-5.3,20.1-0.5,20,0"/>
						<path fill="none" stroke="#232422" stroke-width="0.3" d="M14.4-1.2c0.3-0.2,1.1-1.2,2-2.3C17.6-5,19-6.6,19.2-6.8"/>
						<path fill="none" stroke="#232422" stroke-width="0.3" d="M17.8-6.9c-0.4,0.2-2.1,2-3.5,3.6c-0.9,1.1-1.7,2-1.7,2.2"/>
						<path fill="none" stroke="#232422" stroke-width="0.3" d="M21.4-6.9C21-6.8,19.4-5,18-3.4c-1.2,1.4-2.2,2.6-2.3,2.9"/>
						<path fill="none" stroke="#232422" stroke-width="0.3" d="M8.8-2.7c0.1-0.2,0.3-0.5,0.6-0.7c0.7-0.8,1.9-1.8,2.3-2.2
							c0.6-0.6,2.9-3.5,3.2-3.9"/>
						<path fill="none" stroke="#232422" stroke-width="0.3" d="M9.9-2.3C10.1-2.6,10.5-3,11-3.5c0.7-0.7,1.5-1.4,1.9-1.7
							c0.6-0.6,2.9-3.5,3.2-3.9"/>
						<path fill="none" stroke="#232422" stroke-width="0.3" d="M31.9-21.4c-0.2,0.1-1.1,0.8-2,1.7c-1.6,1.5-3.5,3.6-3.6,3.9
							c-0.1,0.5-2,2.3-2.3,2.3"/>
						<path fill="none" stroke="#232422" stroke-width="0.3" d="M29.7-16.1c-0.3,0-3.3,4.6-3.4,5.1c-0.1,0.5-1.9,1.8-1.9,1.8
							c-0.3,0.4-2.5,3.3-3.2,3.9c-0.2,0.2-1,1-1.8,1.8c-1.2,1.2-2.5,2.7-2.8,3.1"/>
						<path fill="none" stroke="#232422" stroke-width="0.3" d="M28.2-11.4c0.5-0.8,0.8-0.6,1.4-1.2c0.1-0.1,0.6-0.6,1.1-1.2"/>
						<path fill="none" stroke="#232422" stroke-width="0.3" d="M32.3-17.1c-0.5,0.2-4,4.4-4,4.8"/>
						<path fill="none" stroke="#232422" stroke-width="0.3" d="M30.9-11.9c-0.1,0.5-2.8,2.4-3.1,2.4"/>
						<path fill="none" stroke="#232422" stroke-width="0.3" d="M31.9-10.7c-0.2,0.1-1.4,1.2-2.7,2.4c-1.8,1.7-3.7,3.7-3.7,3.9
							c-0.2,0.2-1,0.9-1.9,1.8"/>
						<path fill="none" stroke="#232422" stroke-width="0.3" d="M31.1-7.1c-0.5,0.4-0.9,0.7-1.1,0.8c-0.7,0.5-3.6,4.5-3.9,4.9"/>
						<path fill="none" stroke="#232422" stroke-width="0.3" d="M31.9-24.1c-0.2,0.1-1.1,1-2.1,2c-1.6,1.7-3.5,4-3.6,4.3
							c-0.1,0.5-2.8,2.4-3.1,2.4"/>
						<path fill="none" stroke="#232422" stroke-width="0.3" d="M29.3-25.7c-1,1.1-1.9,2-1.9,2.1c-0.1,0.5-0.2,1-0.6,1"/>
						<path fill="none" stroke="#232422" stroke-width="0.3" d="M25.6-27.9c-0.7,0.3-5.4,5.1-5.5,5.6c-0.1,0.5-2.8,3.6-4,4.3"/>
						<path fill="none" stroke="#232422" stroke-width="0.3" d="M11.8-13c0.7-1.2,3.3-4.2,4-4.4"/>
						<path fill="none" stroke="#232422" stroke-width="0.3" d="M24.7-5.8c0,0,2.5-2.2,2.6-2.9"/>
						<path fill="none" stroke="#232422" stroke-width="0.3" d="M27.9-11c-0.4,0.3-2.3,2.3-2.2,2.7c-0.5,0.2-3,3-4.5,4.8
							C20.5-2.7,20-2.1,20-2"/>
						<path fill="none" stroke="#232422" stroke-width="0.3" d="M20.1-6.9c0.5-0.5,5.3-4,5.9-5.9c0.3-0.4,3.3-4.4,3.9-4.9
							c0.2-0.2,0.6-0.5,1.1-0.9"/>
						<path fill="none" stroke="#232422" stroke-width="0.3" d="M26-22.4c-0.3,0.4-3.3,4.6-4.9,5.7c-1.6,1.1-3.3,4.2-4.3,4.3
							c-1.1,0.2-5.8,5.1-6.2,5.5C9.9-6.5,6.4-3.1,6.3-2.6"/>
						<path fill="none" stroke="#232422" stroke-width="0.3" d="M13.1-10.3c0.4-0.6,3.6-3.6,4.5-4.2c0.9-0.6,6.3-7.8,8.5-9.2
							c0.3-0.4,3.3-4.4,3.9-4.9"/>
						<path fill="none" stroke="#232422" stroke-width="0.3" d="M13.2-11.6c0.6-0.7,1.9-2.7,2.9-3.4s2.2-1.7,2.6-2.1"/>
						<path fill="none" stroke="#232422" stroke-width="0.3" d="M15.9-16.1c0.8-0.7,3.6-2.5,4.4-3.7c0.9-1.2,4.7-4.9,5.4-5.1
							c0.1-0.2,0.4-0.6,0.9-1.1"/>
						<path fill="none" stroke="#232422" stroke-width="0.3" d="M16.5-10.3c0.6-0.8,6.5-6.5,8-7.9c0.5-0.8,2.3-2.4,2.9-2.9
							c0.4-0.3,1.3-1.5,2.1-2.5c0.5-0.7,0.9-1.2,1.1-1.4"/>
						<path fill="none" stroke="#232422" stroke-width="0.3" d="M18.5-7.8c0.6-0.6,3.3-2,4-3s1.3-2.1,1.5-2.2"/>
						<path fill="none" stroke="#232422" stroke-width="0.3" d="M20.3-10.3c0.7-0.9,3.2-4.3,4.5-4.9"/>
						<path fill="none" stroke="#232422" stroke-width="0.3" d="M19.6-11.6c0.4-0.5,2.2-2.8,2.9-3.1"/>
						<path fill="none" stroke="#232422" stroke-width="0.3" d="M19.5-10.4c-0.4,0.5-2.3,2.1-3.6,3.2c-0.5,0.4-0.9,0.7-1.1,0.8
							c-0.4,0.3-1.4,1.6-2.4,2.9c-0.7,1-1.4,1.9-1.5,2"/>
						<path fill="none" stroke="#232422" stroke-width="0.3" d="M9.5-10.7c-0.2,0.1-1.4,1.2-2.7,2.4"/>
						<path fill="none" stroke="#232422" stroke-width="0.3" d="M25.4-26.7c-0.2,0.2-1,0.9-1.9,1.8c-1.5,1.5-3.5,3.5-3.8,4"/>
						<path fill="none" stroke="#232422" stroke-width="0.3" d="M9.6-24.1c-0.2,0.1-1.1,1-2.1,2"/>
						<path fill="none" stroke="#232422" stroke-width="0.3" d="M25.7-2.7c0.1-0.2,0.4-0.6,0.9-1.1c0.8-0.9,2.1-2.3,3.2-3.4
							C31-8.4,32-9.4,32.2-9.6"/>
						<path fill="none" stroke="#232422" stroke-width="0.3" d="M11.9-23.6c-0.3,0.4-1.8,1.6-2.4,2.2c-0.2,0.1-1.1,0.8-2,1.7"/>
						<path fill="none" stroke="#232422" stroke-width="0.3" d="M7.3-23.6c0.5-0.7,0.9-1.2,1.1-1.4"/>
						<path fill="none" stroke="#232422" stroke-width="0.3" d="M7.5-7.2c1.1-1.2,2.2-2.2,2.4-2.4"/>
						<path fill="none" stroke="#232422" stroke-width="0.3" d="M8.8-25c0.1-0.2,0.3-0.5,0.6-0.7"/>
						<path fill="none" stroke="#232422" stroke-width="0.3" d="M9.9-24.6c0.2-0.3,0.6-0.7,1.1-1.2"/>
						<path fill="none" stroke="#232422" stroke-width="0.3" d="M12.5-25.8c-0.7,1-1.4,1.9-1.5,2"/>
						<path fill="none" stroke="#232422" stroke-width="0.3" d="M18-25.7c-1.2,1.4-2.2,2.6-2.3,2.9c-0.1,0.5-3.2,3.5-3.5,3.5"/>
						<path fill="none" stroke="#232422" stroke-width="0.3" d="M14.3-25.6c-0.9,1.1-1.7,2-1.7,2.2c-0.1,0.5-0.2,1-0.6,1"/>
						<path fill="none" stroke="#232422" stroke-width="0.3" d="M16.4-25.8c-0.9,1.1-1.7,2.1-2,2.3c-0.6,0.6-0.9,0.4-1.4,1.2"/>
						<path fill="none" stroke="#232422" stroke-width="0.3" d="M16.6-22.7c0.3-0.5,1.6-1.9,2.8-3.1"/>
						<path fill="none" stroke="#232422" stroke-width="0.3" d="M21.2-25.8C20.5-25,20-24.4,20-24.3c-0.1,0.5-3,3.9-3.3,3.9"/>
						<path fill="none" stroke="#232422" stroke-width="0.3" d="M7.3-12.5c0.1-0.1,0.6-0.6,1.1-1.2c2-2.2,5.9-6.5,6.2-6.8"/>
						<path fill="none" stroke="#232422" stroke-width="0.3" d="M12.3-21.7c-0.4,0.5-2.3,2.1-3.6,3.1c-0.5,0.4-0.9,0.7-1.1,0.9"/>
						<path fill="none" stroke="#232422" stroke-width="0.3" d="M33-6.8c-0.4,0.2-2.3,1.9-3.7,3.4c-1,1.1-1.9,2-1.9,2.1"/>
						<path fill="none" stroke="#232422" stroke-width="0.3" d="M2.4-21.6c-0.2,0.1-1.2,3-2.3,3.8"/>
					</g>
				</g>
			</g>
		</g>
	</g>
</pattern>
<g id="bg_1_">
	<rect id="bg" x="661.7" y="533.9" fill="#8DC6E0" width="595.3" height="278.4"/>
</g>
<g id="desk">
	<g id="steckdose">
		<path fill="#E2E2E1" d="M749.6,772.3c0,1.9-1.5,3.4-3.4,3.4h-40.9c-1.9,0-3.4-1.5-3.4-3.4v-11.2c0-1.9,1.5-3.4,3.4-3.4h40.9
			c1.9,0,3.4,1.5,3.4,3.4V772.3z"/>
		<g>
			<path fill="none" stroke="#FFFFFF" stroke-width="3" stroke-miterlimit="10" d="M780.7,703.5v64.3c0,10.3-8,18.6-17.9,18.6h-4.5
				c-9.9,0-17.3-3.8-17.3-14"/>
			<g>
				<circle fill="#FFFFFF" cx="740.9" cy="766.6" r="5.1"/>
				<g>
					<g opacity="5.000000e-02">
						<path fill="#040506" d="M742.8,771.7c0,0.9-0.7,1.6-1.6,1.6l0,0c-0.9,0-1.6-0.7-1.6-1.6v-4.8c0-0.9,0.7-1.6,1.6-1.6l0,0
							c0.9,0,1.6,0.7,1.6,1.6V771.7z"/>
					</g>
					<g>
						<path fill="#F4F3F3" d="M742.5,771.7c0,0.9-0.7,1.6-1.6,1.6l0,0c-0.9,0-1.6-0.7-1.6-1.6v-4.8c0-0.9,0.7-1.6,1.6-1.6l0,0
							c0.9,0,1.6,0.7,1.6,1.6V771.7z"/>
					</g>
				</g>
				<path fill="#F4F3F3" d="M741.4,773.4c0,0.3-0.2,0.6-0.6,0.6l0,0c-0.3,0-0.6-0.2-0.6-0.6l0,0c0-0.3,0.2-0.6,0.6-0.6l0,0
					C741.1,772.8,741.4,773.1,741.4,773.4L741.4,773.4z"/>
			</g>
		</g>
		<g>
			<circle fill="#C8C8C8" cx="710.8" cy="766.6" r="5.1"/>
			<g>
				<circle fill="#404140" cx="712.4" cy="765.6" r="0.8"/>
				<circle fill="#404140" cx="709.2" cy="767.8" r="0.8"/>
			</g>
		</g>
		<g>
			<circle fill="#C8C8C8" cx="725.8" cy="766.6" r="5.1"/>
			<g>
				<circle fill="#404140" cx="727.4" cy="765.6" r="0.8"/>
				<circle fill="#404140" cx="724.1" cy="767.8" r="0.8"/>
			</g>
		</g>
		<path fill="none" stroke="#FFFFFF" stroke-miterlimit="10" d="M740.9,771.7"/>
	</g>
	<g id="bild">
		<rect x="844.6" y="561.8" fill="#3D3D3D" width="60.3" height="39.4"/>
		<g>
			<rect x="846.7" y="563.7" fill="#EFF2F3" width="56.1" height="35.6"/>
		</g>
		<g>
			<rect x="854" y="568.5" fill="#C4D9E9" width="41.4" height="26.8"/>
			<g>
				<circle fill="#D5B039" cx="870.3" cy="578.5" r="6.2"/>
				<circle opacity="0.3" fill="#D5B039" enable-background="new    " cx="870.3" cy="578.5" r="6.6"/>
			</g>
			<g>
				<path fill="#F3F7F9" d="M857.9,570.3h-4v3.8h4c1.1,0,1.9-0.8,1.9-1.9C859.8,571.2,859,570.3,857.9,570.3z"/>
				<path fill="#F3F7F9" d="M895.2,573.8h-2c0.4-0.3,0.6-0.8,0.6-1.4c0-1.1-0.8-1.9-1.9-1.9H881c-1.1,0-1.9,0.8-1.9,1.9
					s0.8,1.9,1.9,1.9h2c-0.4,0.3-0.6,0.8-0.6,1.4c0,1.1,0.8,1.9,1.9,1.9h10.9c0.1,0,0.2,0,0.2,0v-3.8
					C895.3,573.8,895.3,573.8,895.2,573.8z"/>
			</g>
			<polygon fill="#907A5D" points="854,581.6 862.2,576.7 870.6,582.5 883.6,573 895.4,583.5 895.4,595.4 854,595.4 			"/>
			<path fill="#86B76E" d="M881.8,586.6v8.8v0.1h1.2v-0.1v-6.8c0.2,0,0.3,0,0.5,0c0.8,0,1.8-0.2,2.6-0.7c0.9-0.6,1.4-1.5,1.6-2.7
				c0.1-0.3-0.2-0.7-0.5-0.7c-0.3-0.1-0.7,0.2-0.7,0.5c-0.1,0.9-0.5,1.5-1.1,1.9c-0.8,0.5-1.9,0.5-2.5,0.5v-4.1
				c0-0.3-0.3-0.6-0.6-0.6c-0.3,0-0.6,0.3-0.6,0.6v2.1c-0.4,0-0.9-0.1-1.2-0.4c-0.3-0.3-0.4-0.9-0.3-1.6c0.1-0.3-0.2-0.7-0.5-0.7
				c-0.3-0.1-0.7,0.2-0.7,0.5c-0.2,1.2,0.1,2.1,0.7,2.7C880.4,586.4,881.2,586.6,881.8,586.6z"/>
		</g>
	</g>
	<g id="tisch">
		<g opacity="0.15">
			<path fill="#040506" d="M929.8,731.1c0,2.1-1.7,3.8-3.8,3.8H703.3c-2.1,0-3.8-1.7-3.8-3.8v-4.4c0-2.1,1.7-3.8,3.8-3.8H926
				c2.1,0,3.8,1.7,3.8,3.8V731.1L929.8,731.1z"/>
			<path opacity="0.3" fill="#040506" enable-background="new    " d="M929.8,731.1c0,2.1-1.7,3.8-3.8,3.8H703.3
				c-2.1,0-3.8-1.7-3.8-3.8v-4.4c0-2.1,1.7-3.8,3.8-3.8H926c2.1,0,3.8,1.7,3.8,3.8V731.1L929.8,731.1z"/>
		</g>
		<g>
			<g>
				<path fill="#6B5A4C" d="M929.8,729.5c0,2.1-1.7,3.8-3.8,3.8H703.3c-2.1,0-3.8-1.7-3.8-3.8v-4.4c0-2.1,1.7-3.8,3.8-3.8H926
					c2.1,0,3.8,1.7,3.8,3.8V729.5L929.8,729.5z"/>
				<pattern  id="SVGID_1_" xlink:href="#SVGID_2_" patternTransform="matrix(0.3173 0 0 0.3173 -14556.9307 5244.7314)">
				</pattern>
				<path opacity="0.3" fill="url(#SVGID_1_)" enable-background="new    " d="M929.8,729.5c0,2.1-1.7,3.8-3.8,3.8H703.3
					c-2.1,0-3.8-1.7-3.8-3.8v-4.4c0-2.1,1.7-3.8,3.8-3.8H926c2.1,0,3.8,1.7,3.8,3.8V729.5L929.8,729.5z"/>
			</g>
		</g>
	</g>
	<g id="uhr">
		<g>
			<g opacity="0.15">
				<circle fill="#040506" cx="743.2" cy="583.1" r="22.4"/>
			</g>
			<g>
				<circle fill="#3D3D3D" cx="743.2" cy="581.6" r="22.4"/>
			</g>
		</g>
		<path fill="#FFFFFF" d="M747.9,562.2L747.9,562.2c-0.3-0.1-0.6-0.1-0.9-0.2c-0.1,0-0.1,0-0.2,0c-0.2,0-0.5-0.1-0.7-0.1
			c-0.2,0-0.4-0.1-0.5-0.1s-0.2,0-0.4,0c-5.7-0.6-11.7,1.3-16,5.7c-7.7,7.7-7.7,20.3,0,28l0,0c3.6,3.6,8.6,5.8,14,5.8
			c10.9,0,19.8-8.9,19.8-19.8C763,572.1,756.6,564.3,747.9,562.2z"/>
		<g>
			<g>
				<path fill="#C62F37" d="M743.8,581.7L743.8,581.7c-0.2-0.1-0.2-0.2-0.1-0.2l9.7-10.2c0.1-0.1,0.2-0.1,0.2,0
					c0.1,0.1,0.1,0.2,0,0.2l-9.7,10.2C743.9,581.7,743.9,581.7,743.8,581.7z"/>
			</g>
			<path fill="#433547" d="M743.6,582.2c-0.3-0.1-0.5-0.4-0.4-0.8l0,0c0.1-0.4,0.4-0.7,0.7-0.6l9.7,2c0.3,0.1,0.5,0.4,0.4,0.8l0,0
				c-0.1,0.4-0.4,0.7-0.7,0.6L743.6,582.2z"/>
			<path fill="#433547" d="M743.3,581.1c0.3-0.3,0.8-0.3,1.1-0.1l0,0c0.3,0.3,0.2,0.7-0.1,1.1l-9.5,9.5c-0.3,0.3-0.8,0.3-1.1,0.1
				l0,0c-0.3-0.3-0.2-0.7,0.1-1.1L743.3,581.1z"/>
		</g>
		<g>
			<path fill="#3D3D3D" d="M744.8,599.5l-0.1-1.2h0.2l0.1,1.2H744.8z M741.6,599.5h-0.2l0.1-1.2h0.2L741.6,599.5z M748.1,599
				l-0.3-1.2h0.2l0.3,1.2H748.1z M738.4,599h-0.2l0.3-1.2h0.2L738.4,599z M751.2,597.8l-0.6-1.1l0.1-0.1L751.2,597.8L751.2,597.8z
				 M735.2,597.8l-0.2-0.1l0.6-1.1l0.1,0.1L735.2,597.8z M754,596l-0.7-1l0.1-0.1L754,596L754,596z M732.4,596L732.4,596l0.6-1.1
				l0.1,0.1L732.4,596z M756.5,593.8l-0.9-0.8l0.1-0.1l0.9,0.8L756.5,593.8z M729.9,593.8l-0.1-0.1l0.9-0.8l0.1,0.1L729.9,593.8z
				 M758.5,591.2l-1.1-0.7l0.1-0.1l1.1,0.7L758.5,591.2z M727.9,591.1l-0.1-0.1l1.1-0.7l0.1,0.1L727.9,591.1z M760,588.2l-1.1-0.5
				l0.1-0.1l1.1,0.4L760,588.2z M726.4,588.1l-0.1-0.2l1.1-0.4l0.1,0.1L726.4,588.1z M761,585l-1.2-0.2v-0.2l1.2,0.2V585z
				 M725.5,585v-0.2l1.2-0.2v0.2L725.5,585z M761.3,581.7H760v-0.2h1.2L761.3,581.7L761.3,581.7z M725.1,581.6L725.1,581.6v-0.2h1.2
				v0.2v0.1h-1.2V581.6z M759.8,578.6v-0.2l1.2-0.2v0.2L759.8,578.6z M726.7,578.5l-1.2-0.2v-0.2l1.2,0.2V578.5z M759,575.5
				l-0.1-0.1l1.1-0.5l0.1,0.2L759,575.5z M727.5,575.4l-1.1-0.5l0.1-0.2l1.1,0.5L727.5,575.4z M757.6,572.7l-0.1-0.1l1.1-0.7
				l0.1,0.1L757.6,572.7z M728.9,572.6l-1.1-0.7l0.1-0.1l1.1,0.7L728.9,572.6z M755.7,570.2l-0.1-0.1l0.9-0.8l0.1,0.1L755.7,570.2z
				 M730.8,570.1l-0.9-0.8l0.1-0.1l0.9,0.8L730.8,570.1z M753.5,568.1l-0.1-0.1l0.7-1l0.1,0.1L753.5,568.1z M733.1,568.1l-0.7-1
				l0.1-0.1l0.7,1L733.1,568.1z M750.8,566.4l-0.1-0.1l0.6-1.1l0.2,0.1L750.8,566.4z M735.7,566.4l-0.6-1.1l0.2-0.1l0.6,1.1
				L735.7,566.4z M748,565.3h-0.2l0.3-1.2h0.2L748,565.3z M738.6,565.3l-0.3-1.2h0.2l0.3,1.2H738.6z M744.9,564.7h-0.2l0.1-1.2h0.2
				L744.9,564.7z M741.7,564.7l-0.1-1.2h0.2l0.1,1.2H741.7z"/>
		</g>
	</g>
	<g id="tasse">
		<g>
			<g>
				<circle fill="#DDC83D" cx="734.3" cy="706.9" r="5.7"/>
				<circle fill="#7FB3C7" cx="734.3" cy="706.9" r="3"/>
				<path fill="#DDC83D" d="M714.8,696.5V716c0,2.9,2.4,5.3,5.3,5.3h7.2c2.9,0,5.3-2.4,5.3-5.3v-19.5H714.8z"/>
			</g>
		</g>
		<path opacity="0.8" fill="#E7E7E6" enable-background="new    " d="M734.9,677.8h-4.1c0.4-0.6,0.6-1.3,0.6-2.1v-2.4
			c0-2.2-1.8-4-4-4h-14.8c-2.2,0-4,1.8-4,4v2.4c0,2.2,1.8,4,4,4h5.1c-0.4,0.6-0.6,1.3-0.6,2.1v1c0,1.5,0.8,2.7,2,3.4
			c-0.6,0.7-1,1.6-1,2.6v0.7c0,2.2,1.8,4,4,4h2.9c2.2,0,4-1.8,4-4v-0.7c0-0.7-0.2-1.5-0.6-2.1h6.5c2.2,0,4-1.8,4-4v-1
			C738.9,679.6,737.1,677.8,734.9,677.8z"/>
	</g>
	<g id="pc">
		<g>
			<path fill="#E4E4E4" d="M842.8,721.2c0-5.4,4.4-9.8,9.8-9.8c5.4,0,9.8,4.4,9.8,9.8"/>
			<path fill="#CDCCCB" d="M852.6,711.4c0,0,1.5,0.9,2.7,2.5c1.2,1.8,2.1,4.5,2.2,7.3h4.8C862.3,721.2,862.5,711.4,852.6,711.4z"/>
		</g>
		<g>
			<rect x="796.1" y="705.5" fill="#E4E4E4" width="25.1" height="10.4"/>
			<path fill="#E4E4E4" d="M828.9,718.3c0,1.8-1.2,3.3-2.7,3.3h-35c-1.5,0-2.7-1.5-2.7-3.3V718c0-1.8,1.2-3.3,2.7-3.3h35
				c1.5,0,2.7,1.5,2.7,3.3V718.3z"/>
			<path fill="#3A4245" d="M750.7,702.8v-66c0-1.5,1.2-2.7,2.7-2.7h108.3c1.5,0,2.7,1.2,2.7,2.7v66"/>
			<g>
				<g opacity="0.15">
					<path fill="#040506" d="M864.4,693.9V704c0,1.7-1.2,3.1-2.7,3.1H753.4c-1.5,0-2.7-1.4-2.7-3.1v-10.1"/>
				</g>
				<g>
					<path fill="#E4E4E4" d="M864.4,692.3v10.1c0,1.7-1.2,3.1-2.7,3.1H753.4c-1.5,0-2.7-1.4-2.7-3.1v-10.1"/>
				</g>
			</g>
			<circle fill="#3D3D3D" cx="808.7" cy="698.3" r="2.8"/>
		</g>
		<g>
			<rect x="754.9" y="637.8" fill="#9F9D9D" width="105.2" height="50.6"/>
			<rect x="754.9" y="637.8" display="none" fill="#B8B7B8" width="105.2" height="3.8"/>
			<g display="none">
				<rect x="760.6" y="642.6" display="inline" fill="#F5F1F1" width="3.4" height="2.9"/>
				<rect x="765.7" y="642.6" display="inline" fill="#F5F1F1" width="3.4" height="2.9"/>
				<rect x="782.8" y="642.6" display="inline" fill="#B8B7B8" width="12.2" height="2.9"/>
				<rect x="814.6" y="642.6" display="inline" fill="#B8B7B8" width="3.4" height="2.9"/>
				<rect x="774.7" y="642.6" display="inline" fill="#F5F1F1" width="6" height="2.9"/>
				<rect x="796.9" y="642.6" display="inline" fill="#F5F1F1" width="6" height="2.9"/>
				<rect x="805.8" y="642.6" display="inline" fill="#B8B7B8" width="6" height="2.9"/>
				<rect x="823.6" y="642.6" display="inline" fill="#B8B7B8" width="8.1" height="2.9"/>
				<rect x="834.5" y="642.6" display="inline" fill="#B8B7B8" width="8.1" height="2.9"/>
			</g>
			<g display="none">
				<rect x="754.9" y="646.8" display="inline" fill="#B8B7B8" width="5.4" height="37.1"/>
				<g display="inline">
					<rect x="756.1" y="648.9" opacity="0.6" fill="#9F9D9D" enable-background="new    " width="2.7" height="2.6"/>
					<rect x="756.1" y="653.7" opacity="0.6" fill="#9F9D9D" enable-background="new    " width="2.7" height="2.6"/>
					<rect x="756.1" y="658.4" opacity="0.6" fill="#9F9D9D" enable-background="new    " width="2.7" height="2.6"/>
					<rect x="756.1" y="663.1" opacity="0.6" fill="#9F9D9D" enable-background="new    " width="2.7" height="2.6"/>
					<rect x="756.1" y="667.9" opacity="0.6" fill="#9F9D9D" enable-background="new    " width="2.7" height="2.6"/>
				</g>
				<g display="inline">
					<rect x="756.1" y="672.9" fill="#DDC83D" width="2" height="2"/>
					<rect x="757.1" y="673.9" fill="none" stroke="#FCFBFB" stroke-miterlimit="10" width="2" height="2"/>
				</g>
				<g display="inline">
					<rect x="756.7" y="680.5" opacity="0.6" fill="#9F9D9D" enable-background="new    " width="1.4" height="1.4"/>
					<rect x="756.1" y="677.9" opacity="0.6" fill="#9F9D9D" enable-background="new    " width="0.6" height="0.6"/>
					<rect x="757.1" y="677.9" opacity="0.6" fill="#9F9D9D" enable-background="new    " width="0.6" height="0.6"/>
					<rect x="758.2" y="677.9" opacity="0.6" fill="#9F9D9D" enable-background="new    " width="0.6" height="0.6"/>
				</g>
			</g>
			<g display="none">
				<rect x="759.9" y="646.8" display="inline" fill="#C7C6C6" width="84.8" height="3.4"/>
				<g display="inline">
					<circle fill="#C21A1A" cx="762.2" cy="648.5" r="0.6"/>
					<circle fill="#DDC83D" cx="764.7" cy="648.5" r="0.6"/>
					<circle fill="#74B288" cx="767.1" cy="648.5" r="0.6"/>
				</g>
			</g>
			<g display="none">
				<rect x="844.7" y="641.5" display="inline" fill="#959494" width="15.5" height="2.5"/>
				<rect x="844.7" y="644.1" display="inline" fill="#C2BFBF" width="15.5" height="44.3"/>
				<g display="inline">
					<g>
						<rect x="846.1" y="645.5" fill="#FFFFFF" width="1" height="1"/>
						<rect x="847.1" y="645.5" fill="#040506" width="1" height="1"/>
						<rect x="848.1" y="645.5" fill="#C52B26" width="1" height="1"/>
						<rect x="849" y="645.5" fill="#EFE52E" width="1" height="1"/>
						<rect x="850" y="645.5" fill="#82B23E" width="1" height="1"/>
						<rect x="852" y="645.5" fill="#394D97" width="1" height="1"/>
						<rect x="851" y="645.5" fill="#8DC5D8" width="1" height="1"/>
						<rect x="853" y="645.5" fill="#935397" width="1" height="1"/>
						<rect x="854" y="645.5" fill="#A42D32" width="1" height="1"/>
						<rect x="854.9" y="645.5" fill="#C5282C" width="1" height="1"/>
						<rect x="855.9" y="645.5" fill="#CE5C2E" width="1" height="1"/>
						<rect x="856.9" y="645.5" fill="#DC8F31" width="1" height="1"/>
						<rect x="857.9" y="645.5" fill="#E6AC47" width="1" height="1"/>
						<rect x="846.1" y="646.5" fill="#F3E847" width="1" height="1"/>
						<rect x="847.1" y="646.5" fill="#D5D942" width="1" height="1"/>
						<rect x="848.1" y="646.5" fill="#6FAC54" width="1" height="1"/>
						<rect x="849" y="646.5" fill="#518E4B" width="1" height="1"/>
						<rect x="850" y="646.5" fill="#69AC76" width="1" height="1"/>
						<rect x="851" y="646.5" fill="#66A7DC" width="1" height="1"/>
						<rect x="852" y="646.5" fill="#4171B5" width="1" height="1"/>
						<rect x="853" y="646.5" fill="#343887" width="1" height="1"/>
						<rect x="854" y="646.5" fill="#5A3486" width="1" height="1"/>
						<rect x="854.9" y="646.5" fill="#7B3184" width="1" height="1"/>
						<rect x="855.9" y="646.5" fill="#851B5E" width="1" height="1"/>
						<rect x="856.9" y="646.5" fill="#B31E5A" width="1" height="1"/>
						<rect x="857.9" y="646.5" fill="#C62777" width="1" height="1"/>
						<rect x="846.1" y="647.5" fill="#BEAE97" width="1" height="1"/>
						<rect x="847.1" y="647.5" fill="#908275" width="1" height="1"/>
						<rect x="848.1" y="647.5" fill="#6F6459" width="1" height="1"/>
						<rect x="849" y="647.5" fill="#524944" width="1" height="1"/>
						<rect x="850" y="647.5" fill="#B7986F" width="1" height="1"/>
						<rect x="851" y="647.5" fill="#987C55" width="1" height="1"/>
						<rect x="852" y="647.5" fill="#7F633F" width="1" height="1"/>
						<rect x="853" y="647.5" fill="#573B1D" width="1" height="1"/>
						<rect x="854" y="647.5" fill="#3D281A" width="1" height="1"/>
						<rect x="846.1" y="649" fill="#040506" width="1" height="1"/>
						<rect x="847.1" y="649" fill="#373737" width="1" height="1"/>
						<rect x="848.1" y="649" fill="#4F4F4F" width="1" height="1"/>
						<rect x="849" y="649" fill="#7F7F80" width="1" height="1"/>
						<rect x="850" y="649" fill="#969595" width="1" height="1"/>
						<rect x="851" y="649" fill="#C8C8C8" width="1" height="1"/>
						<rect x="852" y="649" fill="#E2E2E1" width="1" height="1"/>
						<rect x="853" y="649" fill="#EFEFEE" width="1" height="1"/>
					</g>
					<rect x="846.1" y="653.8" fill="#9F9D9D" width="12.8" height="7.3"/>
					<rect x="846.1" y="679.7" fill="#9F9D9D" width="12.8" height="7"/>
					<g>
						<rect x="846.1" y="665.9" fill="#F9F7F7" width="12.8" height="1.7"/>
						<rect x="846.1" y="668.7" fill="#F9F7F7" width="12.8" height="1.7"/>
						<rect x="846.1" y="671.8" fill="#F9F7F7" width="4.9" height="1.7"/>
						<rect x="846.1" y="674.6" fill="#F9F7F7" width="4.9" height="1.7"/>
						<rect x="854" y="671.2" fill="#F9F7F7" width="4.9" height="1.7"/>
						<rect x="854" y="674" fill="#F9F7F7" width="4.9" height="1.7"/>
					</g>
				</g>
			</g>
		</g>
	</g>
	<g id="playbutton">
		<circle fill="#C42326" cx="807.4" cy="663.5" r="21.5"/>
		<path fill="#FFFFFF" d="M800.9,673.4l0.2-19.8l17,10.1L800.9,673.4z"/>
	</g>
	<g id="lampe">
		<polyline opacity="0.25" fill="#F4EFB3" enable-background="new    " points="833.2,619.7 703.5,721 838.8,721 863.8,647.8 		"/>
		<g>
			<path fill="#3D3D3D" d="M873.9,617.3c-1.3,1.5-3.5,1.6-4.9,0.4l-5.1-4.4c-1.5-1.3-1.6-3.5-0.4-4.9l0,0c1.3-1.5,3.5-1.6,4.9-0.4
				l5.1,4.4C875,613.6,875.1,615.8,873.9,617.3L873.9,617.3z"/>
			<path fill="#F2F0CA" d="M841.5,634.8c-0.3-4.2,2.8-7.8,7-8.1c4.2-0.3,7.8,2.8,8.1,7c0.3,4.2-2.8,7.8-7,8.1
				C845.5,642.1,841.8,639,841.5,634.8z"/>
			<polyline fill="#C62F37" points="853.9,614.9 861.1,606.6 876.2,619.2 868.9,627.6 			"/>
			
				<rect x="887.4" y="610.7" transform="matrix(0.7123 -0.7018 0.7018 0.7123 -196.003 809.9225)" fill="#C62F37" width="5.3" height="66.7"/>
			
				<rect x="909.8" y="677.9" transform="matrix(0.9872 0.1595 -0.1595 0.9872 122.979 -136.5955)" fill="#C62F37" width="5.3" height="39.8"/>
			<path fill="#C62F37" d="M904.2,673.3c0-6.2,5.1-11.3,11.3-11.3s11.3,5.1,11.3,11.3c0,6.2-5.1,11.3-11.3,11.3
				C909.3,684.6,904.2,679.6,904.2,673.3z"/>
			<path fill="#3D3D3D" d="M908.8,673.3c0-3.7,3-6.8,6.8-6.8s6.8,3,6.8,6.8c0,3.8-3,6.8-6.8,6.8S908.8,677.1,908.8,673.3z"/>
			<path fill="#AF1A34" d="M864.8,721.3L864.8,721.3c0-5.9,4.8-10.7,10.7-10.7h36c5.9,0,10.7,4.8,10.7,10.7l0,0"/>
			<path fill="#C62F37" d="M863.6,648.1c8.6-9.3,8.7-23.1,0.3-30.9c-8.4-7.8-22.2-6.6-30.8,2.7"/>
			<path opacity="0.3" fill="#FFFFFF" enable-background="new    " d="M867.8,612.2l-6.8-5.6l-5.3,6.1c-7.6-2-16.5,0.5-22.7,7.1
				l14.3,13.2"/>
		</g>
	</g>
	<g id="zettel">
		<g>
			<g>
				<g opacity="0.15">
					<rect x="754.3" y="697.1" fill="#040506" width="13.3" height="14.6"/>
				</g>
				<g>
					<rect x="754.9" y="696.5" fill="#89B75D" width="13.3" height="14.6"/>
				</g>
			</g>
			<polygon fill="#72AC43" points="766,711 766,708.9 768.4,708.9 768.4,711 			"/>
			<g>
				
					<line opacity="0.2" fill="none" stroke="#4A4848" stroke-miterlimit="10" enable-background="new    " x1="757.1" y1="700.3" x2="765.7" y2="700.3"/>
				
					<line opacity="0.2" fill="none" stroke="#4A4848" stroke-miterlimit="10" enable-background="new    " x1="757.1" y1="702" x2="765.7" y2="702"/>
				
					<line opacity="0.2" fill="none" stroke="#4A4848" stroke-miterlimit="10" enable-background="new    " x1="757.1" y1="703.7" x2="765.7" y2="703.7"/>
				
					<line opacity="0.2" fill="none" stroke="#4A4848" stroke-miterlimit="10" enable-background="new    " x1="757.1" y1="705.4" x2="765.7" y2="705.4"/>
				
					<line opacity="0.2" fill="none" stroke="#4A4848" stroke-miterlimit="10" enable-background="new    " x1="757.1" y1="707.1" x2="765.7" y2="707.1"/>
			</g>
		</g>
		<g>
			<g opacity="0.15">
				<rect x="758" y="695.2" fill="#040506" width="6.6" height="2.6"/>
			</g>
			<g>
				<rect x="758.3" y="695.2" fill="#A5C786" width="6.6" height="2.6"/>
			</g>
		</g>
	</g>
</g>
<g id="fenster_bg">
	<rect x="1011.6" y="574.2" fill="#BADCF1" width="199.6" height="145.2"/>
	<g id="wolken">
		<path fill="#FFFFFF" d="M1073.7,589.7c-0.3,0-0.7,0-1,0.1c-1-6.2-6.4-11-12.9-11c-5.5,0-10.2,3.4-12.1,8.1
			c-2.5-1.1-5.3-1.7-8.2-1.7c-11.3,0-20.5,9.2-20.5,20.5c0,11.3,9.2,20.5,20.5,20.5c6.5,0,12.3-3,16-7.7c1.9,1.7,4.5,2.8,7.2,2.8
			c6,0,10.9-4.9,10.9-10.9c0-1.1-0.2-2.2-0.5-3.2c0.2,0,0.3,0,0.5,0c4.8,0,8.7-3.9,8.7-8.7C1082.4,593.6,1078.5,589.7,1073.7,589.7z
			"/>
		<path fill="#FFFFFF" d="M1138.5,607c0-0.8-0.3-1.5-0.9-2.1c0.6-0.9,0.9-2,0.9-3.1c0-3.3-2.7-5.9-5.9-5.9c-3,0-5.5,2.3-5.9,5.2
			c0,0,0,0-0.1,0c-2.2,0-4.1,1.8-4.1,4.1c0,2.2,1.8,4.1,4.1,4.1c1.5,0,2.8-0.8,3.5-2c0.7,0.3,1.6,0.5,2.4,0.5h0.1
			c0.3,1.3,1.5,2.2,2.9,2.2C1137.2,609.9,1138.5,608.6,1138.5,607z"/>
		<path fill="#FFFFFF" d="M1183,607.1c-6.6,0-12.4,3.7-15.3,9.1c-2.8-3.6-7.2-5.9-12.1-5.9c-8.6,0-15.5,6.9-15.5,15.5
			s6.9,15.5,15.5,15.5c0.3,0,0.6,0,0.9,0c1.6,5.8,6.9,10,13.2,10c6,0,11-3.8,12.9-9.1c0.2,0,0.3,0,0.5,0c9.7,0,17.5-7.8,17.5-17.5
			C1200.6,615,1192.6,607.1,1183,607.1z"/>
	</g>
	<circle id="sonne_morgens" fill="#F6DD37" cx="1079.2" cy="653.4" r="16.6"/>
	<g id="berge">
		<path fill="#B6CB5C" d="M1013.3,666.1c0,0,17.6-34,29.8-34s23.6,27.6,37.6,27.6s15.5-18.4,25.5-18.1c10,0.2,13.6,26.2,99.2,26.2
			v53.3h-193.9L1013.3,666.1z"/>
		<path fill="#A2BB6A" d="M1011.6,680.6c84.2,0,89.9-23,123.8-23c33.8,0,29.8,23,73.8,23v38.7h-198.1L1011.6,680.6z"/>
		<path fill="#78AA69" d="M1011.4,692.3c0,0,13.6-10.9,36.5-10.9c22.9,0,32.5,18.8,62.2,18.8c29.7,0,39.5-22.2,66.4-22.2
			s32.6,24,32.6,24v19.1h-198.1L1011.4,692.3z"/>
	</g>
	<circle id="sonne_mittag" fill="#F6DD37" cx="1100" cy="609.9" r="16.6"/>
	<path id="mond" fill="#EFF5F6" d="M1094.8,609.7c0-7.2,5.1-13.4,12.1-15.4c-1.6-0.5-3.4-0.7-5.2-0.7c-9.6,0-17.3,7.2-17.3,16.2
		c0,8.9,7.8,16.2,17.3,16.2c1.8,0,3.6-0.3,5.2-0.7C1099.9,623,1094.8,616.9,1094.8,609.7z"/>
	<g id="sterne">
		<path fill="#EBF4F6" d="M1062.2,636.4c-0.2-0.1-0.4-0.1-0.7-0.2c0-0.1,0.1-0.2,0.1-0.2c-0.1,0-0.2,0.1-0.2,0.1
			c-0.1-0.2-0.1-0.5-0.2-0.7c-0.1,0.2-0.1,0.4-0.2,0.7c-0.1,0-0.2-0.1-0.2-0.1c0,0.1,0.1,0.2,0.1,0.2c-0.2,0.1-0.5,0.1-0.7,0.2
			c0.2,0.1,0.4,0.1,0.7,0.2c0,0.1-0.1,0.2-0.1,0.2c0.1,0,0.2-0.1,0.2-0.1c0.1,0.2,0.1,0.5,0.2,0.7c0.1-0.2,0.1-0.4,0.2-0.7
			c0.1,0,0.2,0.1,0.2,0.1c0-0.1-0.1-0.2-0.1-0.2C1061.7,636.5,1062,636.5,1062.2,636.4z"/>
		<path fill="#EBF4F6" d="M1129.3,581.4c-0.2-0.1-0.4-0.1-0.7-0.2c0-0.1,0.1-0.2,0.1-0.2c-0.1,0-0.2,0.1-0.2,0.1
			c-0.1-0.2-0.1-0.5-0.2-0.7c-0.1,0.2-0.1,0.4-0.2,0.7c-0.1,0-0.2-0.1-0.2-0.1c0,0.1,0.1,0.2,0.1,0.2c-0.2,0.1-0.5,0.1-0.7,0.2
			c0.2,0.1,0.4,0.1,0.7,0.2c0,0.1-0.1,0.2-0.1,0.2c0.1,0,0.2-0.1,0.2-0.1c0.1,0.2,0.1,0.5,0.2,0.7c0.1-0.2,0.1-0.4,0.2-0.7
			c0.1,0,0.2,0.1,0.2,0.1c0-0.1-0.1-0.2-0.1-0.2C1128.8,581.5,1129.1,581.5,1129.3,581.4z"/>
		<path fill="#EBF4F6" d="M1147,648.8c-0.2-0.1-0.4-0.1-0.7-0.2c0-0.1,0.1-0.2,0.1-0.2c-0.1,0-0.2,0.1-0.2,0.1
			c-0.1-0.2-0.1-0.5-0.2-0.7c-0.1,0.2-0.1,0.4-0.2,0.7c-0.1,0-0.2-0.1-0.2-0.1c0,0.1,0.1,0.2,0.1,0.2c-0.2,0.1-0.5,0.1-0.7,0.2
			c0.2,0.1,0.4,0.1,0.7,0.2c0,0.1-0.1,0.2-0.1,0.2c0.1,0,0.2-0.1,0.2-0.1c0.1,0.2,0.1,0.5,0.2,0.7c0.1-0.2,0.1-0.4,0.2-0.7
			c0.1,0,0.2,0.1,0.2,0.1c0-0.1-0.1-0.2-0.1-0.2C1146.5,648.9,1146.8,648.9,1147,648.8z"/>
		<path fill="#EBF4F6" d="M1082.1,580.4c-0.2-0.1-0.4-0.1-0.7-0.2c0-0.1,0.1-0.2,0.1-0.2c-0.1,0-0.2,0.1-0.2,0.1
			c-0.1-0.2-0.1-0.5-0.2-0.7c-0.1,0.2-0.1,0.4-0.2,0.7c-0.1,0-0.2-0.1-0.2-0.1c0,0.1,0.1,0.2,0.1,0.2c-0.2,0.1-0.5,0.1-0.7,0.2
			c0.2,0.1,0.4,0.1,0.7,0.2c0,0.1-0.1,0.2-0.1,0.2c0.1,0,0.2-0.1,0.2-0.1c0.1,0.2,0.1,0.5,0.2,0.7c0.1-0.2,0.1-0.4,0.2-0.7
			c0.1,0,0.2,0.1,0.2,0.1c0-0.1-0.1-0.2-0.1-0.2C1081.6,580.5,1081.9,580.5,1082.1,580.4z"/>
		<path fill="#EBF4F6" d="M1154.8,584.1c-0.2-0.1-0.4-0.1-0.7-0.2c0-0.1,0.1-0.2,0.1-0.2c-0.1,0-0.2,0.1-0.2,0.1
			c-0.1-0.2-0.1-0.5-0.2-0.7c-0.1,0.2-0.1,0.4-0.2,0.7c-0.1,0-0.2-0.1-0.2-0.1c0,0.1,0.1,0.2,0.1,0.2c-0.2,0.1-0.5,0.1-0.7,0.2
			c0.2,0.1,0.4,0.1,0.7,0.2c0,0.1-0.1,0.2-0.1,0.2c0.1,0,0.2-0.1,0.2-0.1c0.1,0.2,0.1,0.5,0.2,0.7c0.1-0.2,0.1-0.4,0.2-0.7
			c0.1,0,0.2,0.1,0.2,0.1c0-0.1-0.1-0.2-0.1-0.2C1154.3,584.2,1154.6,584.2,1154.8,584.1z"/>
		<circle fill="#EBF4F6" cx="1106" cy="605.2" r="0.6"/>
		<circle fill="#EBF4F6" cx="1092" cy="587.5" r="0.6"/>
		<circle fill="#EBF4F6" cx="1126.1" cy="644.1" r="0.6"/>
		<circle fill="#EBF4F6" cx="1043.2" cy="578.4" r="0.6"/>
		<circle fill="#EBF4F6" cx="1175.9" cy="658.8" r="0.6"/>
		<circle fill="#EBF4F6" cx="1126" cy="619.5" r="0.4"/>
		<circle fill="#EBF4F6" cx="1161.7" cy="596.1" r="0.4"/>
		<circle fill="#EBF4F6" cx="1018.1" cy="580.9" r="0.4"/>
		<circle fill="#EBF4F6" cx="1084.2" cy="648.6" r="0.4"/>
		<circle fill="#EBF4F6" cx="1015" cy="599.8" r="0.4"/>
		<circle fill="#EBF4F6" cx="1019" cy="639.1" r="0.4"/>
		<circle fill="#EBF4F6" cx="1193.8" cy="644.9" r="0.4"/>
		<circle fill="#EBF4F6" cx="1196.4" cy="591.1" r="0.4"/>
	</g>
</g>
<g id="fenster">
	<polygon fill="#BBDBE4" points="999.4,562.4 999.4,726.2 1001.6,726.2 1001.6,564.7 	"/>
	<polygon fill="#BBDBE4" points="1218.3,562.4 1218.3,726.2 1216.1,726.2 1216.1,564.7 	"/>
	<polygon fill="#9FC0CB" points="1151,562.4 1005.4,562.4 999.4,562.4 1001.6,564.7 1005.4,564.7 1151,564.7 1216.1,564.7 
		1218.3,562.4 	"/>
	<rect x="1010.4" y="714.8" fill="#FFFFFF" width="196.8" height="2.2"/>
	<polygon fill="#E5E5E5" points="1207.3,564.7 1207.3,717 1010.4,717 1010.4,564.7 1001.6,564.7 1001.6,723.5 1010.4,723.5 
		1207.3,723.5 1207.3,723.5 1216.1,723.5 1216.1,564.7 	"/>
	<rect x="993.2" y="727.7" fill="#D9DAD8" width="231.7" height="5.7"/>
	<polygon fill="#FAFBFB" points="1216.1,723.5 1001.6,723.5 993.2,727.7 1224.5,727.7 	"/>
	<g>
		<g>
			<rect x="1010.4" y="574" fill="#C2C2C1" width="1.9" height="142.9"/>
			<g>
				<path fill="#373737" d="M1012.3,608.9c0,0.8-0.6,1.4-1.4,1.4l0,0c-0.8,0-1.4-0.6-1.4-1.4v-6.5c0-0.8,0.6-1.4,1.4-1.4l0,0
					c0.8,0,1.4,0.6,1.4,1.4V608.9z"/>
				<path fill="#373737" d="M1012.3,682.4c0,0.8-0.6,1.4-1.4,1.4l0,0c-0.8,0-1.4-0.6-1.4-1.4v-6.5c0-0.8,0.6-1.4,1.4-1.4l0,0
					c0.8,0,1.4,0.6,1.4,1.4V682.4z"/>
			</g>
			<polygon fill="#CBCBCB" points="1025.9,580.1 1025.9,619.1 1027.9,619.3 1027.9,580.5 			"/>
			<polygon fill="#CBCBCB" points="1025.9,622.7 1025.9,665.8 1027.9,665.7 1027.9,622.9 			"/>
			<polygon fill="#CBCBCB" points="1025.9,669.6 1025.9,708.7 1027.9,708.3 1027.9,669.5 			"/>
			<polygon fill="#CBCBCB" points="1041.7,582.8 1041.7,620.3 1043.3,620.5 1043.3,583.1 			"/>
			<polygon fill="#CBCBCB" points="1041.7,623.8 1041.7,665.4 1043.3,665.4 1043.3,623.9 			"/>
			<polygon fill="#CBCBCB" points="1041.7,668.9 1041.7,705.9 1043.3,705.6 1043.3,668.8 			"/>
			<path fill="#F2F1F1" d="M1012.3,574v142.9l49.5-9.6V582.5L1012.3,574z M1027.9,708.3l-12.3,2.2V670l12.3-0.5V708.3z
				 M1027.9,665.7l-12.3,0.3v-44l12.3,0.8V665.7z M1027.9,619.3l-12.3-1v-39.9l12.3,2.1V619.3z M1043.3,705.6l-12,2.1v-38.4l12-0.5
				V705.6z M1043.3,665.4l-12,0.3v-42.6l12,0.8V665.4z M1043.3,620.5l-12-1V581l12,2V620.5z M1056,703.4l-9.9,1.7v-36.4l9.9-0.4
				V703.4z M1056,665.1l-9.9,0.2v-41.2l9.9,0.7V665.1z M1056,621.5l-9.9-0.8v-37.1l9.9,1.7V621.5z"/>
			<polygon fill="#CBCBCB" points="1054.3,584.9 1054.3,621.3 1056,621.5 1056,585.2 			"/>
			<polygon fill="#CBCBCB" points="1054.3,624.6 1054.3,665.2 1056,665.1 1056,624.7 			"/>
			<polygon fill="#CBCBCB" points="1054.3,668.4 1054.3,703.7 1056,703.4 1056,668.3 			"/>
		</g>
		<g>
			<rect x="1057" y="638.9" fill="#535341" width="4.7" height="8.9"/>
			<path fill="#A3A072" d="M1064.5,644.1c0-0.6-0.1-1.2-0.2-1.6c-0.1-0.2-0.1-0.4-0.2-0.5c-0.1-0.2-0.1-0.2-0.1-0.2s0-0.1-0.1-0.1
				c-0.4-1.2-1.5-2-2.9-2c-1.7,0-3.1,1.4-3.1,3.1c0,1.4,1,2.6,2.3,2.9c0.1,0.2,0.2,0.4,0.3,0.6c0.1,0.2,0.2,0.5,0.2,0.8
				c0.1,0.3,0.1,0.6,0.2,0.8c0,0.3,0.1,0.6,0.1,0.9c0,0.3,0,0.6,0,0.9s0,0.6,0,0.9c0,0.3-0.1,0.5-0.1,0.8c-0.1,0.5-0.2,0.9-0.2,1.2
				c0,0.3-0.1,0.5-0.1,0.5s0.1-0.1,0.3-0.3c0.2-0.2,0.5-0.5,0.8-1c0.2-0.2,0.3-0.4,0.5-0.7c0.2-0.2,0.3-0.5,0.5-0.8
				c0.2-0.3,0.3-0.6,0.5-0.9c0.2-0.3,0.3-0.7,0.4-1c0.1-0.3,0.2-0.7,0.3-1.1c0.1-0.4,0.2-0.7,0.2-1.1c0.1-0.4,0.1-0.7,0.1-1.1
				C1064.5,644.8,1064.5,644.5,1064.5,644.1z"/>
		</g>
	</g>
	<g>
		<g>
			<rect x="1205.4" y="574" fill="#C2C2C1" width="1.9" height="142.9"/>
			<g>
				<path fill="#373737" d="M1205.4,608.9c0,0.8,0.6,1.4,1.4,1.4l0,0c0.8,0,1.4-0.6,1.4-1.4v-6.5c0-0.8-0.6-1.4-1.4-1.4l0,0
					c-0.8,0-1.4,0.6-1.4,1.4V608.9z"/>
				<path fill="#373737" d="M1205.4,682.4c0,0.8,0.6,1.4,1.4,1.4l0,0c0.8,0,1.4-0.6,1.4-1.4v-6.5c0-0.8-0.6-1.4-1.4-1.4l0,0
					c-0.8,0-1.4,0.6-1.4,1.4V682.4z"/>
			</g>
			<polygon fill="#CBCBCB" points="1191.7,580.1 1191.7,619.1 1189.7,619.3 1189.7,580.5 			"/>
			<polygon fill="#CBCBCB" points="1191.7,622.7 1191.7,665.8 1189.7,665.7 1189.7,622.9 			"/>
			<polygon fill="#CBCBCB" points="1191.7,669.6 1191.7,708.7 1189.7,708.3 1189.7,669.5 			"/>
			<polygon fill="#CBCBCB" points="1175.9,582.8 1175.9,620.3 1174.3,620.5 1174.3,583.1 			"/>
			<polygon fill="#CBCBCB" points="1175.9,623.8 1175.9,665.4 1174.3,665.4 1174.3,623.9 			"/>
			<polygon fill="#CBCBCB" points="1175.9,668.9 1175.9,705.9 1174.3,705.6 1174.3,668.8 			"/>
			<path fill="#F2F1F1" d="M1155.7,582.5v125l49.5,9.6V574L1155.7,582.5z M1189.7,669.5l12.3,0.5v40.5l-12.3-2.2V669.5z
				 M1189.7,622.9l12.3-0.8v44l-12.3-0.3V622.9z M1189.7,580.5l12.3-2.1v39.9l-12.3,1V580.5z M1174.3,668.8l12,0.5v38.4l-12-2.1
				V668.8z M1174.3,623.9l12-0.8v42.6l-12-0.3V623.9z M1174.3,583.1l12-2v38.5l-12,1V583.1z M1161.6,668.3l9.9,0.4v36.4l-9.9-1.7
				V668.3z M1161.6,624.7l9.9-0.7v41.2l-9.9-0.2V624.7z M1161.6,585.2l9.9-1.7v37.2l-9.9,0.8V585.2z"/>
			<polygon fill="#CBCBCB" points="1163.3,584.9 1163.3,621.3 1161.6,621.5 1161.6,585.2 			"/>
			<polygon fill="#CBCBCB" points="1163.3,624.6 1163.3,665.2 1161.6,665.1 1161.6,624.7 			"/>
			<polygon fill="#CBCBCB" points="1163.3,668.4 1163.3,703.7 1161.6,703.4 1161.6,668.3 			"/>
		</g>
		<g>
			<rect x="1155.9" y="638.9" fill="#535341" width="4.7" height="8.9"/>
			<path fill="#A3A072" d="M1153.1,644.1c0-0.6,0.1-1.2,0.2-1.6c0.1-0.2,0.1-0.4,0.2-0.5c0.1-0.2,0.1-0.2,0.1-0.2s0-0.1,0.1-0.1
				c0.4-1.2,1.5-2,2.9-2c1.7,0,3.1,1.4,3.1,3.1c0,1.4-1,2.6-2.3,2.9c-0.1,0.2-0.2,0.4-0.3,0.6c-0.1,0.2-0.2,0.5-0.2,0.8
				c-0.1,0.3-0.1,0.6-0.2,0.8c0,0.3-0.1,0.6-0.1,0.9c0,0.3,0,0.6,0,0.9s0,0.6,0,0.9c0,0.3,0.1,0.5,0.1,0.8c0.1,0.5,0.2,0.9,0.2,1.2
				c0,0.3,0.1,0.5,0.1,0.5s-0.1-0.1-0.3-0.3c-0.2-0.2-0.5-0.5-0.8-1c-0.2-0.2-0.3-0.4-0.5-0.7c-0.2-0.2-0.3-0.5-0.5-0.8
				s-0.3-0.6-0.5-0.9c-0.2-0.3-0.3-0.7-0.4-1c-0.1-0.3-0.2-0.7-0.3-1.1c-0.1-0.4-0.2-0.7-0.2-1.1c-0.1-0.4-0.1-0.7-0.1-1.1
				C1153.1,644.8,1153.1,644.5,1153.1,644.1z"/>
		</g>
	</g>
	<g>
		<rect x="1001.5" y="564.7" fill="#81807D" width="214.6" height="2.6"/>
		<rect x="1001.5" y="567.3" fill="#5F6255" width="214.6" height="1.3"/>
		<rect x="1001.5" y="568.6" fill="#636459" width="214.6" height="1.3"/>
		<rect x="1001.5" y="572.6" fill="#7C7C75" width="214.6" height="1.3"/>
		<rect x="1001.5" y="573.9" fill="#75746D" width="214.6" height="1.3"/>
		<rect x="1001.5" y="569.9" fill="#5F6255" width="214.6" height="1.3"/>
		<rect x="1001.5" y="571.3" fill="#636459" width="214.6" height="1.3"/>
	</g>
</g>
</svg>
