<svg id="uebung-mittag" version="1.1" id="Ebene_1" xmlns="http://www.w3.org/2000/svg" xmlns:xlink="http://www.w3.org/1999/xlink" x="0px" y="0px"
	 viewBox="0 0 1208 841.9" enable-background="new 0 0 1208 841.9" xml:space="preserve">
<g>
<g>
	<rect x="362.8" y="10" fill="#FFFFFF" width="482.4" height="132.7"/>
	<rect x="377.5" y="24.9" fill="none" width="453" height="105"/>
	<text transform="matrix(1 0 0 1 397.5918 61.6898)"><tspan x="0" y="0" font-family="'CenturyGothic'" font-size="50">Deine Übung am </tspan><tspan x="127.6" y="60" font-family="'CenturyGothic'" font-size="50">Mittag</tspan></text>
</g>
<g>
	<rect x="116.5" y="153.8" fill="#F9C0C0" width="482.4" height="132.7"/>
	<rect x="107.1" y="180.9" fill="none" width="453" height="105"/>
	<text transform="matrix(1 0 0 1 246.1722 210.3295)"><tspan x="0" y="0" font-family="'CenturyGothic'" font-size="40">1. Dehne  </tspan><tspan x="-58.7" y="48" font-family="'CenturyGothic'" font-size="40">deinen Rücken</tspan></text>
</g>
<g>
	<rect x="658" y="153.8" fill="#F9C0C0" width="482.4" height="132.7"/>
	<rect x="684.3" y="179.9" fill="none" width="453" height="105"/>
	<text transform="matrix(1 0 0 1 813.5894 209.3295)"><tspan x="0" y="0" font-family="'CenturyGothic'" font-size="40">2. Kräftige </tspan><tspan x="-48.9" y="48" font-family="'CenturyGothic'" font-size="40">deinen Rücken</tspan></text>
</g>
<g>
	<g id="Ebene_4">
		<path id="XMLID_27_" fill="#3F3F3F" d="M271.5,640.7l88.5,25.2c0,0,11.1-10.2,15.3-12.6l52.1-29.4c-2.5-16.2-4.6-33.5-6.3-51.8
			c-2.1-24-2.8-46.6-2.7-67.4c-9.3-0.3-18.4-0.4-27.7-0.7C350.9,549.5,311.2,595.2,271.5,640.7z"/>
		<path id="XMLID_29_" fill="#3F3F3F" d="M353.9,664v106.3c2.2,1,4.5,2.1,6.7,3.3c2.2-1.2,4.5-2.4,6.7-3.4
			c-0.1-37.3-0.1-74.6-0.3-111.9C362.7,660.1,358.2,662,353.9,664z"/>
		<path id="XMLID_28_" fill="#3F3F3F" d="M413.8,623.5v106.3c2.2,1,4.5,2.1,6.7,3.3c2.2-1.2,4.5-2.4,6.7-3.4
			c0-35.5-0.1-70.8-0.1-106.3C422.6,623.4,418.3,623.5,413.8,623.5z"/>
		<path id="XMLID_30_" fill="#3F3F3F" d="M309,595.1v106.3c2.2,1,4.5,2.1,6.7,3.3c2.2-1.2,4.5-2.4,6.7-3.4
			c-0.1-37.3-0.1-74.6-0.3-111.9C317.8,591.2,313.3,593.1,309,595.1z"/>
		<path id="XMLID_31_" fill="#3F3F3F" d="M264,634v106.3c2.2,1,4.5,2.1,6.7,3.3c2.2-1.2,4.5-2.4,6.7-3.4
			c-0.1-37.3-0.1-74.6-0.3-111.9C272.9,630.1,268.4,632.1,264,634z"/>
		<polygon id="XMLID_35_" fill="#353535" points="360,666.4 271.5,642.2 272.4,629.8 360,653.5 426.2,617.1 427.3,627.7 		"/>
	</g>
	<g id="Ebene_2">
		<rect id="XMLID_23_" x="363.2" y="456.8" fill="#F7E7D7" width="15" height="21.7"/>
		<path id="XMLID_33_" fill="#F7E7D7" d="M353.1,474.1c-5.8,1.8-11.8,3.4-17.7,5.2c1.6,15.4,8.7,28.2,19.2,31.6
			c4.3,1.3,8.7,1,12.6,0.6c4.5-0.4,15.3-1.6,22.9-10.2c1.8-1.9,4.5-5.5,6.1-11.1c-4-3.3-9.9-7.3-17.4-10.5
			C368.6,475.4,359.3,474.2,353.1,474.1z"/>
		<rect id="XMLID_34_" x="367.7" y="456.8" fill="#F4DED3" width="10.5" height="21.7"/>
		<path id="XMLID_36_" fill="#F4DED3" d="M367.4,476.8v33.8c1.5,0.1,11.8,0.9,19.6-0.9c4.6-1,7.2-2.8,8.1-3.3c0.3-0.1,1.5-1,2.7-2.2
			c3.9-4,4.8-9.3,5.1-11.8c-1-1.6-2.5-3.3-4.2-4.9c-4.3-4.3-8.8-6.7-12.1-8.2C380.1,478.3,373.7,477.5,367.4,476.8z"/>
		<path id="XMLID_26_" fill="#3F3F3F" d="M279,751.9c0,0-27.1,19.2-28.9,19.6c0,0-10.6,10.2,7.3,12.3c0,0,16.3-4,24.3-10
			c0,0,5.1-6.3,11.5-4l6.6-0.7c0,0,0.9-1.5,1.3-3.3l-0.4-12L279,751.9z"/>
		<path id="XMLID_22_" fill="#AAAAAA" d="M316.5,583.5l-58.7,46c0,0-4.8,7.5-2.2,14.2l20.7,107.8c0,0,19.8,4.8,24.7,2.2l-6.3-104.5
			l15.3-6.7l6.6,117.3c0,0,13.8,4.5,25.2,0l9-112.3l41.6-18c0,0,8.7-13.6,7.2-27C397.9,589.2,316.5,583.5,316.5,583.5z"/>
		<path id="XMLID_20_" fill="#F4DED3" d="M412.1,507.2c-0.6,14.5-0.6,30.4,0.1,47.3c1,25,3.7,47.6,7,67.5l4,6
			c-0.4-0.1-0.9-0.3-1.5-0.3c-1.8,0-3.1,1.3-3.4,1.8c-0.3,4.3-0.7,8.8-1,13.2c-2.2,1.5-4.5,2.8-6.9,4.3c-2.1-2.8-4-5.8-6.1-8.7
			c0.7-7,1.3-14.1,2.1-21.1c-3.3-21.4-6.6-42.8-9.7-64.2c-1.2-14.4-2.5-28.9-3.7-43.3C399.3,508.8,405.7,508.1,412.1,507.2z"/>
		<path id="XMLID_21_" fill="#F7E7D7" d="M343.3,466c-1-15.7-2.1-31.9-2.8-48.2c-1-23.2-1.6-45.8-1.9-67.8l3.1-6.4
			c-0.3,0.1-0.9,0.4-1.5,0.4c-1.8,0.3-3.3-0.9-3.6-1.2c-0.9-4.3-1.8-8.7-2.7-12.9c-2.4-1.2-4.9-2.2-7.3-3.4
			c-1.6,3.1-3.3,6.3-4.9,9.4c1.6,6.9,3.3,13.8,4.9,20.5c-0.6,21.3-1,42.8-1.2,65c-0.1,17.7,0,35.2,0.1,52.3
			C331.4,471.1,337.3,468.5,343.3,466z"/>
		<path id="XMLID_18_" fill="#56BFAD" d="M354,473.8c0,0-5.2,38.3,33.2,5.2c4.6,1.8,9.3,3.6,14.1,5.2c4.2,7.9,8.4,15.9,12.4,23.7
			c-6.9,1.6-13.6,3.1-20.5,4.8c1.9,30,3.9,59.9,5.8,89.9c-9.7,0.6-20.7,0.6-32.6-0.4c-22.9-1.9-42.4-7.2-57.4-12.4
			c5.7-30.4,11.5-60.8,17.2-91.1c-1-8.1-2.1-16.2-3-24.3c7.2-3.9,14.5-7.8,21.7-11.8C348.1,466.1,351,470,354,473.8z"/>
		<path id="XMLID_25_" fill="#3F3F3F" d="M317.9,757.9c0,0-27.1,19.2-28.9,19.6c0,0-10.6,10.2,7.3,12.3c2.8-0.6,5.8-1.5,9.1-2.7
			c5.1-1.9,9.3-4.2,12.6-6.3c1-1,3-2.7,5.8-3.9c3.4-1.3,6.4-1.3,8.1-1.2l6.6-0.7c0,0,0.9-1.5,1.3-3.3l-0.4-12L317.9,757.9z"/>
	</g>
	<g id="Ebene_1_1_">
		<path id="XMLID_1_" fill="#F7E7D7" stroke="#F4E4D0" stroke-miterlimit="10" d="M402.4,440.7c-1,1.5-18.1,24.7-40.4,19.6
			c-18.6-4.2-26.5-24.9-28.2-36.5c-3.4-23.4,12.4-47.3,30.4-51.8c8.8-2.2,17.8,0,17.8,0s9.3,2.2,16.5,8.4
			C412.7,392.6,416.2,421.3,402.4,440.7z"/>
		<path id="XMLID_3_" fill="#F4DED3" d="M358.5,372.8c-0.6,28.6-1.2,57.1-1.8,85.7c3.4,1.3,11.2,3.9,20.4,1.5
			c6.4-1.6,11.1-5.2,13.3-7c3.4-2.7,5.5-5.2,7.2-7.2c2.4-2.8,6-7.2,8.2-13.6c2.1-6,2.1-10.9,2.1-14.8c0-3.7-0.3-12.9-5.7-22.8
			c-3.6-6.7-7.9-10.6-8.8-11.4c-3.7-3.4-7.3-5.2-9.6-6.3c-2.5-1.3-6.3-3.1-11.4-4.2C367.2,371.6,362.3,372.1,358.5,372.8z"/>
		
			<ellipse id="XMLID_7_" transform="matrix(-9.988424e-03 -1 1 -9.988424e-03 -34.3396 789.8459)" fill="#649977" cx="373.8" cy="411.9" rx="4.3" ry="3.7"/>
		
			<ellipse id="XMLID_8_" transform="matrix(-9.988424e-03 -1 1 -9.988424e-03 -63.5285 761.8457)" fill="#649977" cx="345.4" cy="412.4" rx="4.3" ry="3.7"/>
		<circle id="XMLID_11_" fill="#FFFFFF" cx="374.3" cy="410.9" r="1.8"/>
		<circle id="XMLID_12_" fill="#FFFFFF" cx="345.8" cy="411.3" r="1.8"/>
		<polygon id="XMLID_14_" fill="#EDBFAB" points="357.8,421.9 352.5,430.5 357.9,435.7 		"/>
		<path id="XMLID_16_" fill="#F4DED3" d="M453.5,463.4"/>
		<path id="XMLID_17_" fill="#DD9480" d="M349.4,442c1.9,0.6,4.5,1.3,7.3,1.6c2.8,0.4,5.5,0.4,7.6,0.3c-1.2,0.6-2.8,1.3-5.1,1.5
			C354,445.8,350.3,442.8,349.4,442z"/>
		<path id="XMLID_15_" fill="#725044" d="M366.5,400.5c0,0,12.7-3.3,20.8,1.6c0,0-18-1.2-19,0.1C368.1,402.3,366,402.6,366.5,400.5z
			"/>
		<path id="XMLID_13_" fill="#725044" d="M352.7,400.7c0,0-12.7-3-20.8,2.1c0,0,18-1.5,19-0.1C351,402.6,353.3,402.8,352.7,400.7z"
			/>
	</g>
	<g id="Ebene_3">
		<path id="XMLID_19_" fill="#725044" d="M388.5,389.3c-1.8,1.3-4.2,2.7-7,3.6c-11.7,3.7-22.5-3.4-24.4-4.8
			c-0.6-0.6-1.8-1.6-3.7-2.2c-2.2-0.6-4-0.1-4.8,0c-1.3,0.6-2.8,1.2-4.3,2.2c-7.6,5.5-8.7,15.1-8.8,17.8c1.2-17.8,11.7-32.8,26.7-38
			c14.4-4.9,27.6,1,29.4,1.8c2.8,1.3,10.6,5.1,16.2,14.1c5.1,8.4,5.1,16.6,5.1,23.2c0,11.1-3.3,20.2-6.1,26.2
			c0.6-3.7,1.2-9.6-0.7-16.5c-0.7-2.7-1.8-5.1-2.8-6.9c-3-2.7-6.7-6.7-10.2-12.1C390.9,394.7,389.5,391.8,388.5,389.3z"/>
	</g>
</g>
<g>
	<g id="Ebene_3_1_">
		<path id="XMLID_58_" fill="#E6E6E6" stroke="#CCCCCC" stroke-width="0.25" stroke-miterlimit="10" d="M853.1,667
			c2.3,2,5.5,2.7,8.3,1.7c3-1.1,5.1-3.7,5.5-6.9c2.9,2.3,5.7,4.6,8.7,6.9c2.5,1.5,4.8,2.4,6.3,2.9c1.9,0.6,3.6,0.7,4.9,1
			c3.7,0.5,4.5,0,6.7,0.5c1.4,0.4,3.5,1,5.7,2.9c0.1,0.1,2.3,3.2,0.7,6.7c-1.5,3.6-5.2,4-5.5,4c-3.1,0.7-7.5,1.4-12.9,1.2
			c-7.4-0.5-13.2-2.7-16.5-4.5c-0.5,0.2-5.6,2.6-10,0c-2.5-1.4-3.5-3.8-3.7-4.5C849,673.2,852.7,667.6,853.1,667z"/>
		<path id="XMLID_57_" fill="#E6E6E6" stroke="#CCCCCC" stroke-width="0.25" stroke-miterlimit="10" d="M881.7,510.2
			c6.1,13.2,12.1,26.4,18.2,39.6c-1.1,11.8-3.1,25.1-6.8,39.6c-6.3,25.1-15.7,45.7-24.2,61.1c-3.8-41.3-7.7-82.7-11.5-124.1
			L881.7,510.2z"/>
		<path id="XMLID_56_" fill="#E6E6E6" stroke="#CCCCCC" stroke-width="0.25" stroke-miterlimit="10" d="M809.5,537.9
			c0,0,22.5,32.1,31.3,38.5c-0.5,14.4,0,31,2.4,49.2c3.7,28.3,10.8,52.1,17.9,70.6c4.5-0.7,9-1.3,13.5-2
			c-0.4-16.2-0.8-32.3-1.2-48.5c-0.4-11.8-0.8-23.6-1.2-35.4c0.1-7.5,0.2-15.1,0.4-22.6c1-3.8,1.9-9.5,0.8-16.3
			c-0.4-2.4-1-4.5-1.5-6.3l-14.4-38.7L809.5,537.9z"/>
		<path id="XMLID_55_" fill="#E6E6E6" stroke="#CCCCCC" stroke-width="0.25" stroke-miterlimit="10" d="M832,420.4
			c-5.8,1.8-37.7,12.4-46.1,39.3c-5.7,18.7,2.5,37.3,13.1,61.1c6.1,13.7,12.7,24.3,17.5,31.3c7.5-0.1,16.4-1.2,26.2-3.3
			c14.9-3.3,33.6-9.9,48.2-23c-1.8-5.2-3.6-11.2-5.1-17.6c-2.1-9.2-3.2-17.5-3.8-24.9C865.4,462.4,848.7,441.4,832,420.4z"/>
		<path id="XMLID_54_" fill="#E6E6E6" stroke="#CCCCCC" stroke-width="0.25" stroke-miterlimit="10" d="M920.1,441.2
			c23.6,0.1,47.3,0.2,70.8,0.4c5.6,0.5,13.7,1,23.5,0.1l57.1-14.8l0,0l24.9-2.4l16-14.2l-38.9,5.5c-14.5,1.8-28.9,3.6-43.5,5.4
			c-4.8,0.6-11.9,1.4-20.5,1.7c-10.6,0.4-18.5-0.1-21.8-0.4c-33.9-2.1-69.4-1.8-69.4-2.6c0-0.1,0.7-0.2,3.8-0.5
			c-8.3-0.5-14.4,6.3-13.7,12.3C909,436.4,913.7,440.8,920.1,441.2z"/>
		<path id="XMLID_53_" fill="#E6E6E6" stroke="#CCCCCC" stroke-width="0.25" stroke-miterlimit="10" d="M960.2,427.5
			c1.5-1.8,3.7-4.6,2.9-7.1c-1.4-4.2-10.4-4.2-10.6-7c-0.1-1.9,3.7-2.7,3.6-3.9c-0.5-3.8-38.1-2.6-53.8-2.6c-3.1,0-6.9,0-6.9,0
			c-1.8,0-4,0-7.4,0c-9.9,0-9.4-0.1-10.8,0c-7.5,0.7-56.8,12.9-63.7,21.9c0.5,1.8,1.4,4.2,2.7,7c1.8,3.5,3.5,6,5.7,8.9
			c1.5,2,3.6,4.8,6.2,7.7c1.5,2.1,3.8,5,6.5,8.3c7.5,8.8,14.4,14.6,17.3,16.9c12.1,9.9,28.5,19.2,31.2,16.1c1.3-1.4-1.4-4.5,0.5-9.5
			c1.2-3,3.3-4.9,4.2-5.6c1.2-1,2.5-1.7,6.3-3.5c2.5-1.2,4.9-2,8.2-3c21.7-6.9,26.3-16,43.5-16.7c3-0.1,4.3,0.1,5.7-0.1
			c0,0,0.8-0.1,1.5-0.4C955.7,454.2,958.8,443,960.2,427.5z"/>
		<path id="XMLID_52_" fill="#E6E6E6" stroke="#CCCCCC" stroke-width="0.25" stroke-miterlimit="10" d="M860.3,693.2
			c2.3,2,5.5,2.7,8.3,1.7c3-1.1,5.1-3.7,5.5-6.9c2.9,2.3,5.7,4.6,8.7,6.9c2.5,1.5,4.8,2.4,6.3,2.9c1.9,0.6,3.6,0.7,4.9,1
			c3.7,0.5,4.5,0,6.7,0.5c1.4,0.4,3.5,1,5.7,2.9c0.1,0.1,2.3,3.2,0.7,6.7c-1.5,3.6-5.2,4-5.5,4c-3.1,0.7-7.5,1.4-12.9,1.2
			c-7.4-0.5-13.2-2.7-16.5-4.5c-0.5,0.2-5.6,2.6-10,0c-2.5-1.4-3.5-3.8-3.7-4.5C856.1,699.3,859.8,693.8,860.3,693.2z"/>
		<path id="XMLID_51_" fill="#E6E6E6" stroke="#CCCCCC" stroke-width="0.25" stroke-miterlimit="10" d="M1026.5,405.4
			c0.6,3.1,1.5,9.9-1.2,17.6c-3.8,10.6-11.9,15.7-14.3,17.3c-3.2,1.3-6,2.1-7.9,2.6c-4.3,1.1-6.8,0.8-8.3,2.7
			c-1.8,2.4-2.1,5.6-2.1,5.6l-7-1.5c-3.1,1-6.2,1.8-9.3,2.7c-0.8,0.5-3.5,2-6.1,1.2c-1.4-0.5-2.6-1.5-4.4-4.8
			c-2.9-5.1-3.7-9.9-4-11.5c-1.2-6.4-1.2-9.2-1.7-13.1c-0.6-4.2-1.9-10.1-5.2-17c2.1-0.8,5.1-2.3,8.1-4.6c4.5-3.6,6.9-7.7,8.1-10.2
			c6.4-2.7,12.7-5.5,19.2-8.3c3.3-0.4,17.4-1.3,25,5.7c1.1,1,3.2,3.2,5.4,6C1023.5,399.4,1025.4,403,1026.5,405.4z"/>
		<path id="XMLID_50_" fill="#E6E6E6" stroke="#CCCCCC" stroke-width="0.25" stroke-miterlimit="10" d="M996.3,444.3
			c-0.5,0.6-1.1,1.3-1.5,2.1c-1.1,1.8-1.7,3.5-2,4.9l-7-1.5C989.2,447.9,992.8,446.1,996.3,444.3z"/>
		
			<ellipse id="XMLID_49_" transform="matrix(0.3778 0.9259 -0.9259 0.3778 1023.6308 -649.2087)" fill="#E6E6E6" stroke="#CCCCCC" stroke-width="0.5" stroke-miterlimit="10" cx="994.9" cy="437" rx="2.4" ry="3.8"/>
		
			<ellipse id="XMLID_48_" transform="matrix(0.9213 -0.3888 0.3888 0.9213 -91.6012 421.7865)" fill="#E6E6E6" stroke="#CCCCCC" stroke-width="0.5" stroke-miterlimit="10" cx="996.3" cy="437.2" rx="1.4" ry="1"/>
		<path id="XMLID_47_" fill="#E6E6E6" stroke="#CCCCCC" stroke-width="0.25" stroke-miterlimit="10" d="M1001.7,436.8
			c0,0,0.8-4.8-5.4-12.6l2.9,1.4c0,0,6.8,9.8,5.4,12.6C1003,441,1001.7,436.8,1001.7,436.8z"/>
		<path id="XMLID_46_" fill="#E6E6E6" stroke="#CCCCCC" stroke-width="0.25" stroke-miterlimit="10" d="M980.2,451.4
			c0,0-1.7-3.7-1.2-6.9c0,0-2,5.4-1.1,7.6L980.2,451.4z"/>
		<path id="XMLID_45_" fill="#E6E6E6" stroke="#CCCCCC" stroke-width="0.25" stroke-miterlimit="10" d="M1009.4,441.5
			c-0.8-1.8-1.5-3.5-2.4-5.2c3.1-1.7,6.2-3.3,9.2-5c-3.2,1.3-6.3,2.5-9.5,3.8c-0.8-1.7-1.5-3.3-2.4-5c2-1,4.3-1.9,6.3-2.9
			c-2.3,0.6-4.2,1-6.4,1.5c-1-2.1-1.9-4.5-2.7-6.5c3.5-1.4,7.4-3.1,11.3-4.8c-3.8,1.7-8.1,2.5-12,3.7c-0.4-1.1-0.8-2-1.2-3.1
			c-0.5-1-1-1.8-1.3-2.7c3.2-1.2,6.5-2.5,9.8-3.7c-3.1-1-19.8-5.5-33.2,4.3c-2.4,1.7-7.1,5.1-9.4,10.8
			c-9.6,23.2,32.7,67.9,32.7,67.9l-4.9,3.7l-5.8-6.8l4.5,7.3l-9.3,6.3l-1.9-1.8l0.8,2l-8.6,3.8c-29.8-35-39.1-74.9-26.4-97.1
			c8.8-15.6,23.2-23.6,23.2-23.6c4-2.3,13.1-7.1,25.7-7c6.2,0,19.6,0.1,29.3,10.7c9.5,10.2,8.8,23.6,8.6,26.5
			c-0.1,2-0.6,5.6-2.4,9.8c-1.8,3.9-5.2,8.5-12.5,12.6c-2.6,1.1-5.1,2.1-7.7,3.1C1010.1,443.1,1009.7,442.3,1009.4,441.5z"/>
		<path id="XMLID_44_" fill="#E6E6E6" stroke="#CCCCCC" stroke-width="0.25" stroke-miterlimit="10" d="M918.5,444.9
			c23.6,0.7,47.3,1.4,70.8,2.1c5.6,0.7,13.7,1.3,23.3,0.7l57.5-13.3l24.9-1.8l16.3-13.7l-39.1,4.5c-14.5,1.4-29,2.9-43.6,4.3
			c-4.9,0.5-11.9,1.1-20.5,1.2c-5.7,0-10.6-0.1-14.4-0.4c-3.6-0.2-6.2-0.5-7.3-0.6c-16.4-1.4-30.8-1.8-58.7-4.2
			c-2.9-0.2-5.1-0.5-6.8-0.6c-8.3-0.7-14.5,6-14,11.9C907.6,439.8,912.2,444.3,918.5,444.9z"/>
	</g>
	<g id="Ebene_2_1_">
		<path id="XMLID_43_" fill="#3A3A3A" d="M827,746.7c2.3,2,5.5,2.7,8.3,1.7c3-1.1,5.1-3.7,5.5-6.9c2.9,2.3,5.7,4.6,8.7,6.9
			c2.5,1.5,4.8,2.4,6.3,2.9c1.9,0.6,3.6,0.7,4.9,1c3.7,0.5,4.5,0,6.7,0.5c1.4,0.4,3.5,1,5.7,2.9c0.1,0.1,2.3,3.2,0.7,6.7
			c-1.5,3.6-5.2,4-5.5,4c-3.1,0.7-7.5,1.4-12.9,1.2c-7.4-0.5-13.2-2.7-16.5-4.5c-0.5,0.2-5.6,2.6-10,0c-2.5-1.4-3.5-3.8-3.7-4.5
			C822.8,752.9,826.5,747.3,827,746.7z"/>
		<path id="XMLID_42_" fill="#F9DCC7" d="M855.5,589.9c6.1,13.2,12.1,26.4,18.2,39.6c-1.1,11.8-3.1,25.1-6.8,39.6
			c-6.3,25.1-15.7,45.7-24.2,61.1c-3.8-41.3-7.7-82.7-11.5-124.1L855.5,589.9z"/>
		<path id="XMLID_41_" fill="#F7E9D7" d="M783.3,617.7c0,0,22.5,32.1,31.3,38.5c-0.5,14.4,0,31,2.4,49.2
			c3.7,28.3,10.8,52.1,17.9,70.6c4.5-0.7,9-1.3,13.5-2c-0.4-16.2-0.8-32.3-1.2-48.5c-0.4-11.8-0.8-23.6-1.2-35.4
			c0.1-7.5,0.2-15.1,0.4-22.6c1-3.8,1.9-9.5,0.8-16.3c-0.4-2.4-1-4.5-1.5-6.3l-14.4-38.7L783.3,617.7z"/>
		<path id="XMLID_40_" fill="#B7B7B7" d="M805.8,500.2c-5.8,1.8-37.7,12.4-46.1,39.3c-5.7,18.7,2.5,37.3,13.1,61.1
			c6.1,13.7,12.7,24.3,17.5,31.3c7.5-0.1,16.4-1.2,26.2-3.3c14.9-3.3,33.6-9.9,48.2-23c-1.8-5.2-3.6-11.2-5.1-17.6
			c-2.1-9.2-3.2-17.5-3.8-24.9C839.2,542.2,822.6,521.1,805.8,500.2z"/>
		<path id="XMLID_39_" fill="#F9DCC7" d="M913.4,498.5c-23.6-2-47-3.9-70.6-6c-5.6-1-13.6-2-23.3-2l-58.2,10.2l0,0l-25,0.4l-17,13
			l39.3-2.4c14.5-0.6,29.2-1.3,43.7-1.9c4.9-0.2,12-0.5,20.6-0.1c10.6,0.5,18.3,1.5,21.7,2c33.7,4.8,69.1,7.3,69.1,8.2
			c0,0.1-0.7,0.2-3.8,0.1c8.3,1.2,14.8-5.1,14.6-11.1C924,504.2,919.6,499.5,913.4,498.5z"/>
		<path id="XMLID_38_" fill="#6B91CE" d="M934,507.3c1.5-1.8,3.7-4.6,2.9-7.1c-1.4-4.2-10.4-4.2-10.6-7c-0.1-1.9,3.7-2.7,3.6-3.9
			c-0.5-3.8-38.1-2.6-53.8-2.6c-3.1,0-6.9,0-6.9,0c-1.8,0-4,0-7.4,0c-9.9,0-9.4-0.1-10.8,0c-7.5,0.7-56.8,12.9-63.7,21.9
			c0.5,1.8,1.4,4.2,2.7,7c1.8,3.5,3.5,6,5.7,8.9c1.5,2,3.6,4.8,6.2,7.7c1.5,2.1,3.8,5,6.5,8.3c7.5,8.8,14.4,14.6,17.3,16.9
			c12.1,9.9,28.5,19.2,31.2,16.1c1.3-1.4-1.4-4.5,0.5-9.5c1.2-3,3.3-4.9,4.2-5.6c1.2-1,2.5-1.7,6.3-3.5c2.5-1.2,4.9-2,8.2-3
			c21.7-6.9,26.3-16,43.5-16.7c3-0.1,4.3,0.1,5.7-0.1c0,0,0.8-0.1,1.5-0.4C929.5,534,932.6,522.8,934,507.3z"/>
		<path id="XMLID_37_" fill="#3A3A3A" d="M834.1,772.9c2.3,2,5.5,2.7,8.3,1.7c3-1.1,5.1-3.7,5.5-6.9c2.9,2.3,5.7,4.6,8.7,6.9
			c2.5,1.5,4.8,2.4,6.3,2.9c1.9,0.6,3.6,0.7,4.9,1c3.7,0.5,4.5,0,6.7,0.5c1.4,0.4,3.5,1,5.7,2.9c0.1,0.1,2.3,3.2,0.7,6.7
			c-1.5,3.6-5.2,4-5.5,4c-3.1,0.7-7.5,1.4-12.9,1.2c-7.4-0.5-13.2-2.7-16.5-4.5c-0.5,0.2-5.6,2.6-10,0c-2.5-1.4-3.5-3.8-3.7-4.5
			C829.9,779.1,833.6,773.5,834.1,772.9z"/>
		<path id="XMLID_32_" fill="#F7E9D7" d="M896.1,499.6c-23.6-0.7-47.3-1.4-70.8-2.1c-5.6-0.7-13.7-1.3-23.3-0.7l-57.5,13.3
			l-24.9,1.8l-16.3,13.7l39.1-4.5c14.5-1.4,29-2.9,43.6-4.3c4.9-0.5,11.9-1.1,20.5-1.2c5.7,0,10.6,0.1,14.4,0.4
			c3.5,0.2,6.1,0.5,7.3,0.6c12.1,1.1,37.6,3.2,60.1,4.5c2.5,0.1,4.4,0.2,5.4,0.2c8.3,0.7,14.5-6,14-11.9
			C907.1,504.6,902.4,500,896.1,499.6z"/>
	</g>
	<g id="Ebene_1_2_">
		<path id="XMLID_24_" fill="#F7E9D7" d="M1000.3,485.2c0.6,3.1,1.5,9.9-1.2,17.6c-3.8,10.6-11.9,15.7-14.3,17.3
			c-3.2,1.3-6,2.1-7.9,2.6c-4.3,1.1-6.8,0.8-8.3,2.7c-1.8,2.4-2.1,5.6-2.1,5.6l-7-1.5c-3.1,1-6.2,1.8-9.3,2.7
			c-0.8,0.5-3.5,2-6.1,1.2c-1.4-0.5-2.6-1.5-4.4-4.8c-2.9-5.1-3.7-9.9-4-11.5c-1.2-6.4-1.2-9.2-1.7-13.1c-0.6-4.2-1.9-10.1-5.2-17
			c2.1-0.8,5.1-2.3,8.1-4.6c4.5-3.6,6.9-7.7,8.1-10.2c6.4-2.7,12.7-5.5,19.2-8.3c3.3-0.4,17.4-1.3,25,5.7c1.1,1,3.2,3.2,5.4,6
			C997.3,479.2,999.2,482.8,1000.3,485.2z"/>
		<path id="XMLID_10_" fill="#F9DCC7" d="M970.1,524.1c-0.5,0.6-1.1,1.3-1.5,2.1c-1.1,1.8-1.7,3.5-2,4.9l-7-1.5
			C963,527.7,966.6,525.9,970.1,524.1z"/>
		
			<ellipse id="XMLID_9_" transform="matrix(0.3778 0.9259 -0.9259 0.3778 1081.188 -575.325)" fill="#D68249" cx="968.7" cy="516.8" rx="2.4" ry="3.8"/>
		
			<ellipse id="XMLID_6_" transform="matrix(0.9213 -0.3888 0.3888 0.9213 -124.6756 417.8795)" fill="#FFFFFF" cx="970.2" cy="517" rx="1.4" ry="1"/>
		<path id="XMLID_5_" fill="#8C581F" d="M975.5,516.6c0,0,0.8-4.8-5.4-12.6l2.9,1.4c0,0,6.8,9.8,5.4,12.6
			C976.8,520.8,975.5,516.6,975.5,516.6z"/>
		<path id="XMLID_4_" fill="#EAA16E" d="M954,531.1c0,0-1.7-3.7-1.2-6.9c0,0-2,5.4-1.1,7.6L954,531.1z"/>
		<path id="XMLID_2_" fill="#8C581F" d="M983.2,521.2c-0.8-1.8-1.5-3.5-2.4-5.2c3.1-1.7,6.2-3.3,9.2-5c-3.2,1.3-6.3,2.5-9.5,3.8
			c-0.8-1.7-1.5-3.3-2.4-5c2-1,4.3-1.9,6.3-2.9c-2.3,0.6-4.2,1-6.4,1.5c-1-2.1-1.9-4.5-2.7-6.5c3.5-1.4,7.4-3.1,11.3-4.8
			c-3.8,1.7-8.1,2.5-12,3.7c-0.4-1.1-0.8-2-1.2-3.1c-0.5-1-1-1.8-1.3-2.7c3.2-1.2,6.5-2.5,9.8-3.7c-3.1-1-19.8-5.5-33.2,4.3
			c-2.4,1.7-7.1,5.1-9.4,10.8c-9.6,23.2,32.7,67.9,32.7,67.9L967,578l-5.8-6.8l4.5,7.3l-9.3,6.3l-1.9-1.8l0.8,2l-8.6,3.8
			c-29.8-35-39.1-74.9-26.4-97.1c8.8-15.6,23.2-23.6,23.2-23.6c4-2.3,13.1-7.1,25.7-7c6.2,0,19.6,0.1,29.3,10.7
			c9.5,10.2,8.8,23.6,8.6,26.5c-0.1,2-0.6,5.6-2.4,9.8c-1.8,3.9-5.2,8.5-12.5,12.6c-2.6,1.1-5.1,2.1-7.7,3.1
			C983.9,522.9,983.5,522.1,983.2,521.2z"/>
	</g>
</g>
</g>
	<text id="close" x="1200" y="20" font-family="'CenturyGothic'" font-size="40">X</text>
</svg>
